solid Monopoly House
facet normal 0.0 0.0 -1.0
  outer loop
    vertex 11.11300015449524 0.0 4.962000083923339
    vertex 0.0 -0.7940001487731977 4.962000083923339
    vertex 0.0 0.0 4.962000083923339
  endloop
endfacet
facet normal 0.0 0.0 -1.0
  outer loop
    vertex 0.0 -0.7940001487731977 4.962000083923339
    vertex 11.11300015449524 0.0 4.962000083923339
    vertex 11.11300015449524 -0.7940001487731977 4.962000083923339
  endloop
endfacet
facet normal 0.0 -1.0 0.0
  outer loop
    vertex 11.11300015449524 0.0 4.962000083923339
    vertex 0.0 0.0 0.0
    vertex 11.11300015449524 0.0 0.0
  endloop
endfacet
facet normal 0.0 -1.0 0.0
  outer loop
    vertex 0.0 0.0 0.0
    vertex 11.11300015449524 0.0 4.962000083923339
    vertex 0.0 0.0 4.962000083923339
  endloop
endfacet
facet normal 0.0 0.0 -1.0
  outer loop
    vertex 11.11300015449524 11.907000303268424 4.962000083923339
    vertex 0.0 11.11299967765808 4.962000083923339
    vertex 0.0 11.907000303268424 4.962000083923339
  endloop
endfacet
facet normal 0.0 0.0 -1.0
  outer loop
    vertex 0.0 11.11299967765808 4.962000083923339
    vertex 11.11300015449524 11.907000303268424 4.962000083923339
    vertex 11.11300015449524 11.11299967765808 4.962000083923339
  endloop
endfacet
facet normal 0.0 1.0 0.0
  outer loop
    vertex 0.0 11.11299967765808 4.962000083923339
    vertex 11.11300015449524 11.11299967765808 0.0
    vertex 0.0 11.11299967765808 0.0
  endloop
endfacet
facet normal 0.0 1.0 0.0
  outer loop
    vertex 11.11300015449524 11.11299967765808 0.0
    vertex 0.0 11.11299967765808 4.962000083923339
    vertex 11.11300015449524 11.11299967765808 4.962000083923339
  endloop
endfacet
facet normal 0.0 0.0 1.0
  outer loop
    vertex 4.180999994277957 4.761999845504751 9.724999618530273
    vertex 4.180999994277957 6.350000143051147 9.724999618530273
    vertex 3.968000173568727 5.555999517440792 9.724999618530273
  endloop
endfacet
facet normal 0.0 0.0 1.0
  outer loop
    vertex 4.180999994277957 6.350000143051147 9.724999618530273
    vertex 4.180999994277957 4.761999845504751 9.724999618530273
    vertex 4.7619998455047625 4.18099951744079 9.724999618530273
  endloop
endfacet
facet normal 0.0 0.0 1.0
  outer loop
    vertex 4.180999994277957 6.350000143051147 9.724999618530273
    vertex 4.7619998455047625 4.18099951744079 9.724999618530273
    vertex 4.7619998455047625 6.930999517440796 9.724999618530273
  endloop
endfacet
facet normal 0.0 0.0 1.0
  outer loop
    vertex 4.7619998455047625 6.930999517440796 9.724999618530273
    vertex 4.7619998455047625 4.18099951744079 9.724999618530273
    vertex 5.555999994277955 3.9679996967315647 9.724999618530273
  endloop
endfacet
facet normal 0.0 0.0 1.0
  outer loop
    vertex 4.7619998455047625 6.930999517440796 9.724999618530273
    vertex 5.555999994277955 3.9679996967315647 9.724999618530273
    vertex 5.555999994277955 7.143999814987176 9.724999618530273
  endloop
endfacet
facet normal 0.0 0.0 1.0
  outer loop
    vertex 5.555999994277955 7.143999814987176 9.724999618530273
    vertex 5.555999994277955 3.9679996967315647 9.724999618530273
    vertex 6.34999966621399 4.18099951744079 9.724999618530273
  endloop
endfacet
facet normal 0.0 0.0 1.0
  outer loop
    vertex 5.555999994277955 7.143999814987176 9.724999618530273
    vertex 6.34999966621399 4.18099951744079 9.724999618530273
    vertex 6.34999966621399 6.930999517440796 9.724999618530273
  endloop
endfacet
facet normal 0.0 0.0 1.0
  outer loop
    vertex 6.34999966621399 6.930999517440796 9.724999618530273
    vertex 6.34999966621399 4.18099951744079 9.724999618530273
    vertex 6.930999994277952 4.761999845504751 9.724999618530273
  endloop
endfacet
facet normal 0.0 0.0 1.0
  outer loop
    vertex 6.34999966621399 6.930999517440796 9.724999618530273
    vertex 6.930999994277952 4.761999845504751 9.724999618530273
    vertex 6.930999994277952 6.350000143051147 9.724999618530273
  endloop
endfacet
facet normal 0.0 0.0 1.0
  outer loop
    vertex 6.930999994277952 6.350000143051147 9.724999618530273
    vertex 6.930999994277952 4.761999845504751 9.724999618530273
    vertex 7.144000291824338 5.555999517440792 9.724999618530273
  endloop
endfacet
facet normal 0.9658502228751481 0.2591010362233753 -2.614783031550901e-18
  outer loop
    vertex 6.930999994277952 6.350000143051147 7.7408749580383285
    vertex 7.144000291824338 5.555999517440792 9.724999618530273
    vertex 7.144000291824338 5.555999517440792 8.138000202178953
  endloop
endfacet
facet normal 0.9658502228751481 0.2591010362233753 -2.614783031550901e-18
  outer loop
    vertex 7.144000291824338 5.555999517440792 9.724999618530273
    vertex 6.930999994277952 6.350000143051147 7.7408749580383285
    vertex 6.930999994277952 6.350000143051147 9.724999618530273
  endloop
endfacet
facet normal 0.9658501449947692 -0.2591013265376761 5.2295782039082876e-18
  outer loop
    vertex 7.144000291824338 5.555999517440792 8.138000202178953
    vertex 6.930999994277952 4.761999845504751 9.724999618530273
    vertex 6.930999994277952 4.761999845504751 7.7408749580383285
  endloop
endfacet
facet normal 0.9658501449947692 -0.2591013265376761 5.2295782039082876e-18
  outer loop
    vertex 6.930999994277952 4.761999845504751 9.724999618530273
    vertex 7.144000291824338 5.555999517440792 8.138000202178953
    vertex 7.144000291824338 5.555999517440792 9.724999618530273
  endloop
endfacet
facet normal 0.7071067811865476 -0.7071067811865476 0.0
  outer loop
    vertex 6.930999994277952 4.761999845504751 7.7408749580383285
    vertex 6.34999966621399 4.18099951744079 9.724999618530273
    vertex 6.34999966621399 4.18099951744079 7.450283241271971
  endloop
endfacet
facet normal 0.7071067811865476 -0.7071067811865476 0.0
  outer loop
    vertex 6.34999966621399 4.18099951744079 9.724999618530273
    vertex 6.930999994277952 4.761999845504751 7.7408749580383285
    vertex 6.930999994277952 4.761999845504751 9.724999618530273
  endloop
endfacet
facet normal 0.25910078543570786 -0.9658502901519466 1.1673434576685474e-18
  outer loop
    vertex 6.34999966621399 4.18099951744079 7.450283241271971
    vertex 5.555999994277955 3.9679996967315647 9.724999618530273
    vertex 5.555999994277955 3.9679996967315647 7.343749713897704
  endloop
endfacet
facet normal 0.25910078543570786 -0.9658502901519466 1.1673434576685474e-18
  outer loop
    vertex 5.555999994277955 3.9679996967315647 9.724999618530273
    vertex 6.34999966621399 4.18099951744079 7.450283241271971
    vertex 6.34999966621399 4.18099951744079 9.724999618530273
  endloop
endfacet
facet normal -0.2591006402787385 -0.965850329092012 -3.8911403421174707e-19
  outer loop
    vertex 5.555999994277955 3.9679996967315647 9.724999618530273
    vertex 4.7619998455047625 4.18099951744079 7.450283241271971
    vertex 5.555999994277955 3.9679996967315647 7.343749713897704
  endloop
endfacet
facet normal -0.2591006402787385 -0.965850329092012 -3.8911403421174707e-19
  outer loop
    vertex 4.7619998455047625 4.18099951744079 7.450283241271971
    vertex 5.555999994277955 3.9679996967315647 9.724999618530273
    vertex 4.7619998455047625 4.18099951744079 9.724999618530273
  endloop
endfacet
facet normal -0.7071070713540757 -0.7071064910189003 2.5330718338943677e-18
  outer loop
    vertex 4.180999994277957 4.761999845504751 9.724999618530273
    vertex 4.7619998455047625 4.18099951744079 7.450283241271971
    vertex 4.7619998455047625 4.18099951744079 9.724999618530273
  endloop
endfacet
facet normal -0.7071070713540757 -0.7071064910189003 2.5330718338943677e-18
  outer loop
    vertex 4.7619998455047625 4.18099951744079 7.450283241271971
    vertex 4.180999994277957 4.761999845504751 9.724999618530273
    vertex 4.180999994277957 4.761999845504751 7.7408749580383285
  endloop
endfacet
facet normal -0.9658502901519466 -0.25910078543570786 7.844368484788816e-18
  outer loop
    vertex 3.968000173568727 5.555999517440792 9.724999618530273
    vertex 4.180999994277957 4.761999845504751 7.7408749580383285
    vertex 4.180999994277957 4.761999845504751 9.724999618530273
  endloop
endfacet
facet normal -0.9658502901519466 -0.25910078543570786 7.844368484788816e-18
  outer loop
    vertex 4.180999994277957 4.761999845504751 7.7408749580383285
    vertex 3.968000173568727 5.555999517440792 9.724999618530273
    vertex 3.968000173568727 5.555999517440792 8.138000202178953
  endloop
endfacet
facet normal -0.9658503680320119 0.259100495121926 -5.2295668490491364e-18
  outer loop
    vertex 4.180999994277957 6.350000143051147 9.724999618530273
    vertex 3.968000173568727 5.555999517440792 8.138000202178953
    vertex 3.968000173568727 5.555999517440792 9.724999618530273
  endloop
endfacet
facet normal -0.9658503680320119 0.259100495121926 -5.2295668490491364e-18
  outer loop
    vertex 3.968000173568727 5.555999517440792 8.138000202178953
    vertex 4.180999994277957 6.350000143051147 9.724999618530273
    vertex 4.180999994277957 6.350000143051147 7.7408749580383285
  endloop
endfacet
facet normal 1.0 0.0 0.0
  outer loop
    vertex 11.11300015449524 11.11299967765808 0.0
    vertex 11.11300015449524 0.0 4.962000083923339
    vertex 11.11300015449524 0.0 0.0
  endloop
endfacet
facet normal 1.0 0.0 0.0
  outer loop
    vertex 11.11300015449524 0.0 4.962000083923339
    vertex 11.11300015449524 11.11299967765808 0.0
    vertex 11.11300015449524 5.555999517440792 8.138000202178953
  endloop
endfacet
facet normal 1.0 0.0 0.0
  outer loop
    vertex 11.11300015449524 5.555999517440792 8.138000202178953
    vertex 11.11300015449524 11.11299967765808 0.0
    vertex 11.11300015449524 11.11299967765808 4.962000083923339
  endloop
endfacet
facet normal 1.0 0.0 0.0
  outer loop
    vertex 11.11300015449524 5.555999517440792 8.138000202178953
    vertex 11.11300015449524 11.11299967765808 4.962000083923339
    vertex 11.11300015449524 11.907000303268424 4.962000083923339
  endloop
endfacet
facet normal 1.0 0.0 0.0
  outer loop
    vertex 11.11300015449524 5.555999517440792 8.138000202178953
    vertex 11.11300015449524 -0.7940001487731977 4.962000083923339
    vertex 11.11300015449524 0.0 4.962000083923339
  endloop
endfacet
facet normal -1.0 0.0 0.0
  outer loop
    vertex 0.0 11.907000303268424 4.962000083923339
    vertex 0.0 11.11299967765808 4.962000083923339
    vertex 0.0 5.555999517440792 8.138000202178953
  endloop
endfacet
facet normal -1.0 0.0 0.0
  outer loop
    vertex 0.0 5.555999517440792 8.138000202178953
    vertex 0.0 0.0 4.962000083923339
    vertex 0.0 -0.7940001487731977 4.962000083923339
  endloop
endfacet
facet normal -1.0 0.0 0.0
  outer loop
    vertex 0.0 0.0 4.962000083923339
    vertex 0.0 5.555999517440792 8.138000202178953
    vertex 0.0 0.0 0.0
  endloop
endfacet
facet normal -1.0 0.0 0.0
  outer loop
    vertex 0.0 0.0 0.0
    vertex 0.0 5.555999517440792 8.138000202178953
    vertex 0.0 11.11299967765808 0.0
  endloop
endfacet
facet normal -1.0 0.0 0.0
  outer loop
    vertex 0.0 11.11299967765808 0.0
    vertex 0.0 5.555999517440792 8.138000202178953
    vertex 0.0 11.11299967765808 4.962000083923339
  endloop
endfacet
facet normal -0.707106491018664 0.7071070713543122 2.279768392595966e-17
  outer loop
    vertex 4.180999994277957 6.350000143051147 7.7408749580383285
    vertex 4.7619998455047625 6.930999517440796 9.724999618530273
    vertex 4.7619998455047625 6.930999517440796 7.450283241271971
  endloop
endfacet
facet normal -0.707106491018664 0.7071070713543122 2.279768392595966e-17
  outer loop
    vertex 4.7619998455047625 6.930999517440796 9.724999618530273
    vertex 4.180999994277957 6.350000143051147 7.7408749580383285
    vertex 4.180999994277957 6.350000143051147 9.724999618530273
  endloop
endfacet
facet normal 0.0 0.0 -1.0
  outer loop
    vertex 11.11300015449524 11.11299967765808 0.0
    vertex 0.0 0.0 0.0
    vertex 0.0 11.11299967765808 0.0
  endloop
endfacet
facet normal 0.0 0.0 -1.0
  outer loop
    vertex 0.0 0.0 0.0
    vertex 11.11300015449524 11.11299967765808 0.0
    vertex 11.11300015449524 0.0 0.0
  endloop
endfacet
facet normal -0.2591011813804473 0.9658501839349914 -3.502025781588458e-18
  outer loop
    vertex 4.7619998455047625 6.930999517440796 7.450283241271971
    vertex 5.555999994277955 7.143999814987176 9.724999618530273
    vertex 5.555999994277955 7.143999814987176 7.343749713897704
  endloop
endfacet
facet normal -0.2591011813804473 0.9658501839349914 -3.502025781588458e-18
  outer loop
    vertex 5.555999994277955 7.143999814987176 9.724999618530273
    vertex 4.7619998455047625 6.930999517440796 7.450283241271971
    vertex 4.7619998455047625 6.930999517440796 9.724999618530273
  endloop
endfacet
facet normal -5.017530873925655e-10 0.4472674356383071 0.8944002689051099
  outer loop
    vertex 3.968000173568727 5.555999517440792 8.138000202178953
    vertex 0.0 11.907000303268424 4.962000083923339
    vertex 0.0 5.555999517440792 8.138000202178953
  endloop
endfacet
facet normal -5.017530873925655e-10 0.4472674356383071 0.8944002689051099
  outer loop
    vertex 0.0 11.907000303268424 4.962000083923339
    vertex 3.968000173568727 5.555999517440792 8.138000202178953
    vertex 4.180999994277957 6.350000143051147 7.7408749580383285
  endloop
endfacet
facet normal -5.017530873925655e-10 0.4472674356383071 0.8944002689051099
  outer loop
    vertex 0.0 11.907000303268424 4.962000083923339
    vertex 4.180999994277957 6.350000143051147 7.7408749580383285
    vertex 4.7619998455047625 6.930999517440796 7.450283241271971
  endloop
endfacet
facet normal -5.017530873925655e-10 0.4472674356383071 0.8944002689051099
  outer loop
    vertex 0.0 11.907000303268424 4.962000083923339
    vertex 4.7619998455047625 6.930999517440796 7.450283241271971
    vertex 11.11300015449524 11.907000303268424 4.962000083923339
  endloop
endfacet
facet normal -5.017530873925655e-10 0.4472674356383071 0.8944002689051099
  outer loop
    vertex 11.11300015449524 11.907000303268424 4.962000083923339
    vertex 4.7619998455047625 6.930999517440796 7.450283241271971
    vertex 5.555999994277955 7.143999814987176 7.343749713897704
  endloop
endfacet
facet normal -5.017530873925655e-10 0.4472674356383071 0.8944002689051099
  outer loop
    vertex 11.11300015449524 11.907000303268424 4.962000083923339
    vertex 5.555999994277955 7.143999814987176 7.343749713897704
    vertex 6.34999966621399 6.930999517440796 7.450283241271971
  endloop
endfacet
facet normal -5.017530873925655e-10 0.4472674356383071 0.8944002689051099
  outer loop
    vertex 11.11300015449524 11.907000303268424 4.962000083923339
    vertex 6.34999966621399 6.930999517440796 7.450283241271971
    vertex 6.930999994277952 6.350000143051147 7.7408749580383285
  endloop
endfacet
facet normal -5.017530873925655e-10 0.4472674356383071 0.8944002689051099
  outer loop
    vertex 11.11300015449524 11.907000303268424 4.962000083923339
    vertex 6.930999994277952 6.350000143051147 7.7408749580383285
    vertex 7.144000291824338 5.555999517440792 8.138000202178953
  endloop
endfacet
facet normal -5.017530873925655e-10 0.4472674356383071 0.8944002689051099
  outer loop
    vertex 11.11300015449524 11.907000303268424 4.962000083923339
    vertex 7.144000291824338 5.555999517440792 8.138000202178953
    vertex 11.11300015449524 5.555999517440792 8.138000202178953
  endloop
endfacet
facet normal -1.912473347463874e-12 -0.4473262896681752 0.8943708350408704
  outer loop
    vertex 11.11300015449524 -0.7940001487731977 4.962000083923339
    vertex 0.0 5.555999517440792 8.138000202178953
    vertex 0.0 -0.7940001487731977 4.962000083923339
  endloop
endfacet
facet normal -1.912473347463874e-12 -0.4473262896681752 0.8943708350408704
  outer loop
    vertex 0.0 5.555999517440792 8.138000202178953
    vertex 11.11300015449524 -0.7940001487731977 4.962000083923339
    vertex 4.7619998455047625 4.18099951744079 7.450283241271971
  endloop
endfacet
facet normal -1.912473347463874e-12 -0.4473262896681752 0.8943708350408704
  outer loop
    vertex 0.0 5.555999517440792 8.138000202178953
    vertex 4.7619998455047625 4.18099951744079 7.450283241271971
    vertex 4.180999994277957 4.761999845504751 7.7408749580383285
  endloop
endfacet
facet normal -1.912473347463874e-12 -0.4473262896681752 0.8943708350408704
  outer loop
    vertex 0.0 5.555999517440792 8.138000202178953
    vertex 4.180999994277957 4.761999845504751 7.7408749580383285
    vertex 3.968000173568727 5.555999517440792 8.138000202178953
  endloop
endfacet
facet normal -1.912473347463874e-12 -0.4473262896681752 0.8943708350408704
  outer loop
    vertex 4.7619998455047625 4.18099951744079 7.450283241271971
    vertex 11.11300015449524 -0.7940001487731977 4.962000083923339
    vertex 5.555999994277955 3.9679996967315647 7.343749713897704
  endloop
endfacet
facet normal -1.912473347463874e-12 -0.4473262896681752 0.8943708350408704
  outer loop
    vertex 5.555999994277955 3.9679996967315647 7.343749713897704
    vertex 11.11300015449524 -0.7940001487731977 4.962000083923339
    vertex 6.34999966621399 4.18099951744079 7.450283241271971
  endloop
endfacet
facet normal -1.912473347463874e-12 -0.4473262896681752 0.8943708350408704
  outer loop
    vertex 6.34999966621399 4.18099951744079 7.450283241271971
    vertex 11.11300015449524 -0.7940001487731977 4.962000083923339
    vertex 6.930999994277952 4.761999845504751 7.7408749580383285
  endloop
endfacet
facet normal -1.912473347463874e-12 -0.4473262896681752 0.8943708350408704
  outer loop
    vertex 6.930999994277952 4.761999845504751 7.7408749580383285
    vertex 11.11300015449524 -0.7940001487731977 4.962000083923339
    vertex 7.144000291824338 5.555999517440792 8.138000202178953
  endloop
endfacet
facet normal -1.912473347463874e-12 -0.4473262896681752 0.8943708350408704
  outer loop
    vertex 7.144000291824338 5.555999517440792 8.138000202178953
    vertex 11.11300015449524 -0.7940001487731977 4.962000083923339
    vertex 11.11300015449524 5.555999517440792 8.138000202178953
  endloop
endfacet
facet normal 0.2591013265376761 0.9658501449947692 1.5564577096387443e-18
  outer loop
    vertex 5.555999994277955 7.143999814987176 9.724999618530273
    vertex 6.34999966621399 6.930999517440796 7.450283241271971
    vertex 5.555999994277955 7.143999814987176 7.343749713897704
  endloop
endfacet
facet normal 0.2591013265376761 0.9658501449947692 1.5564577096387443e-18
  outer loop
    vertex 6.34999966621399 6.930999517440796 7.450283241271971
    vertex 5.555999994277955 7.143999814987176 9.724999618530273
    vertex 6.34999966621399 6.930999517440796 9.724999618530273
  endloop
endfacet
facet normal 0.7071062008508978 0.707107361521721 7.599218620088446e-18
  outer loop
    vertex 6.34999966621399 6.930999517440796 9.724999618530273
    vertex 6.930999994277952 6.350000143051147 7.7408749580383285
    vertex 6.34999966621399 6.930999517440796 7.450283241271971
  endloop
endfacet
facet normal 0.7071062008508978 0.707107361521721 7.599218620088446e-18
  outer loop
    vertex 6.930999994277952 6.350000143051147 7.7408749580383285
    vertex 6.34999966621399 6.930999517440796 9.724999618530273
    vertex 6.930999994277952 6.350000143051147 9.724999618530273
  endloop
endfacet
endsolid Monopoly House
