solid Monopoly Hotel
facet normal 0.660460720813046 0.7508605970905063 0.0
  outer loop
    vertex 10.32000020368144 7.493355633174783 16.077000404405407
    vertex 10.90100018934795 6.982305152149995 13.95951821904164
    vertex 10.32000020368144 7.493355633174783 13.572076583909801
  endloop
endfacet
facet normal 0.660460720813046 0.7508605970905063 0.0
  outer loop
    vertex 10.90100018934795 6.982305152149995 13.95951821904164
    vertex 10.32000020368144 7.493355633174783 16.077000404405407
    vertex 10.90100018934795 6.982305152149995 16.077000404405407
  endloop
endfacet
facet normal -0.2296576158475705 -0.973271482929203 -2.8166726358228367e-19
  outer loop
    vertex 9.526000251790034 4.887085843849542 16.077000404405407
    vertex 8.732000216642517 5.074441744287587 13.572227264451792
    vertex 9.526000251790034 4.887085843849542 13.430259491014294
  endloop
endfacet
facet normal -0.2296576158475705 -0.973271482929203 -2.8166726358228367e-19
  outer loop
    vertex 8.732000216642517 5.074441744287587 13.572227264451792
    vertex 9.526000251790034 4.887085843849542 16.077000404405407
    vertex 8.732000216642517 5.074441744287587 16.077000404405407
  endloop
endfacet
facet normal -0.22965767385877026 0.9732714692406116 -2.81626307220306e-19
  outer loop
    vertex 8.732000144553636 7.493355585848939 13.572076583909801
    vertex 9.526000168533928 7.680711533612828 16.077000404405407
    vertex 9.526000168533928 7.680711533612828 13.430037284898573
  endloop
endfacet
facet normal -0.22965767385877026 0.9732714692406116 -2.81626307220306e-19
  outer loop
    vertex 9.526000168533928 7.680711533612828 16.077000404405407
    vertex 8.732000144553636 7.493355585848939 13.572076583909801
    vertex 8.732000144553636 7.493355585848939 16.077000404405407
  endloop
endfacet
facet normal 0.9565052545388458 0.29171509738026485 0.0
  outer loop
    vertex 10.90100018934795 6.982305152149995 13.95951821904164
    vertex 11.114000269289786 6.283898736057035 16.077000404405407
    vertex 11.114000269289786 6.283898736057035 14.489000106859022
  endloop
endfacet
facet normal 0.9565052545388458 0.29171509738026485 0.0
  outer loop
    vertex 11.114000269289786 6.283898736057035 16.077000404405407
    vertex 10.90100018934795 6.982305152149995 13.95951821904164
    vertex 10.90100018934795 6.982305152149995 16.077000404405407
  endloop
endfacet
facet normal 0.2296576158475705 0.973271482929203 -2.816263072203058e-19
  outer loop
    vertex 9.526000168533928 7.680711533612828 16.077000404405407
    vertex 10.32000020368144 7.493355633174783 13.572076583909801
    vertex 9.526000168533928 7.680711533612828 13.430037284898573
  endloop
endfacet
facet normal 0.2296576158475705 0.973271482929203 -2.816263072203058e-19
  outer loop
    vertex 10.32000020368144 7.493355633174783 13.572076583909801
    vertex 9.526000168533928 7.680711533612828 16.077000404405407
    vertex 10.32000020368144 7.493355633174783 16.077000404405407
  endloop
endfacet
facet normal 0.22965767385877026 -0.9732714692406116 1.9716708450759866e-18
  outer loop
    vertex 10.32000027577032 5.074441791613431 13.572227264451792
    vertex 9.526000251790034 4.887085843849542 16.077000404405407
    vertex 9.526000251790034 4.887085843849542 13.430259491014294
  endloop
endfacet
facet normal 0.22965767385877026 -0.9732714692406116 1.9716708450759866e-18
  outer loop
    vertex 9.526000251790034 4.887085843849542 16.077000404405407
    vertex 10.32000027577032 5.074441791613431 13.572227264451792
    vertex 10.32000027577032 5.074441791613431 16.077000404405407
  endloop
endfacet
facet normal 1.806712729765891e-08 -0.6040551067324044 0.7969425500188225
  outer loop
    vertex 19.051000015966057 5.677610878643825e-07 9.72599961857777
    vertex 1.8727380486439023e-07 6.28389840483574 14.489000106859022
    vertex 3.7454760981603386e-07 0.0 9.72599961857777
  endloop
endfacet
facet normal 1.806712729765891e-08 -0.6040551067324044 0.7969425500188225
  outer loop
    vertex 1.8727380486439023e-07 6.28389840483574 14.489000106859022
    vertex 19.051000015966057 5.677610878643825e-07 9.72599961857777
    vertex 8.732000216642517 5.074441744287587 13.572227264451792
  endloop
endfacet
facet normal 1.806712729765891e-08 -0.6040551067324044 0.7969425500188225
  outer loop
    vertex 1.8727380486439023e-07 6.28389840483574 14.489000106859022
    vertex 8.732000216642517 5.074441744287587 13.572227264451792
    vertex 8.151000230976011 5.585492225312396 13.95955731968861
  endloop
endfacet
facet normal 1.806712729765891e-08 -0.6040551067324044 0.7969425500188225
  outer loop
    vertex 1.8727380486439023e-07 6.28389840483574 14.489000106859022
    vertex 8.151000230976011 5.585492225312396 13.95955731968861
    vertex 7.938000151034176 6.283898641405346 14.489000106859022
  endloop
endfacet
facet normal 1.806712729765891e-08 -0.6040551067324044 0.7969425500188225
  outer loop
    vertex 8.732000216642517 5.074441744287587 13.572227264451792
    vertex 19.051000015966057 5.677610878643825e-07 9.72599961857777
    vertex 9.526000251790034 4.887085843849542 13.430259491014294
  endloop
endfacet
facet normal 1.806712729765891e-08 -0.6040551067324044 0.7969425500188225
  outer loop
    vertex 9.526000251790034 4.887085843849542 13.430259491014294
    vertex 19.051000015966057 5.677610878643825e-07 9.72599961857777
    vertex 10.32000027577032 5.074441791613431 13.572227264451792
  endloop
endfacet
facet normal 1.806712729765891e-08 -0.6040551067324044 0.7969425500188225
  outer loop
    vertex 10.32000027577032 5.074441791613431 13.572227264451792
    vertex 19.051000015966057 5.677610878643825e-07 9.72599961857777
    vertex 10.901000230976 5.585492307268357 13.95955731968861
  endloop
endfacet
facet normal 1.806712729765891e-08 -0.6040551067324044 0.7969425500188225
  outer loop
    vertex 10.901000230976 5.585492307268357 13.95955731968861
    vertex 19.051000015966057 5.677610878643825e-07 9.72599961857777
    vertex 11.114000269289786 6.283898736057035 14.489000106859022
  endloop
endfacet
facet normal 1.806712729765891e-08 -0.6040551067324044 0.7969425500188225
  outer loop
    vertex 11.114000269289786 6.283898736057035 14.489000106859022
    vertex 19.051000015966057 5.677610878643825e-07 9.72599961857777
    vertex 19.05099982869225 6.2838989725968375 14.489000106859022
  endloop
endfacet
facet normal 0.6604607655675928 -0.7508605577241817 0.0
  outer loop
    vertex 10.901000230976 5.585492307268357 13.95955731968861
    vertex 10.32000027577032 5.074441791613431 16.077000404405407
    vertex 10.32000027577032 5.074441791613431 13.572227264451792
  endloop
endfacet
facet normal 0.6604607655675928 -0.7508605577241817 0.0
  outer loop
    vertex 10.32000027577032 5.074441791613431 16.077000404405407
    vertex 10.901000230976 5.585492307268357 13.95955731968861
    vertex 10.901000230976 5.585492307268357 16.077000404405407
  endloop
endfacet
facet normal 0.9565052701085875 -0.2917150463286009 -1.1738913190653068e-08
  outer loop
    vertex 11.114000269289786 6.283898736057035 14.489000106859022
    vertex 10.901000230976 5.585492307268357 16.077000404405407
    vertex 10.901000230976 5.585492307268357 13.95955731968861
  endloop
endfacet
facet normal 0.9565052701085875 -0.2917150463286009 -1.1738913190653068e-08
  outer loop
    vertex 10.901000230976 5.585492307268357 16.077000404405407
    vertex 11.114000269289786 6.283898736057035 14.489000106859022
    vertex 11.114000269289786 6.283898736057035 16.077000404405407
  endloop
endfacet
facet normal -0.6604607655675928 0.7508605577241817 0.0
  outer loop
    vertex 8.15100018934796 6.982305070194034 13.95951821904164
    vertex 8.732000144553636 7.493355585848939 16.077000404405407
    vertex 8.732000144553636 7.493355585848939 13.572076583909801
  endloop
endfacet
facet normal -0.6604607655675928 0.7508605577241817 0.0
  outer loop
    vertex 8.732000144553636 7.493355585848939 16.077000404405407
    vertex 8.15100018934796 6.982305070194034 13.95951821904164
    vertex 8.15100018934796 6.982305070194034 16.077000404405407
  endloop
endfacet
facet normal 0.0 0.0 -1.0
  outer loop
    vertex 0.0010007592123489068 0.6607965064328747 9.72599961857777
    vertex 19.051000015966057 5.677610878643825e-07 9.72599961857777
    vertex 3.7454760981603386e-07 0.0 9.72599961857777
  endloop
endfacet
facet normal 0.0 0.0 -1.0
  outer loop
    vertex 19.051000015966057 5.677610878643825e-07 9.72599961857777
    vertex 0.0010007592123489068 0.6607965064328747 9.72599961857777
    vertex 19.05099999627289 0.6607970741641483 9.72599961857777
  endloop
endfacet
facet normal 0.9999999999999997 2.9802169431563057e-08 0.0
  outer loop
    vertex 19.050999665081388 11.773796751822216 0.0
    vertex 19.05099999627289 0.6607970741641483 9.72599961857777
    vertex 19.05099999627289 0.6607970741641483 0.0
  endloop
endfacet
facet normal 0.9999999999999997 2.9802169431563057e-08 0.0
  outer loop
    vertex 19.05099999627289 0.6607970741641483 9.72599961857777
    vertex 19.050999665081388 11.773796751822216 0.0
    vertex 19.05099982869225 6.2838989725968375 14.489000106859022
  endloop
endfacet
facet normal 0.9999999999999997 2.9802169431563057e-08 0.0
  outer loop
    vertex 19.05099982869225 6.2838989725968375 14.489000106859022
    vertex 19.050999665081388 11.773796751822216 0.0
    vertex 19.050999665081388 11.773796751822216 9.72599961857777
  endloop
endfacet
facet normal 0.9999999999999997 2.9802169431563057e-08 0.0
  outer loop
    vertex 19.05099982869225 6.2838989725968375 14.489000106859022
    vertex 19.050999665081388 11.773796751822216 9.72599961857777
    vertex 19.050999641418446 12.567797377432568 9.72599961857777
  endloop
endfacet
facet normal 0.9999999999999997 2.9802169431563057e-08 0.0
  outer loop
    vertex 19.05099982869225 6.2838989725968375 14.489000106859022
    vertex 19.051000015966057 5.677610878643825e-07 9.72599961857777
    vertex 19.05099999627289 0.6607970741641483 9.72599961857777
  endloop
endfacet
facet normal -0.9999999980635221 -3.2041010314818183e-08 -6.223306990633121e-05
  outer loop
    vertex -8.725366030615924e-17 12.567796809671488 9.72599961857777
    vertex 0.0010004280208496202 11.773796184090942 9.72599961857777
    vertex 1.8727380486439023e-07 6.28389840483574 14.489000106859022
  endloop
endfacet
facet normal -0.9999999980635221 -3.2041010314818183e-08 -6.223306990633121e-05
  outer loop
    vertex 1.8727380486439023e-07 6.28389840483574 14.489000106859022
    vertex 0.0010007592123489068 0.6607965064328747 9.72599961857777
    vertex 3.7454760981603386e-07 0.0 9.72599961857777
  endloop
endfacet
facet normal -0.9999999980635221 -3.2041010314818183e-08 -6.223306990633121e-05
  outer loop
    vertex 0.0010007592123489068 0.6607965064328747 9.72599961857777
    vertex 1.8727380486439023e-07 6.28389840483574 14.489000106859022
    vertex 0.0010007592123489068 0.6607965064328747 0.0
  endloop
endfacet
facet normal -0.9999999980635221 -3.2041010314818183e-08 -6.223306990633121e-05
  outer loop
    vertex 0.0010007592123489068 0.6607965064328747 0.0
    vertex 1.8727380486439023e-07 6.28389840483574 14.489000106859022
    vertex 0.0010004280208496202 11.773796184090942 0.0
  endloop
endfacet
facet normal -0.9999999980635221 -3.2041010314818183e-08 -6.223306990633121e-05
  outer loop
    vertex 0.0010004280208496202 11.773796184090942 0.0
    vertex 1.8727380486439023e-07 6.28389840483574 14.489000106859022
    vertex 0.0010004280208496202 11.773796184090942 9.72599961857777
  endloop
endfacet
facet normal 0.0 0.0 -1.0
  outer loop
    vertex 19.050999665081388 11.773796751822216 0.0
    vertex 0.0010007592123489068 0.6607965064328747 0.0
    vertex 0.0010004280208496202 11.773796184090942 0.0
  endloop
endfacet
facet normal 0.0 0.0 -1.0
  outer loop
    vertex 0.0010007592123489068 0.6607965064328747 0.0
    vertex 19.050999665081388 11.773796751822216 0.0
    vertex 19.05099999627289 0.6607970741641483 0.0
  endloop
endfacet
facet normal -0.660460720813046 -0.7508605970905063 0.0
  outer loop
    vertex 8.732000216642517 5.074441744287587 16.077000404405407
    vertex 8.151000230976011 5.585492225312396 13.95955731968861
    vertex 8.732000216642517 5.074441744287587 13.572227264451792
  endloop
endfacet
facet normal -0.660460720813046 -0.7508605970905063 0.0
  outer loop
    vertex 8.151000230976011 5.585492225312396 13.95955731968861
    vertex 8.732000216642517 5.074441744287587 16.077000404405407
    vertex 8.151000230976011 5.585492225312396 16.077000404405407
  endloop
endfacet
facet normal -0.9565052526484452 -0.29171510357870356 -1.2215131848381962e-08
  outer loop
    vertex 7.938000151034176 6.283898641405346 16.077000404405407
    vertex 8.151000230976011 5.585492225312396 13.95955731968861
    vertex 8.151000230976011 5.585492225312396 16.077000404405407
  endloop
endfacet
facet normal -0.9565052526484452 -0.29171510357870356 -1.2215131848381962e-08
  outer loop
    vertex 8.151000230976011 5.585492225312396 13.95955731968861
    vertex 7.938000151034176 6.283898641405346 16.077000404405407
    vertex 7.938000151034176 6.283898641405346 14.489000106859022
  endloop
endfacet
facet normal -6.459273166486733e-06 0.6040574646767384 0.7969407627462588
  outer loop
    vertex 7.938000151034176 6.283898641405346 14.489000106859022
    vertex -8.725366030615924e-17 12.567796809671488 9.72599961857777
    vertex 1.8727380486439023e-07 6.28389840483574 14.489000106859022
  endloop
endfacet
facet normal -6.459273166486733e-06 0.6040574646767384 0.7969407627462588
  outer loop
    vertex -8.725366030615924e-17 12.567796809671488 9.72599961857777
    vertex 7.938000151034176 6.283898641405346 14.489000106859022
    vertex 8.15100018934796 6.982305070194034 13.95951821904164
  endloop
endfacet
facet normal -6.459273166486733e-06 0.6040574646767384 0.7969407627462588
  outer loop
    vertex -8.725366030615924e-17 12.567796809671488 9.72599961857777
    vertex 8.15100018934796 6.982305070194034 13.95951821904164
    vertex 8.732000144553636 7.493355585848939 13.572076583909801
  endloop
endfacet
facet normal -6.459273166486733e-06 0.6040574646767384 0.7969407627462588
  outer loop
    vertex -8.725366030615924e-17 12.567796809671488 9.72599961857777
    vertex 8.732000144553636 7.493355585848939 13.572076583909801
    vertex 19.050999641418446 12.567797377432568 9.72599961857777
  endloop
endfacet
facet normal -6.459273166486733e-06 0.6040574646767384 0.7969407627462588
  outer loop
    vertex 19.050999641418446 12.567797377432568 9.72599961857777
    vertex 8.732000144553636 7.493355585848939 13.572076583909801
    vertex 9.526000168533928 7.680711533612828 13.430037284898573
  endloop
endfacet
facet normal -6.459273166486733e-06 0.6040574646767384 0.7969407627462588
  outer loop
    vertex 19.050999641418446 12.567797377432568 9.72599961857777
    vertex 9.526000168533928 7.680711533612828 13.430037284898573
    vertex 10.32000020368144 7.493355633174783 13.572076583909801
  endloop
endfacet
facet normal -6.459273166486733e-06 0.6040574646767384 0.7969407627462588
  outer loop
    vertex 19.050999641418446 12.567797377432568 9.72599961857777
    vertex 10.32000020368144 7.493355633174783 13.572076583909801
    vertex 10.90100018934795 6.982305152149995 13.95951821904164
  endloop
endfacet
facet normal -6.459273166486733e-06 0.6040574646767384 0.7969407627462588
  outer loop
    vertex 19.050999641418446 12.567797377432568 9.72599961857777
    vertex 10.90100018934795 6.982305152149995 13.95951821904164
    vertex 11.114000269289786 6.283898736057035 14.489000106859022
  endloop
endfacet
facet normal -6.459273166486733e-06 0.6040574646767384 0.7969407627462588
  outer loop
    vertex 19.050999641418446 12.567797377432568 9.72599961857777
    vertex 11.114000269289786 6.283898736057035 14.489000106859022
    vertex 19.05099982869225 6.2838989725968375 14.489000106859022
  endloop
endfacet
facet normal 0.0 0.0 -1.0
  outer loop
    vertex 19.050999641418446 12.567797377432568 9.72599961857777
    vertex 0.0010004280208496202 11.773796184090942 9.72599961857777
    vertex -8.725366030615924e-17 12.567796809671488 9.72599961857777
  endloop
endfacet
facet normal 0.0 0.0 -1.0
  outer loop
    vertex 0.0010004280208496202 11.773796184090942 9.72599961857777
    vertex 19.050999641418446 12.567797377432568 9.72599961857777
    vertex 19.050999665081388 11.773796751822216 9.72599961857777
  endloop
endfacet
facet normal 0.0 0.0 1.0
  outer loop
    vertex 8.151000230976011 5.585492225312396 16.077000404405407
    vertex 8.15100018934796 6.982305070194034 16.077000404405407
    vertex 7.938000151034176 6.283898641405346 16.077000404405407
  endloop
endfacet
facet normal 0.0 0.0 1.0
  outer loop
    vertex 8.15100018934796 6.982305070194034 16.077000404405407
    vertex 8.151000230976011 5.585492225312396 16.077000404405407
    vertex 8.732000216642517 5.074441744287587 16.077000404405407
  endloop
endfacet
facet normal 0.0 0.0 1.0
  outer loop
    vertex 8.15100018934796 6.982305070194034 16.077000404405407
    vertex 8.732000216642517 5.074441744287587 16.077000404405407
    vertex 8.732000144553636 7.493355585848939 16.077000404405407
  endloop
endfacet
facet normal 0.0 0.0 1.0
  outer loop
    vertex 8.732000144553636 7.493355585848939 16.077000404405407
    vertex 8.732000216642517 5.074441744287587 16.077000404405407
    vertex 9.526000251790034 4.887085843849542 16.077000404405407
  endloop
endfacet
facet normal 0.0 0.0 1.0
  outer loop
    vertex 8.732000144553636 7.493355585848939 16.077000404405407
    vertex 9.526000251790034 4.887085843849542 16.077000404405407
    vertex 9.526000168533928 7.680711533612828 16.077000404405407
  endloop
endfacet
facet normal 0.0 0.0 1.0
  outer loop
    vertex 9.526000168533928 7.680711533612828 16.077000404405407
    vertex 9.526000251790034 4.887085843849542 16.077000404405407
    vertex 10.32000027577032 5.074441791613431 16.077000404405407
  endloop
endfacet
facet normal 0.0 0.0 1.0
  outer loop
    vertex 9.526000168533928 7.680711533612828 16.077000404405407
    vertex 10.32000027577032 5.074441791613431 16.077000404405407
    vertex 10.32000020368144 7.493355633174783 16.077000404405407
  endloop
endfacet
facet normal 0.0 0.0 1.0
  outer loop
    vertex 10.32000020368144 7.493355633174783 16.077000404405407
    vertex 10.32000027577032 5.074441791613431 16.077000404405407
    vertex 10.901000230976 5.585492307268357 16.077000404405407
  endloop
endfacet
facet normal 0.0 0.0 1.0
  outer loop
    vertex 10.32000020368144 7.493355633174783 16.077000404405407
    vertex 10.901000230976 5.585492307268357 16.077000404405407
    vertex 10.90100018934795 6.982305152149995 16.077000404405407
  endloop
endfacet
facet normal 0.0 0.0 1.0
  outer loop
    vertex 10.90100018934795 6.982305152149995 16.077000404405407
    vertex 10.901000230976 5.585492307268357 16.077000404405407
    vertex 11.114000269289786 6.283898736057035 16.077000404405407
  endloop
endfacet
facet normal -0.9565052719263298 0.2917150403684012 -2.386128810478571e-18
  outer loop
    vertex 8.15100018934796 6.982305070194034 16.077000404405407
    vertex 7.938000151034176 6.283898641405346 14.489000106859022
    vertex 7.938000151034176 6.283898641405346 16.077000404405407
  endloop
endfacet
facet normal -0.9565052719263298 0.2917150403684012 -2.386128810478571e-18
  outer loop
    vertex 7.938000151034176 6.283898641405346 14.489000106859022
    vertex 8.15100018934796 6.982305070194034 16.077000404405407
    vertex 8.15100018934796 6.982305070194034 13.95951821904164
  endloop
endfacet
facet normal -2.9802167789139147e-08 0.9999999999999997 0.0
  outer loop
    vertex 0.0010004280208496202 11.773796184090942 9.72599961857777
    vertex 19.050999665081388 11.773796751822216 0.0
    vertex 0.0010004280208496202 11.773796184090942 0.0
  endloop
endfacet
facet normal -2.9802167789139147e-08 0.9999999999999997 0.0
  outer loop
    vertex 19.050999665081388 11.773796751822216 0.0
    vertex 0.0010004280208496202 11.773796184090942 9.72599961857777
    vertex 19.050999665081388 11.773796751822216 9.72599961857777
  endloop
endfacet
facet normal 2.9802167789139147e-08 -0.9999999999999997 0.0
  outer loop
    vertex 19.05099999627289 0.6607970741641483 9.72599961857777
    vertex 0.0010007592123489068 0.6607965064328747 0.0
    vertex 19.05099999627289 0.6607970741641483 0.0
  endloop
endfacet
facet normal 2.9802167789139147e-08 -0.9999999999999997 0.0
  outer loop
    vertex 0.0010007592123489068 0.6607965064328747 0.0
    vertex 19.05099999627289 0.6607970741641483 9.72599961857777
    vertex 0.0010007592123489068 0.6607965064328747 9.72599961857777
  endloop
endfacet
endsolid Monopoly Hotel
