solid Monopoly Iron
facet normal -3.219787363600758e-35 1.8720488932876763e-32 -1.0
  outer loop
    vertex 7.794372924178787 1.254443772606739 0.0
    vertex 7.911420423820265 2.283082024156902 0.0
    vertex 7.920608071464782 1.7610581005497472 0.0
  endloop
endfacet
facet normal -3.219787363600758e-35 1.8720488932876763e-32 -1.0
  outer loop
    vertex 7.911420423820265 2.283082024156902 0.0
    vertex 7.794372924178787 1.254443772606739 0.0
    vertex 7.767436104248912 2.7849404757197194 0.0
  endloop
endfacet
facet normal -3.219787363600758e-35 1.8720488932876763e-32 -1.0
  outer loop
    vertex 7.767436104248912 2.7849404757197194 0.0
    vertex 7.794372924178787 1.254443772606739 0.0
    vertex 7.541317698636397 0.7977639695574489 0.0
  endloop
endfacet
facet normal -3.219787363600758e-35 1.8720488932876763e-32 -1.0
  outer loop
    vertex 7.767436104248912 2.7849404757197194 0.0
    vertex 7.541317698636397 0.7977639695574489 0.0
    vertex 7.498467406184153 3.2324326311244866 0.0
  endloop
endfacet
facet normal -3.219787363600758e-35 1.8720488932876763e-32 -1.0
  outer loop
    vertex 7.498467406184153 3.2324326311244866 0.0
    vertex 7.541317698636397 0.7977639695574489 0.0
    vertex 7.178687690264756 0.4221406652806293 0.0
  endloop
endfacet
facet normal -3.219787363600758e-35 1.8720488932876763e-32 -1.0
  outer loop
    vertex 7.498467406184153 3.2324326311244866 0.0
    vertex 7.178687690264756 0.4221406652806293 0.0
    vertex 7.226506260353171 3.4949862891817913 0.0
  endloop
endfacet
facet normal -3.219787363600758e-35 1.8720488932876763e-32 -1.0
  outer loop
    vertex 4.3683957244208855 0.7419203812000406 0.0
    vertex 4.637112304218929 3.4993195817628924 0.0
    vertex 4.744019028697708 0.3792903728283993 0.0
  endloop
endfacet
facet normal -3.219787363600758e-35 1.8720488932876763e-32 -1.0
  outer loop
    vertex 4.637112304218929 3.4993195817628924 0.0
    vertex 4.3683957244208855 0.7419203812000406 0.0
    vertex 4.325545431968652 3.1765890427670613 0.0
  endloop
endfacet
facet normal -3.219787363600758e-35 1.8720488932876763e-32 -1.0
  outer loop
    vertex 4.325545431968652 3.1765890427670613 0.0
    vertex 4.3683957244208855 0.7419203812000406 0.0
    vertex 4.099427026356135 1.1894125366048018 0.0
  endloop
endfacet
facet normal -3.219787363600758e-35 1.8720488932876763e-32 -1.0
  outer loop
    vertex 4.325545431968652 3.1765890427670613 0.0
    vertex 4.099427026356135 1.1894125366048018 0.0
    vertex 4.0724902064262425 2.719909239717785 0.0
  endloop
endfacet
facet normal -3.219787363600758e-35 1.8720488932876763e-32 -1.0
  outer loop
    vertex 4.0724902064262425 2.719909239717785 0.0
    vertex 4.099427026356135 1.1894125366048018 0.0
    vertex 3.9554427067847935 1.6912709881676162 0.0
  endloop
endfacet
facet normal -3.219787363600758e-35 1.8720488932876763e-32 -1.0
  outer loop
    vertex 4.0724902064262425 2.719909239717785 0.0
    vertex 3.9554427067847935 1.6912709881676162 0.0
    vertex 3.946255059140248 2.2132949117747795 0.0
  endloop
endfacet
facet normal -3.219787363600758e-35 1.8720488932876763e-32 -1.0
  outer loop
    vertex 11.83607395867579 15.62258868692765 0.0
    vertex 11.766201306082642 18.98913969512105 0.0
    vertex 11.86686267405603 17.30722831204695 0.0
  endloop
endfacet
facet normal -3.219787363600758e-35 1.8720488932876763e-32 -1.0
  outer loop
    vertex 11.766201306082642 18.98913969512105 0.0
    vertex 11.83607395867579 15.62258868692765 0.0
    vertex 11.67402263404301 13.945478678698722 0.0
  endloop
endfacet
facet normal -3.219787363600758e-35 1.8720488932876763e-32 -1.0
  outer loop
    vertex 11.766201306082642 18.98913969512105 0.0
    vertex 11.67402263404301 13.945478678698722 0.0
    vertex 11.534702787098995 20.658081589623443 0.0
  endloop
endfacet
facet normal -3.219787363600758e-35 1.8720488932876763e-32 -1.0
  outer loop
    vertex 11.534702787098995 20.658081589623443 0.0
    vertex 11.67402263404301 13.945478678698722 0.0
    vertex 11.381695439163249 12.286110298063978 0.0
  endloop
endfacet
facet normal -3.219787363600758e-35 1.8720488932876763e-32 -1.0
  outer loop
    vertex 11.534702787098995 20.658081589623443 0.0
    vertex 11.381695439163249 12.286110298063978 0.0
    vertex 0.3321597870989762 20.65808142270133 0.0
  endloop
endfacet
facet normal -3.219787363600758e-35 1.8720488932876763e-32 -1.0
  outer loop
    vertex 0.3321597870989762 20.65808142270133 0.0
    vertex 11.381695439163249 12.286110298063978 0.0
    vertex 10.960872369641056 10.654587526027175 0.0
  endloop
endfacet
facet normal -3.219787363600758e-35 1.8720488932876763e-32 -1.0
  outer loop
    vertex 0.3321597870989762 20.65808142270133 0.0
    vertex 10.960872369641056 10.654587526027175 0.0
    vertex 10.41411583919371 9.06084479022266 0.0
  endloop
endfacet
facet normal -3.219787363600758e-35 1.8720488932876763e-32 -1.0
  outer loop
    vertex 0.3321597870989762 20.65808142270133 0.0
    vertex 10.41411583919371 9.06084479022266 0.0
    vertex 9.744755076979557 7.514586473664655 0.0
  endloop
endfacet
facet normal -3.219787363600758e-35 1.8720488932876763e-32 -1.0
  outer loop
    vertex 0.3321597870989762 20.65808142270133 0.0
    vertex 9.744755076979557 7.514586473664655 0.0
    vertex 8.95686585574748 6.0252278242510195 0.0
  endloop
endfacet
facet normal -3.219787363600758e-35 1.8720488932876763e-32 -1.0
  outer loop
    vertex 0.3321597870989762 20.65808142270133 0.0
    vertex 8.95686585574748 6.0252278242510195 0.0
    vertex 8.055245674243077 4.6018376248256185 0.0
  endloop
endfacet
facet normal -3.219787363600758e-35 1.8720488932876763e-32 -1.0
  outer loop
    vertex 0.3321597870989762 20.65808142270133 0.0
    vertex 8.055245674243077 4.6018376248256185 0.0
    vertex 7.226506260353171 3.4949862891817913 0.0
  endloop
endfacet
facet normal -3.219787363600758e-35 1.8720488932876763e-32 -1.0
  outer loop
    vertex 0.3321597870989762 20.65808142270133 0.0
    vertex 7.226506260353171 3.4949862891817913 0.0
    vertex 7.178687690264756 0.4221406652806293 0.0
  endloop
endfacet
facet normal -3.219787363600758e-35 1.8720488932876763e-32 -1.0
  outer loop
    vertex 0.3321597870989762 20.65808142270133 0.0
    vertex 7.178687690264756 0.4221406652806293 0.0
    vertex 6.731195534859994 0.1531719672158732 0.0
  endloop
endfacet
facet normal -3.219787363600758e-35 1.8720488932876763e-32 -1.0
  outer loop
    vertex 0.3321597870989762 20.65808142270133 0.0
    vertex 6.731195534859994 0.1531719672158732 0.0
    vertex 6.229337083297158 0.009187647644514584 0.0
  endloop
endfacet
facet normal -3.219787363600758e-35 1.8720488932876763e-32 -1.0
  outer loop
    vertex 0.3321597870989762 20.65808142270133 0.0
    vertex 6.229337083297158 0.009187647644514584 0.0
    vertex 5.707313159690008 0.0 0.0
  endloop
endfacet
facet normal -3.219787363600758e-35 1.8720488932876763e-32 -1.0
  outer loop
    vertex 0.3321597870989762 20.65808142270133 0.0
    vertex 5.707313159690008 0.0 0.0
    vertex 4.637112304218929 3.4993195817628924 0.0
  endloop
endfacet
facet normal -3.219787363600758e-35 1.8720488932876763e-32 -1.0
  outer loop
    vertex 4.637112304218929 3.4993195817628924 0.0
    vertex 5.707313159690008 0.0 0.0
    vertex 5.200698831746991 0.12623514728598628 0.0
  endloop
endfacet
facet normal -3.219787363600758e-35 1.8720488932876763e-32 -1.0
  outer loop
    vertex 4.637112304218929 3.4993195817628924 0.0
    vertex 5.200698831746991 0.12623514728598628 0.0
    vertex 4.744019028697708 0.3792903728283993 0.0
  endloop
endfacet
facet normal -3.219787363600758e-35 1.8720488932876763e-32 -1.0
  outer loop
    vertex 0.3321597870989762 20.65808142270133 0.0
    vertex 4.637112304218929 3.4993195817628924 0.0
    vertex 3.811617378443154 4.601837561593888 0.0
  endloop
endfacet
facet normal -3.219787363600758e-35 1.8720488932876763e-32 -1.0
  outer loop
    vertex 0.3321597870989762 20.65808142270133 0.0
    vertex 3.811617378443154 4.601837561593888 0.0
    vertex 2.909997154520559 6.025227734150422 0.0
  endloop
endfacet
facet normal -3.219787363600758e-35 1.8720488932876763e-32 -1.0
  outer loop
    vertex 0.3321597870989762 20.65808142270133 0.0
    vertex 2.909997154520559 6.025227734150422 0.0
    vertex 2.1221078889044893 7.514586360084303 0.0
  endloop
endfacet
facet normal -3.219787363600758e-35 1.8720488932876763e-32 -1.0
  outer loop
    vertex 0.3321597870989762 20.65808142270133 0.0
    vertex 2.1221078889044893 7.514586360084303 0.0
    vertex 1.4527470806107081 9.06084465669485 0.0
  endloop
endfacet
facet normal -3.219787363600758e-35 1.8720488932876763e-32 -1.0
  outer loop
    vertex 0.3321597870989762 20.65808142270133 0.0
    vertex 1.4527470806107081 9.06084465669485 0.0
    vertex 0.9059905026686124 10.654587376205662 0.0
  endloop
endfacet
facet normal -3.219787363600758e-35 1.8720488932876763e-32 -1.0
  outer loop
    vertex 0.3321597870989762 20.65808142270133 0.0
    vertex 0.9059905026686124 10.654587376205662 0.0
    vertex 0.48516738452582037 12.286110135701602 0.0
  endloop
endfacet
facet normal -3.219787363600758e-35 1.8720488932876763e-32 -1.0
  outer loop
    vertex 0.3321597870989762 20.65808142270133 0.0
    vertex 0.48516738452582037 12.286110135701602 0.0
    vertex 0.19284014019560078 13.945478507624848 0.0
  endloop
endfacet
facet normal -3.219787363600758e-35 1.8720488932876763e-32 -1.0
  outer loop
    vertex 0.3321597870989762 20.65808142270133 0.0
    vertex 0.19284014019560078 13.945478507624848 0.0
    vertex 0.10066131785107497 18.98913952130009 0.0
  endloop
endfacet
facet normal -3.219787363600758e-35 1.8720488932876763e-32 -1.0
  outer loop
    vertex 0.10066131785107497 18.98913952130009 0.0
    vertex 0.19284014019560078 13.945478507624848 0.0
    vertex 0.030788765583706 15.622588511024432 0.0
  endloop
endfacet
facet normal -3.219787363600758e-35 1.8720488932876763e-32 -1.0
  outer loop
    vertex 0.10066131785107497 18.98913952130009 0.0
    vertex 0.030788765583706 15.622588511024432 0.0
    vertex -4.229949723821846e-15 17.30722813522613 0.0
  endloop
endfacet
facet normal -1.490037704883306e-08 0.9999999999999999 -3.181404054762169e-33
  outer loop
    vertex 0.3321597870989762 20.65808142270133 2.6770904999999923
    vertex 11.534702787098995 20.658081589623443 0.0
    vertex 0.3321597870989762 20.65808142270133 0.0
  endloop
endfacet
facet normal -1.490037704883306e-08 0.9999999999999999 -3.181404054762169e-33
  outer loop
    vertex 11.534702787098995 20.658081589623443 0.0
    vertex 0.3321597870989762 20.65808142270133 2.6770904999999923
    vertex 11.534702787098995 20.658081589623443 2.6770904999999923
  endloop
endfacet
facet normal -0.99512283971885 0.09864346846037096 -3.480501028716284e-32
  outer loop
    vertex 0.10066131785107497 18.98913952130009 0.0
    vertex 0.3321597870989762 20.65808142270133 2.6770904999999923
    vertex 0.3321597870989762 20.65808142270133 0.0
  endloop
endfacet
facet normal -0.9905164395360432 0.1373942611932547 -3.476863331061199e-32
  outer loop
    vertex 0.3321597870989762 20.65808142270133 2.6770904999999923
    vertex 0.10066131785107497 18.98913952130009 0.0
    vertex 0.10066131785107497 18.98913952130009 2.6770904999999923
  endloop
endfacet
facet normal -0.9997846858667521 0.020750467616895633 -3.47187818741862e-32
  outer loop
    vertex -4.229949723821846e-15 17.30722813522613 0.0
    vertex 0.10066131785107497 18.98913952130009 2.6770904999999923
    vertex 0.10066131785107497 18.98913952130009 0.0
  endloop
endfacet
facet normal -0.99512283971885 0.09864346846037096 -3.480501028716284e-32
  outer loop
    vertex 0.10066131785107497 18.98913952130009 2.6770904999999923
    vertex -4.229949723821846e-15 17.30722813522613 0.0
    vertex -4.229949723821846e-15 17.30722813522613 2.6770904999999923
  endloop
endfacet
facet normal -0.9983587906837836 -0.05726888391101442 -3.4421148979463826e-32
  outer loop
    vertex 0.030788765583706 15.622588511024432 0.0
    vertex -4.229949723821846e-15 17.30722813522613 2.6770904999999923
    vertex -4.229949723821846e-15 17.30722813522613 0.0
  endloop
endfacet
facet normal -0.9997846858667521 0.020750467616895633 -3.47187818741862e-32
  outer loop
    vertex -4.229949723821846e-15 17.30722813522613 2.6770904999999923
    vertex 0.030788765583706 15.622588511024432 0.0
    vertex 0.030788765583706 15.622588511024432 2.6770904999999923
  endloop
endfacet
facet normal -0.9908538365204163 -0.1349395222044761 -3.3913923905284707e-32
  outer loop
    vertex 0.19284014019560078 13.945478507624848 0.0
    vertex 0.030788765583706 15.622588511024432 2.6770904999999923
    vertex 0.030788765583706 15.622588511024432 0.0
  endloop
endfacet
facet normal -0.9983587906837836 -0.05726888391101442 -3.4421148979463826e-32
  outer loop
    vertex 0.030788765583706 15.622588511024432 2.6770904999999923
    vertex 0.19284014019560078 13.945478507624848 0.0
    vertex 0.19284014019560078 13.945478507624848 2.6770904999999923
  endloop
endfacet
facet normal -0.9773155214357341 -0.21178850667776858 -3.320019517169892e-32
  outer loop
    vertex 0.48516738452582037 12.286110135701602 0.0
    vertex 0.19284014019560078 13.945478507624848 2.6770904999999923
    vertex 0.19284014019560078 13.945478507624848 0.0
  endloop
endfacet
facet normal -0.9908538365204163 -0.1349395222044761 -3.3913923905284707e-32
  outer loop
    vertex 0.19284014019560078 13.945478507624848 2.6770904999999923
    vertex 0.48516738452582037 12.286110135701602 0.0
    vertex 0.48516738452582037 12.286110135701602 2.6770904999999923
  endloop
endfacet
facet normal -0.9578262809395593 -0.2873478998383184 -3.2284308710357466e-32
  outer loop
    vertex 0.9059905026686124 10.654587376205662 0.0
    vertex 0.48516738452582037 12.286110135701602 2.6770904999999923
    vertex 0.48516738452582037 12.286110135701602 0.0
  endloop
endfacet
facet normal -0.9773155214357341 -0.21178850667776858 -3.320019517169892e-32
  outer loop
    vertex 0.48516738452582037 12.286110135701602 2.6770904999999923
    vertex 0.9059905026686124 10.654587376205662 0.0
    vertex 0.9059905026686124 10.654587376205662 2.6770904999999923
  endloop
endfacet
facet normal -0.9325047860383129 -0.36115761658262235 -3.117184140190671e-32
  outer loop
    vertex 1.4527470806107081 9.06084465669485 0.0
    vertex 0.9059905026686124 10.654587376205662 2.6770904999999923
    vertex 0.9059905026686124 10.654587376205662 0.0
  endloop
endfacet
facet normal -0.9578262809395593 -0.2873478998383184 -3.2284308710357466e-32
  outer loop
    vertex 0.9059905026686124 10.654587376205662 2.6770904999999923
    vertex 1.4527470806107081 9.06084465669485 0.0
    vertex 1.4527470806107081 9.06084465669485 2.6770904999999923
  endloop
endfacet
facet normal -0.9015052206410381 -0.4327682256785418 -2.9869567118069816e-32
  outer loop
    vertex 2.1221078889044893 7.514586360084303 0.0
    vertex 1.4527470806107081 9.06084465669485 2.6770904999999923
    vertex 1.4527470806107081 9.06084465669485 0.0
  endloop
endfacet
facet normal -0.9325047860383129 -0.36115761658262235 -3.117184140190671e-32
  outer loop
    vertex 1.4527470806107081 9.06084465669485 2.6770904999999923
    vertex 2.1221078889044893 7.514586360084303 0.0
    vertex 2.1221078889044893 7.514586360084303 2.6770904999999923
  endloop
endfacet
facet normal -0.865016342725505 -0.5017436863756153 -2.838541547518712e-32
  outer loop
    vertex 2.909997154520559 6.025227734150422 0.0
    vertex 2.1221078889044893 7.514586360084303 2.6770904999999923
    vertex 2.1221078889044893 7.514586360084303 0.0
  endloop
endfacet
facet normal -0.9015052206410381 -0.4327682256785418 -2.9869567118069816e-32
  outer loop
    vertex 2.1221078889044893 7.514586360084303 2.6770904999999923
    vertex 2.909997154520559 6.025227734150422 0.0
    vertex 2.909997154520559 6.025227734150422 2.6770904999999923
  endloop
endfacet
facet normal -0.8232603349809886 -0.5676640034800431 -1.223880444461776e-16
  outer loop
    vertex 3.811617378443154 4.601837561593888 0.0
    vertex 2.909997154520559 6.025227734150422 2.6770904999999923
    vertex 2.909997154520559 6.025227734150422 0.0
  endloop
endfacet
facet normal -0.865016342725505 -0.5017436863756153 -2.838541547518712e-32
  outer loop
    vertex 2.909997154520559 6.025227734150422 2.6770904999999923
    vertex 3.811617378443154 4.601837561593888 0.0
    vertex 3.811617378443154 4.601837561593888 2.6770904999999923
  endloop
endfacet
facet normal -0.8004854001917507 -0.5993522537538778 -2.4458971113271216e-16
  outer loop
    vertex 4.637112304218929 3.4993195817628924 0.0
    vertex 3.811617378443154 4.601837561593888 2.6770904999999923
    vertex 3.811617378443154 4.601837561593888 0.0
  endloop
endfacet
facet normal -0.8232603349809886 -0.5676640034800431 -1.223880444461776e-16
  outer loop
    vertex 3.811617378443154 4.601837561593888 2.6770904999999923
    vertex 4.637112304218929 3.4993195817628924 0.0
    vertex 4.637112304218929 3.4993195817628924 0.40000000000000013
  endloop
endfacet
facet normal -0.8232603349809886 -0.5676640034800431 -1.223880444461776e-16
  outer loop
    vertex 3.811617378443154 4.601837561593888 2.6770904999999923
    vertex 4.637112304218929 3.4993195817628924 0.40000000000000013
    vertex 4.821478547892855 3.2530829397467067 2.6770904999999923
  endloop
endfacet
facet normal -0.7764914519262495 -0.6301277847274035 -1.2238804444617745e-16
  outer loop
    vertex 4.821478547892855 3.2530829397467067 2.6770904999999923
    vertex 4.637112304218929 3.4993195817628924 0.40000000000000013
    vertex 4.821478547892855 3.2530829397467067 0.40000000000000013
  endloop
endfacet
facet normal -0.751315029197277 -0.6599437301030253 0.0
  outer loop
    vertex 5.933431565302523 1.9871765061622648 0.40000000000000013
    vertex 4.821478547892855 3.2530829397467067 2.6770904999999923
    vertex 4.821478547892855 3.2530829397467067 0.40000000000000013
  endloop
endfacet
facet normal -0.7764914519262495 -0.6301277847274035 -1.2238804444617745e-16
  outer loop
    vertex 4.821478547892855 3.2530829397467067 2.6770904999999923
    vertex 5.933431565302523 1.9871765061622648 0.40000000000000013
    vertex 5.933431565302523 1.9871765061622648 2.6770904999999923
  endloop
endfacet
facet normal 0.751315048864084 -0.6599437077132861 6.300367612562683e-18
  outer loop
    vertex 5.933431565302523 1.9871765061622648 2.6770904999999923
    vertex 7.045384544987244 3.2530829728837323 0.40000000000000013
    vertex 7.045384544987244 3.2530829728837323 2.6770904999999923
  endloop
endfacet
facet normal 0.7764914707045346 -0.6301277615873697 1.254621435755107e-16
  outer loop
    vertex 7.045384544987244 3.2530829728837323 0.40000000000000013
    vertex 5.933431565302523 1.9871765061622648 2.6770904999999923
    vertex 5.933431565302523 1.9871765061622648 0.40000000000000013
  endloop
endfacet
facet normal 0.7764914707045346 -0.6301277615873697 1.254621435755107e-16
  outer loop
    vertex 7.045384544987244 3.2530829728837323 2.6770904999999923
    vertex 8.055245674243077 4.6018376248256185 0.0
    vertex 8.055245674243077 4.6018376248256185 2.6770904999999923
  endloop
endfacet
facet normal 0.8232603518978122 -0.5676639789462516 1.2230955932402017e-16
  outer loop
    vertex 8.055245674243077 4.6018376248256185 0.0
    vertex 7.045384544987244 3.2530829728837323 2.6770904999999923
    vertex 7.226506260353171 3.4949862891817913 0.40000000000000013
  endloop
endfacet
facet normal 0.8004854180529162 -0.5993522298987868 2.444328604089054e-16
  outer loop
    vertex 7.226506260353171 3.4949862891817913 0.40000000000000013
    vertex 7.045384544987244 3.2530829728837323 2.6770904999999923
    vertex 7.045384544987244 3.2530829728837323 0.40000000000000013
  endloop
endfacet
facet normal 0.8004854180529162 -0.5993522298987868 2.444328604089054e-16
  outer loop
    vertex 7.226506260353171 3.4949862891817913 0.0
    vertex 8.055245674243077 4.6018376248256185 0.0
    vertex 7.226506260353171 3.4949862891817913 0.40000000000000013
  endloop
endfacet
facet normal 0.8232603518978122 -0.5676639789462516 1.2230955932402017e-16
  outer loop
    vertex 8.055245674243077 4.6018376248256185 2.6770904999999923
    vertex 8.95686585574748 6.0252278242510195 0.0
    vertex 8.95686585574748 6.0252278242510195 2.6770904999999923
  endloop
endfacet
facet normal 0.8650163576778453 -0.5017436605974748 3.157791418974992e-32
  outer loop
    vertex 8.95686585574748 6.0252278242510195 0.0
    vertex 8.055245674243077 4.6018376248256185 2.6770904999999923
    vertex 8.055245674243077 4.6018376248256185 0.0
  endloop
endfacet
facet normal 0.8650163576778453 -0.5017436605974748 3.157791418974992e-32
  outer loop
    vertex 8.95686585574748 6.0252278242510195 2.6770904999999923
    vertex 9.744755076979557 7.514586473664655 0.0
    vertex 9.744755076979557 7.514586473664655 2.6770904999999923
  endloop
endfacet
facet normal 0.9015052335378577 -0.43276819881300493 3.262318820849164e-32
  outer loop
    vertex 9.744755076979557 7.514586473664655 0.0
    vertex 8.95686585574748 6.0252278242510195 2.6770904999999923
    vertex 8.95686585574748 6.0252278242510195 0.0
  endloop
endfacet
facet normal 0.9015052335378577 -0.43276819881300493 3.262318820849164e-32
  outer loop
    vertex 9.744755076979557 7.514586473664655 2.6770904999999923
    vertex 10.41411583919371 9.06084479022266 0.0
    vertex 10.41411583919371 9.06084479022266 2.6770904999999923
  endloop
endfacet
facet normal 0.9325047968010813 -0.3611575887932773 3.3469817925106017e-32
  outer loop
    vertex 10.41411583919371 9.06084479022266 0.0
    vertex 9.744755076979557 7.514586473664655 2.6770904999999923
    vertex 9.744755076979557 7.514586473664655 0.0
  endloop
endfacet
facet normal 0.9325047968010813 -0.3611575887932773 3.3469817925106017e-32
  outer loop
    vertex 10.41411583919371 9.06084479022266 2.6770904999999923
    vertex 10.960872369641056 10.654587526027175 0.0
    vertex 10.960872369641056 10.654587526027175 2.6770904999999923
  endloop
endfacet
facet normal 0.957826289502743 -0.2873478712943732 3.411264816689376e-32
  outer loop
    vertex 10.960872369641056 10.654587526027175 0.0
    vertex 10.41411583919371 9.06084479022266 2.6770904999999923
    vertex 10.41411583919371 9.06084479022266 0.0
  endloop
endfacet
facet normal 0.957826289502743 -0.2873478712943732 3.411264816689376e-32
  outer loop
    vertex 10.960872369641056 10.654587526027175 2.6770904999999923
    vertex 11.381695439163249 12.286110298063978 0.0
    vertex 11.381695439163249 12.286110298063978 2.6770904999999923
  endloop
endfacet
facet normal 0.977315527747191 -0.21178847755302802 3.454776470683475e-32
  outer loop
    vertex 11.381695439163249 12.286110298063978 0.0
    vertex 10.960872369641056 10.654587526027175 2.6770904999999923
    vertex 10.960872369641056 10.654587526027175 0.0
  endloop
endfacet
facet normal 0.977315527747191 -0.21178847755302802 3.454776470683475e-32
  outer loop
    vertex 11.381695439163249 12.286110298063978 2.6770904999999923
    vertex 11.67402263404301 13.945478678698722 0.0
    vertex 11.67402263404301 13.945478678698722 2.6770904999999923
  endloop
endfacet
facet normal 0.9908538405417154 -0.13493949267628377 3.4772518097521595e-32
  outer loop
    vertex 11.67402263404301 13.945478678698722 0.0
    vertex 11.381695439163249 12.286110298063978 2.6770904999999923
    vertex 11.381695439163249 12.286110298063978 0.0
  endloop
endfacet
facet normal 0.9908538405417154 -0.13493949267628377 3.4772518097521595e-32
  outer loop
    vertex 11.67402263404301 13.945478678698722 2.6770904999999923
    vertex 11.83607395867579 15.62258868692765 0.0
    vertex 11.83607395867579 15.62258868692765 2.6770904999999923
  endloop
endfacet
facet normal 0.9983587923904392 -0.05726885415916819 3.4785539803783604e-32
  outer loop
    vertex 11.83607395867579 15.62258868692765 0.0
    vertex 11.67402263404301 13.945478678698722 2.6770904999999923
    vertex 11.67402263404301 13.945478678698722 0.0
  endloop
endfacet
facet normal 0.9983587923904392 -0.05726885415916819 3.4785539803783604e-32
  outer loop
    vertex 11.83607395867579 15.62258868692765 2.6770904999999923
    vertex 11.86686267405603 17.30722831204695 0.0
    vertex 11.86686267405603 17.30722831204695 2.6770904999999923
  endloop
endfacet
facet normal 0.9997846852483722 0.020750497411231864 3.458675053576917e-32
  outer loop
    vertex 11.86686267405603 17.30722831204695 0.0
    vertex 11.83607395867579 15.62258868692765 2.6770904999999923
    vertex 11.83607395867579 15.62258868692765 0.0
  endloop
endfacet
facet normal 0.9997846852483722 0.020750497411231864 3.458675053576917e-32
  outer loop
    vertex 11.86686267405603 17.30722831204695 2.6770904999999923
    vertex 11.766201306082642 18.98913969512105 0.0
    vertex 11.766201306082642 18.98913969512105 2.6770904999999923
  endloop
endfacet
facet normal 0.9951228367791997 0.09864349811578192 3.4177360731745717e-32
  outer loop
    vertex 11.766201306082642 18.98913969512105 0.0
    vertex 11.86686267405603 17.30722831204695 2.6770904999999923
    vertex 11.86686267405603 17.30722831204695 0.0
  endloop
endfacet
facet normal 0.9951228367791997 0.09864349811578192 3.4177360731745717e-32
  outer loop
    vertex 11.766201306082642 18.98913969512105 2.6770904999999923
    vertex 11.534702787098995 20.658081589623443 0.0
    vertex 11.534702787098995 20.658081589623443 2.6770904999999923
  endloop
endfacet
facet normal 0.9905164354415897 0.13739429071139414 3.389441989738025e-32
  outer loop
    vertex 11.534702787098995 20.658081589623443 0.0
    vertex 11.766201306082642 18.98913969512105 2.6770904999999923
    vertex 11.766201306082642 18.98913969512105 0.0
  endloop
endfacet
facet normal 0.0 0.0 1.0
  outer loop
    vertex 6.914400516807774 16.334982114565314 2.6770905000000034
    vertex 6.914400633051067 8.533617266198366 2.6770905000000034
    vertex 6.914400487007057 18.33498211456527 2.677090499999994
  endloop
endfacet
facet normal 0.0 0.0 1.0
  outer loop
    vertex 6.914400633051067 8.533617266198366 2.6770905000000034
    vertex 6.914400516807774 16.334982114565314 2.6770905000000034
    vertex 4.952462302465136 8.533617236964691 2.6770905000000034
  endloop
endfacet
facet normal 0.0 0.0 1.0
  outer loop
    vertex 4.952462302465136 8.533617236964691 2.6770905000000034
    vertex 6.914400516807774 16.334982114565314 2.6770905000000034
    vertex 4.95246218622184 16.33498208533164 2.6770905000000034
  endloop
endfacet
facet normal 0.0 0.0 1.0
  outer loop
    vertex 4.952462302465136 8.533617236964691 2.6770905000000034
    vertex 4.95246218622184 16.33498208533164 2.6770905000000034
    vertex 4.952462332265881 6.533617236964704 2.6770905000000034
  endloop
endfacet
facet normal 0.0 0.0 1.0
  outer loop
    vertex 11.766201306082642 18.98913969512105 2.6770904999999923
    vertex 11.83607395867579 15.62258868692765 2.6770904999999923
    vertex 11.86686267405603 17.30722831204695 2.6770904999999923
  endloop
endfacet
facet normal 0.0 0.0 1.0
  outer loop
    vertex 11.83607395867579 15.62258868692765 2.6770904999999923
    vertex 11.766201306082642 18.98913969512105 2.6770904999999923
    vertex 11.67402263404301 13.945478678698722 2.6770904999999923
  endloop
endfacet
facet normal 0.0 0.0 1.0
  outer loop
    vertex 11.67402263404301 13.945478678698722 2.6770904999999923
    vertex 11.766201306082642 18.98913969512105 2.6770904999999923
    vertex 11.534702787098995 20.658081589623443 2.6770904999999923
  endloop
endfacet
facet normal 0.0 0.0 1.0
  outer loop
    vertex 11.67402263404301 13.945478678698722 2.6770904999999923
    vertex 11.534702787098995 20.658081589623443 2.6770904999999923
    vertex 11.381695439163249 12.286110298063978 2.6770904999999923
  endloop
endfacet
facet normal 0.0 0.0 1.0
  outer loop
    vertex 11.381695439163249 12.286110298063978 2.6770904999999923
    vertex 11.534702787098995 20.658081589623443 2.6770904999999923
    vertex 6.914400487007057 18.33498211456527 2.677090499999994
  endloop
endfacet
facet normal 0.0 0.0 1.0
  outer loop
    vertex 6.914400487007057 18.33498211456527 2.677090499999994
    vertex 11.534702787098995 20.658081589623443 2.6770904999999923
    vertex 0.3321597870989762 20.65808142270133 2.6770904999999923
  endloop
endfacet
facet normal 0.0 0.0 1.0
  outer loop
    vertex 11.381695439163249 12.286110298063978 2.6770904999999923
    vertex 6.914400487007057 18.33498211456527 2.677090499999994
    vertex 10.960872369641056 10.654587526027175 2.6770904999999923
  endloop
endfacet
facet normal 0.0 0.0 1.0
  outer loop
    vertex 10.960872369641056 10.654587526027175 2.6770904999999923
    vertex 6.914400487007057 18.33498211456527 2.677090499999994
    vertex 10.41411583919371 9.06084479022266 2.6770904999999923
  endloop
endfacet
facet normal 0.0 0.0 1.0
  outer loop
    vertex 10.41411583919371 9.06084479022266 2.6770904999999923
    vertex 6.914400487007057 18.33498211456527 2.677090499999994
    vertex 9.744755076979557 7.514586473664655 2.6770904999999923
  endloop
endfacet
facet normal 0.0 0.0 1.0
  outer loop
    vertex 9.744755076979557 7.514586473664655 2.6770904999999923
    vertex 6.914400487007057 18.33498211456527 2.677090499999994
    vertex 8.95686585574748 6.0252278242510195 2.6770904999999923
  endloop
endfacet
facet normal 0.0 0.0 1.0
  outer loop
    vertex 8.95686585574748 6.0252278242510195 2.6770904999999923
    vertex 6.914400487007057 18.33498211456527 2.677090499999994
    vertex 8.055245674243077 4.6018376248256185 2.6770904999999923
  endloop
endfacet
facet normal 0.0 0.0 1.0
  outer loop
    vertex 8.055245674243077 4.6018376248256185 2.6770904999999923
    vertex 6.914400487007057 18.33498211456527 2.677090499999994
    vertex 7.045384544987244 3.2530829728837323 2.6770904999999923
  endloop
endfacet
facet normal 0.0 0.0 1.0
  outer loop
    vertex 6.914400487007057 18.33498211456527 2.677090499999994
    vertex 0.3321597870989762 20.65808142270133 2.6770904999999923
    vertex 4.952462156421086 18.33498208533163 2.6770905000000034
  endloop
endfacet
facet normal 0.0 0.0 1.0
  outer loop
    vertex 4.952462156421086 18.33498208533163 2.6770905000000034
    vertex 0.3321597870989762 20.65808142270133 2.6770904999999923
    vertex 4.95246218622184 16.33498208533164 2.6770905000000034
  endloop
endfacet
facet normal 0.0 0.0 1.0
  outer loop
    vertex 4.95246218622184 16.33498208533164 2.6770905000000034
    vertex 0.3321597870989762 20.65808142270133 2.6770904999999923
    vertex 4.821478547892855 3.2530829397467067 2.6770904999999923
  endloop
endfacet
facet normal 0.0 0.0 1.0
  outer loop
    vertex 4.821478547892855 3.2530829397467067 2.6770904999999923
    vertex 0.3321597870989762 20.65808142270133 2.6770904999999923
    vertex 3.811617378443154 4.601837561593888 2.6770904999999923
  endloop
endfacet
facet normal 0.0 0.0 1.0
  outer loop
    vertex 3.811617378443154 4.601837561593888 2.6770904999999923
    vertex 0.3321597870989762 20.65808142270133 2.6770904999999923
    vertex 2.909997154520559 6.025227734150422 2.6770904999999923
  endloop
endfacet
facet normal 0.0 0.0 1.0
  outer loop
    vertex 2.909997154520559 6.025227734150422 2.6770904999999923
    vertex 0.3321597870989762 20.65808142270133 2.6770904999999923
    vertex 2.1221078889044893 7.514586360084303 2.6770904999999923
  endloop
endfacet
facet normal 0.0 0.0 1.0
  outer loop
    vertex 2.1221078889044893 7.514586360084303 2.6770904999999923
    vertex 0.3321597870989762 20.65808142270133 2.6770904999999923
    vertex 1.4527470806107081 9.06084465669485 2.6770904999999923
  endloop
endfacet
facet normal 0.0 0.0 1.0
  outer loop
    vertex 1.4527470806107081 9.06084465669485 2.6770904999999923
    vertex 0.3321597870989762 20.65808142270133 2.6770904999999923
    vertex 0.9059905026686124 10.654587376205662 2.6770904999999923
  endloop
endfacet
facet normal 0.0 0.0 1.0
  outer loop
    vertex 0.9059905026686124 10.654587376205662 2.6770904999999923
    vertex 0.3321597870989762 20.65808142270133 2.6770904999999923
    vertex 0.48516738452582037 12.286110135701602 2.6770904999999923
  endloop
endfacet
facet normal 0.0 0.0 1.0
  outer loop
    vertex 0.48516738452582037 12.286110135701602 2.6770904999999923
    vertex 0.3321597870989762 20.65808142270133 2.6770904999999923
    vertex 0.19284014019560078 13.945478507624848 2.6770904999999923
  endloop
endfacet
facet normal 0.0 0.0 1.0
  outer loop
    vertex 0.19284014019560078 13.945478507624848 2.6770904999999923
    vertex 0.3321597870989762 20.65808142270133 2.6770904999999923
    vertex 0.10066131785107497 18.98913952130009 2.6770904999999923
  endloop
endfacet
facet normal 0.0 0.0 1.0
  outer loop
    vertex 0.19284014019560078 13.945478507624848 2.6770904999999923
    vertex 0.10066131785107497 18.98913952130009 2.6770904999999923
    vertex 0.030788765583706 15.622588511024432 2.6770904999999923
  endloop
endfacet
facet normal 0.0 0.0 1.0
  outer loop
    vertex 0.030788765583706 15.622588511024432 2.6770904999999923
    vertex 0.10066131785107497 18.98913952130009 2.6770904999999923
    vertex -4.229949723821846e-15 17.30722813522613 2.6770904999999923
  endloop
endfacet
facet normal 0.0 0.0 1.0
  outer loop
    vertex 7.045384544987244 3.2530829728837323 2.6770904999999923
    vertex 6.914400662851813 6.533617266198318 2.6770905000000043
    vertex 5.933431565302523 1.9871765061622648 2.6770904999999923
  endloop
endfacet
facet normal 0.0 0.0 1.0
  outer loop
    vertex 6.914400662851813 6.533617266198318 2.6770905000000043
    vertex 7.045384544987244 3.2530829728837323 2.6770904999999923
    vertex 6.914400633051067 8.533617266198366 2.6770905000000034
  endloop
endfacet
facet normal 0.0 0.0 1.0
  outer loop
    vertex 6.914400633051067 8.533617266198366 2.6770905000000034
    vertex 7.045384544987244 3.2530829728837323 2.6770904999999923
    vertex 6.914400487007057 18.33498211456527 2.677090499999994
  endloop
endfacet
facet normal 0.0 0.0 1.0
  outer loop
    vertex 5.933431565302523 1.9871765061622648 2.6770904999999923
    vertex 6.914400662851813 6.533617266198318 2.6770905000000043
    vertex 4.952462332265881 6.533617236964704 2.6770905000000034
  endloop
endfacet
facet normal 0.0 0.0 1.0
  outer loop
    vertex 5.933431565302523 1.9871765061622648 2.6770904999999923
    vertex 4.952462332265881 6.533617236964704 2.6770905000000034
    vertex 4.821478547892855 3.2530829397467067 2.6770904999999923
  endloop
endfacet
facet normal 0.0 0.0 1.0
  outer loop
    vertex 4.821478547892855 3.2530829397467067 2.6770904999999923
    vertex 4.952462332265881 6.533617236964704 2.6770905000000034
    vertex 4.95246218622184 16.33498208533164 2.6770905000000034
  endloop
endfacet
facet normal 1.4900402328071031e-08 -0.9999999999999999 6.536316232798786e-15
  outer loop
    vertex 6.914400662851813 6.533617266198318 2.6770905000000043
    vertex 4.9524623322658625 6.533617236964704 9.579979239433564
    vertex 4.952462332265881 6.533617236964704 2.6770905000000034
  endloop
endfacet
facet normal 1.4900402328071031e-08 -0.9999999999999999 6.536316232798786e-15
  outer loop
    vertex 4.9524623322658625 6.533617236964704 9.579979239433564
    vertex 6.914400662851813 6.533617266198318 2.6770905000000043
    vertex 6.914400662851813 6.533617266198409 9.579979239433564
  endloop
endfacet
facet normal 0.9999999999999999 1.4900327846913538e-08 8.918460988151446e-15
  outer loop
    vertex 6.914400516807783 16.334982114565314 12.079979239433571
    vertex 6.914400487007057 18.33498211456527 2.677090499999994
    vertex 6.914400487007028 18.334982114565328 9.579979239433564
  endloop
endfacet
facet normal 0.9999999999999999 1.4900327846913538e-08 8.918460988151446e-15
  outer loop
    vertex 6.914400487007057 18.33498211456527 2.677090499999994
    vertex 6.914400516807783 16.334982114565314 12.079979239433571
    vertex 6.914400516807774 16.334982114565314 2.6770905000000034
  endloop
endfacet
facet normal 0.9999999999999999 1.4900327846913538e-08 8.918460988151446e-15
  outer loop
    vertex 6.914400516807774 16.334982114565314 2.6770905000000034
    vertex 6.914400516807783 16.334982114565314 12.079979239433571
    vertex 6.9144005168073175 16.334982114565257 9.981952630525882
  endloop
endfacet
facet normal -1.4900390829375331e-08 0.9999999999999999 -3.268158116398566e-15
  outer loop
    vertex 4.952462156421086 18.33498208533163 2.6770905000000034
    vertex 6.914400487007028 18.334982114565328 9.579979239433564
    vertex 6.914400487007057 18.33498211456527 2.677090499999994
  endloop
endfacet
facet normal -1.4900390829375331e-08 0.9999999999999999 -3.268158116398566e-15
  outer loop
    vertex 6.914400487007028 18.334982114565328 9.579979239433564
    vertex 4.952462156421086 18.33498208533163 2.6770905000000034
    vertex 4.952462156421076 18.33498208533163 9.579979239433564
  endloop
endfacet
facet normal -1.4900409060622738e-08 0.9999999999999999 1.728848566245729e-15
  outer loop
    vertex 4.952462302465118 8.533617236964671 9.981952630525917
    vertex 6.914400633051067 8.533617266198366 2.6770905000000034
    vertex 4.952462302465136 8.533617236964691 2.6770905000000034
  endloop
endfacet
facet normal -1.4900409060622738e-08 0.9999999999999999 1.728848566245729e-15
  outer loop
    vertex 6.914400633051067 8.533617266198366 2.6770905000000034
    vertex 4.952462302465118 8.533617236964671 9.981952630525917
    vertex 5.19294688511161 8.533617240547962 9.797422320068405
  endloop
endfacet
facet normal -1.4900409060622738e-08 0.9999999999999999 1.728848566245729e-15
  outer loop
    vertex 6.914400633051067 8.533617266198366 2.6770905000000034
    vertex 5.19294688511161 8.533617240547962 9.797422320068405
    vertex 5.550128442570691 8.533617245870138 9.649472874739304
  endloop
endfacet
facet normal -1.4900409060622738e-08 0.9999999999999999 1.728848566245729e-15
  outer loop
    vertex 6.914400633051067 8.533617266198366 2.6770905000000034
    vertex 5.550128442570691 8.533617245870138 9.649472874739304
    vertex 5.933431467758106 8.533617251581516 9.59901007414058
  endloop
endfacet
facet normal -1.4900409060622738e-08 0.9999999999999999 1.728848566245729e-15
  outer loop
    vertex 6.914400633051067 8.533617266198366 2.6770905000000034
    vertex 6.7175070624413005 8.533617263264595 9.83087088003748
    vertex 6.91440063305105 8.533617266198366 9.981952630525917
  endloop
endfacet
facet normal -1.4900409060622738e-08 0.9999999999999999 1.728848566245729e-15
  outer loop
    vertex 6.7175070624413005 8.533617263264595 9.83087088003748
    vertex 6.914400633051067 8.533617266198366 2.6770905000000034
    vertex 6.673916050404604 8.533617262615037 9.797422320068405
  endloop
endfacet
facet normal -1.4900409060622738e-08 0.9999999999999999 1.728848566245729e-15
  outer loop
    vertex 6.673916050404604 8.533617262615037 9.797422320068405
    vertex 6.914400633051067 8.533617266198366 2.6770905000000034
    vertex 6.316734492945523 8.533617257292898 9.649472874739304
  endloop
endfacet
facet normal -1.4900409060622738e-08 0.9999999999999999 1.728848566245729e-15
  outer loop
    vertex 6.316734492945523 8.533617257292898 9.649472874739304
    vertex 6.914400633051067 8.533617266198366 2.6770905000000034
    vertex 5.933431467758106 8.533617251581516 9.59901007414058
  endloop
endfacet
facet normal 1.4900383860473442e-08 -0.9999999999999999 -5.593643858496932e-15
  outer loop
    vertex 6.9144005168073175 16.334982114565257 9.981952630525882
    vertex 4.95246218622184 16.33498208533164 2.6770905000000034
    vertex 6.914400516807774 16.334982114565314 2.6770905000000034
  endloop
endfacet
facet normal 1.4900383860473442e-08 -0.9999999999999999 -5.593643858496932e-15
  outer loop
    vertex 4.95246218622184 16.33498208533164 2.6770905000000034
    vertex 6.9144005168073175 16.334982114565257 9.981952630525882
    vertex 6.673915934160809 16.33498211098191 9.79742232006837
  endloop
endfacet
facet normal 1.4900383860473442e-08 -0.9999999999999999 -5.593643858496932e-15
  outer loop
    vertex 4.95246218622184 16.33498208533164 2.6770905000000034
    vertex 6.673915934160809 16.33498211098191 9.79742232006837
    vertex 6.316734376701724 16.334982105659794 9.649472874739269
  endloop
endfacet
facet normal 1.4900383860473442e-08 -0.9999999999999999 -5.593643858496932e-15
  outer loop
    vertex 4.95246218622184 16.33498208533164 2.6770905000000034
    vertex 6.316734376701724 16.334982105659794 9.649472874739269
    vertex 5.933431351514319 16.334982099948412 9.59901007414054
  endloop
endfacet
facet normal 1.4900383860473442e-08 -0.9999999999999999 -5.593643858496932e-15
  outer loop
    vertex 4.95246218622184 16.33498208533164 2.6770905000000034
    vertex 5.19294676886813 16.33498208891493 9.797422320068508
    vertex 4.95246218622162 16.33498208533164 9.98195263052602
  endloop
endfacet
facet normal 1.4900383860473442e-08 -0.9999999999999999 -5.593643858496932e-15
  outer loop
    vertex 5.19294676886813 16.33498208891493 9.797422320068508
    vertex 4.95246218622184 16.33498208533164 2.6770905000000034
    vertex 5.550128326327206 16.334982094237052 9.649472874739413
  endloop
endfacet
facet normal 1.4900383860473442e-08 -0.9999999999999999 -5.593643858496932e-15
  outer loop
    vertex 5.550128326327206 16.334982094237052 9.649472874739413
    vertex 4.95246218622184 16.33498208533164 2.6770905000000034
    vertex 5.933431351514319 16.334982099948412 9.59901007414054
  endloop
endfacet
facet normal -0.9999999999999999 -1.4900355213784808e-08 -3.34961382650266e-15
  outer loop
    vertex 4.95246218622184 16.33498208533164 2.6770905000000034
    vertex 4.952462156421076 18.33498208533163 9.579979239433564
    vertex 4.952462156421086 18.33498208533163 2.6770905000000034
  endloop
endfacet
facet normal -0.9999999999999999 -1.4900355213784808e-08 -3.34961382650266e-15
  outer loop
    vertex 4.952462156421076 18.33498208533163 9.579979239433564
    vertex 4.95246218622184 16.33498208533164 2.6770905000000034
    vertex 4.952462186221848 16.33498208533164 12.079979239433571
  endloop
endfacet
facet normal -0.9999999999999999 -1.4900355213784808e-08 -3.34961382650266e-15
  outer loop
    vertex 4.952462186221848 16.33498208533164 12.079979239433571
    vertex 4.95246218622184 16.33498208533164 2.6770905000000034
    vertex 4.95246218622162 16.33498208533164 9.98195263052602
  endloop
endfacet
facet normal -1.1635259409689512e-08 0.7808688094430304 0.6246950475544241
  outer loop
    vertex 4.952462186221848 16.33498208533164 12.079979239433571
    vertex 6.914400487007028 18.334982114565328 9.579979239433564
    vertex 4.952462156421076 18.33498208533163 9.579979239433564
  endloop
endfacet
facet normal -1.1635259409689512e-08 0.7808688094430304 0.6246950475544241
  outer loop
    vertex 6.914400487007028 18.334982114565328 9.579979239433564
    vertex 4.952462186221848 16.33498208533164 12.079979239433571
    vertex 6.914400516807783 16.334982114565314 12.079979239433571
  endloop
endfacet
facet normal 1.1635277351636343e-08 -0.7808688094430303 0.6246950475544242
  outer loop
    vertex 6.914400633051042 8.53361726619844 12.07997923943357
    vertex 4.9524623322658625 6.533617236964704 9.579979239433564
    vertex 6.914400662851813 6.533617266198409 9.579979239433564
  endloop
endfacet
facet normal 1.1635277351636343e-08 -0.7808688094430303 0.6246950475544242
  outer loop
    vertex 4.9524623322658625 6.533617236964704 9.579979239433564
    vertex 6.914400633051042 8.53361726619844 12.07997923943357
    vertex 4.9524623024651 8.533617236964691 12.07997923943357
  endloop
endfacet
facet normal -0.9999999999999999 -1.4900375625487258e-08 -1.2790999173769172e-15
  outer loop
    vertex 4.952462332265881 6.533617236964704 2.6770905000000034
    vertex 4.952462302465118 8.533617236964671 9.981952630525917
    vertex 4.952462302465136 8.533617236964691 2.6770905000000034
  endloop
endfacet
facet normal -0.9999999999999999 -1.4900375625487258e-08 -1.2790999173769172e-15
  outer loop
    vertex 4.952462302465118 8.533617236964671 9.981952630525917
    vertex 4.9524623322658625 6.533617236964704 9.579979239433564
    vertex 4.9524623024651 8.533617236964691 12.07997923943357
  endloop
endfacet
facet normal -0.9999999999999999 -1.4900375625487258e-08 -1.2790999173769172e-15
  outer loop
    vertex 4.9524623322658625 6.533617236964704 9.579979239433564
    vertex 4.952462302465118 8.533617236964671 9.981952630525917
    vertex 4.952462332265881 6.533617236964704 2.6770905000000034
  endloop
endfacet
facet normal 0.9999999999999999 1.4900373739838368e-08 1.091987872907355e-15
  outer loop
    vertex 6.914400662851813 6.533617266198409 9.579979239433564
    vertex 6.91440063305105 8.533617266198366 9.981952630525917
    vertex 6.914400633051042 8.53361726619844 12.07997923943357
  endloop
endfacet
facet normal 0.9999999999999999 1.4900373739838368e-08 1.091987872907355e-15
  outer loop
    vertex 6.91440063305105 8.533617266198366 9.981952630525917
    vertex 6.914400662851813 6.533617266198409 9.579979239433564
    vertex 6.914400633051067 8.533617266198366 2.6770905000000034
  endloop
endfacet
facet normal 0.9999999999999999 1.4900373739838368e-08 1.091987872907355e-15
  outer loop
    vertex 6.914400633051067 8.533617266198366 2.6770905000000034
    vertex 6.914400662851813 6.533617266198409 9.579979239433564
    vertex 6.914400662851813 6.533617266198318 2.6770905000000043
  endloop
endfacet
facet normal -1.4900404568374396e-08 0.9999999999999999 -6.909057676999358e-15
  outer loop
    vertex 4.886228012007748 16.33498208434469 10.03277589992682
    vertex 4.952462186221848 16.33498208533164 12.079979239433571
    vertex 4.95246218622162 16.33498208533164 9.98195263052602
  endloop
endfacet
facet normal -1.4900404568374396e-08 0.9999999999999999 -6.909057676999358e-15
  outer loop
    vertex 4.952462186221848 16.33498208533164 12.079979239433571
    vertex 4.886228012007748 16.33498208434469 10.03277589992682
    vertex 4.650874432149462 16.33498208083785 10.339494656787185
  endloop
endfacet
facet normal -1.4900404568374396e-08 0.9999999999999999 -6.909057676999358e-15
  outer loop
    vertex 4.952462186221848 16.33498208533164 12.079979239433571
    vertex 4.650874432149462 16.33498208083785 10.339494656787185
    vertex 4.50292498682036 16.334982078633367 10.696676214246269
  endloop
endfacet
facet normal -1.4900404568374396e-08 0.9999999999999999 -6.909057676999358e-15
  outer loop
    vertex 4.952462186221848 16.33498208533164 12.079979239433571
    vertex 4.50292498682036 16.334982078633367 10.696676214246269
    vertex 4.452462186221321 16.334982077881396 11.07997923943346
  endloop
endfacet
facet normal -1.4900404568374396e-08 0.9999999999999999 -6.909057676999358e-15
  outer loop
    vertex 4.952462186221848 16.33498208533164 12.079979239433571
    vertex 4.452462186221321 16.334982077881396 11.07997923943346
    vertex 4.50292498682005 16.334982078633345 11.46328226462087
  endloop
endfacet
facet normal -1.4900404568374396e-08 0.9999999999999999 -6.909057676999358e-15
  outer loop
    vertex 4.952462186221848 16.33498208533164 12.079979239433571
    vertex 4.50292498682005 16.334982078633345 11.46328226462087
    vertex 4.650874432149141 16.33498208083785 11.820463822079956
  endloop
endfacet
facet normal -1.4900404568374396e-08 0.9999999999999999 -6.909057676999358e-15
  outer loop
    vertex 4.952462186221848 16.33498208533164 12.079979239433571
    vertex 4.650874432149141 16.33498208083785 11.820463822079956
    vertex 4.8862280120074555 16.334982084344706 12.127182578940317
  endloop
endfacet
facet normal -1.4900404568374396e-08 0.9999999999999999 -6.909057676999358e-15
  outer loop
    vertex 4.952462186221848 16.33498208533164 12.079979239433571
    vertex 4.8862280120074555 16.334982084344706 12.127182578940317
    vertex 6.914400516807783 16.334982114565314 12.079979239433571
  endloop
endfacet
facet normal -1.4900404568374396e-08 0.9999999999999999 -6.909057676999358e-15
  outer loop
    vertex 6.914400516807783 16.334982114565314 12.079979239433571
    vertex 4.8862280120074555 16.334982084344706 12.127182578940317
    vertex 6.98063469102119 16.334982115552247 12.127182578940225
  endloop
endfacet
facet normal -1.4900404568374396e-08 0.9999999999999999 -6.909057676999358e-15
  outer loop
    vertex 6.98063469102119 16.334982115552247 12.127182578940225
    vertex 4.8862280120074555 16.334982084344706 12.127182578940317
    vertex 6.673915934160834 16.334982110982004 12.362536158798537
  endloop
endfacet
facet normal -1.4900404568374396e-08 0.9999999999999999 -6.909057676999358e-15
  outer loop
    vertex 6.673915934160834 16.334982110982004 12.362536158798537
    vertex 4.8862280120074555 16.334982084344706 12.127182578940317
    vertex 5.192946768867831 16.334982088914966 12.362536158798626
  endloop
endfacet
facet normal -1.4900404568374396e-08 0.9999999999999999 -6.909057676999358e-15
  outer loop
    vertex 6.673915934160834 16.334982110982004 12.362536158798537
    vertex 5.192946768867831 16.334982088914966 12.362536158798626
    vertex 6.316734376701733 16.334982105659847 12.510485604127636
  endloop
endfacet
facet normal -1.4900404568374396e-08 0.9999999999999999 -6.909057676999358e-15
  outer loop
    vertex 6.316734376701733 16.334982105659847 12.510485604127636
    vertex 5.192946768867831 16.334982088914966 12.362536158798626
    vertex 5.550128326326913 16.334982094237105 12.510485604127723
  endloop
endfacet
facet normal -1.4900404568374396e-08 0.9999999999999999 -6.909057676999358e-15
  outer loop
    vertex 6.316734376701733 16.334982105659847 12.510485604127636
    vertex 5.550128326326913 16.334982094237105 12.510485604127723
    vertex 5.933431351514327 16.334982099948466 12.560948404726362
  endloop
endfacet
facet normal -1.4900404568374396e-08 0.9999999999999999 -6.909057676999358e-15
  outer loop
    vertex 6.914400516807783 16.334982114565314 12.079979239433571
    vertex 6.980634691021181 16.334982115552194 10.032775899926676
    vertex 6.9144005168073175 16.334982114565257 9.981952630525882
  endloop
endfacet
facet normal -1.4900404568374396e-08 0.9999999999999999 -6.909057676999358e-15
  outer loop
    vertex 6.980634691021181 16.334982115552194 10.032775899926676
    vertex 6.914400516807783 16.334982114565314 12.079979239433571
    vertex 7.215988270879494 16.334982119059067 10.339494656787041
  endloop
endfacet
facet normal -1.4900404568374396e-08 0.9999999999999999 -6.909057676999358e-15
  outer loop
    vertex 7.215988270879494 16.334982119059067 10.339494656787041
    vertex 6.914400516807783 16.334982114565314 12.079979239433571
    vertex 7.363937716208579 16.33498212126359 10.696676214246127
  endloop
endfacet
facet normal -1.4900404568374396e-08 0.9999999999999999 -6.909057676999358e-15
  outer loop
    vertex 7.363937716208579 16.33498212126359 10.696676214246127
    vertex 6.914400516807783 16.334982114565314 12.079979239433571
    vertex 7.4144005168073335 16.334982122015504 11.079979239433372
  endloop
endfacet
facet normal -1.4900404568374396e-08 0.9999999999999999 -6.909057676999358e-15
  outer loop
    vertex 7.4144005168073335 16.334982122015504 11.079979239433372
    vertex 6.914400516807783 16.334982114565314 12.079979239433571
    vertex 7.3639377162085875 16.33498212126359 11.463282264620782
  endloop
endfacet
facet normal -1.4900404568374396e-08 0.9999999999999999 -6.909057676999358e-15
  outer loop
    vertex 7.3639377162085875 16.33498212126359 11.463282264620782
    vertex 6.914400516807783 16.334982114565314 12.079979239433571
    vertex 7.215988270879502 16.334982119059106 11.820463822079867
  endloop
endfacet
facet normal -1.4900404568374396e-08 0.9999999999999999 -6.909057676999358e-15
  outer loop
    vertex 7.215988270879502 16.334982119059106 11.820463822079867
    vertex 6.914400516807783 16.334982114565314 12.079979239433571
    vertex 6.98063469102119 16.334982115552247 12.127182578940225
  endloop
endfacet
facet normal 0.9659258262890695 1.4392728807157425e-08 0.2588190451025159
  outer loop
    vertex 7.363937832452329 8.533617272896695 11.463282264620984
    vertex 7.4144005168073335 16.334982122015504 11.079979239433372
    vertex 7.3639377162085875 16.33498212126359 11.463282264620782
  endloop
endfacet
facet normal 0.9914448613738114 1.4772970710243963e-08 0.13052619222004297
  outer loop
    vertex 7.4144005168073335 16.334982122015504 11.079979239433372
    vertex 7.363937832452329 8.533617272896695 11.463282264620984
    vertex 7.414400633051058 8.53361727364861 11.079979239433573
  endloop
endfacet
facet normal 0.25881904510251974 3.856548477866676e-09 0.9659258262890685
  outer loop
    vertex 6.316734376701733 16.334982105659847 12.510485604127636
    vertex 5.933431467758106 8.533617251581555 12.560948404726565
    vertex 6.316734492945523 8.533617257292933 12.510485604127838
  endloop
endfacet
facet normal 0.13052619222004952 1.9449285685684956e-09 0.9914448613738107
  outer loop
    vertex 5.933431467758106 8.533617251581555 12.560948404726565
    vertex 6.316734376701733 16.334982105659847 12.510485604127636
    vertex 5.933431351514327 16.334982099948466 12.560948404726362
  endloop
endfacet
facet normal 0.5000000000000023 7.450248218164956e-09 0.8660254037844374
  outer loop
    vertex 6.673915934160834 16.334982110982004 12.362536158798537
    vertex 6.316734492945523 8.533617257292933 12.510485604127838
    vertex 6.673916050404604 8.53361726261511 12.362536158798742
  endloop
endfacet
facet normal 0.25881904510251924 3.856548477866669e-09 0.9659258262890688
  outer loop
    vertex 6.316734492945523 8.533617257292933 12.510485604127838
    vertex 6.673915934160834 16.334982110982004 12.362536158798537
    vertex 6.316734376701733 16.334982105659847 12.510485604127636
  endloop
endfacet
facet normal 0.707106781186547 1.0536224914689058e-08 0.7071067811865478
  outer loop
    vertex 6.98063469102119 16.334982115552247 12.127182578940225
    vertex 6.673916050404604 8.53361726261511 12.362536158798742
    vertex 6.980634807264915 8.533617267185335 12.127182578940431
  endloop
endfacet
facet normal 0.5000000000000014 7.450248218164941e-09 0.8660254037844377
  outer loop
    vertex 6.673916050404604 8.53361726261511 12.362536158798742
    vertex 6.98063469102119 16.334982115552247 12.127182578940225
    vertex 6.673915934160834 16.334982110982004 12.362536158798537
  endloop
endfacet
facet normal 0.7071067811865468 1.0536224914689053e-08 0.7071067811865481
  outer loop
    vertex 6.980634807264915 8.533617267185335 12.127182578940431
    vertex 7.215988270879502 16.334982119059106 11.820463822079867
    vertex 6.98063469102119 16.334982115552247 12.127182578940225
  endloop
endfacet
facet normal 0.866025403784436 1.2904175295212046e-08 0.5000000000000044
  outer loop
    vertex 7.215988270879502 16.334982119059106 11.820463822079867
    vertex 6.980634807264915 8.533617267185335 12.127182578940431
    vertex 7.215988387123228 8.53361727069221 11.82046382208007
  endloop
endfacet
facet normal 0.8660254037844375 1.2904175295212069e-08 0.5000000000000018
  outer loop
    vertex 7.215988387123228 8.53361727069221 11.82046382208007
    vertex 7.3639377162085875 16.33498212126359 11.463282264620782
    vertex 7.215988270879502 16.334982119059106 11.820463822079867
  endloop
endfacet
facet normal 0.965925826289069 1.4392728807157415e-08 0.2588190451025182
  outer loop
    vertex 7.3639377162085875 16.33498212126359 11.463282264620782
    vertex 7.215988387123228 8.53361727069221 11.82046382208007
    vertex 7.363937832452329 8.533617272896695 11.463282264620984
  endloop
endfacet
facet normal -0.9914448613738106 -1.477296743803433e-08 0.1305261922200506
  outer loop
    vertex 4.452462186221321 16.334982077881396 11.07997923943346
    vertex 4.502925103063839 8.533617230266401 11.46328226462098
    vertex 4.50292498682005 16.334982078633345 11.46328226462087
  endloop
endfacet
facet normal -0.9659258262890699 -1.4392709927854338e-08 0.2588190451025145
  outer loop
    vertex 4.502925103063839 8.533617230266401 11.46328226462098
    vertex 4.452462186221321 16.334982077881396 11.07997923943346
    vertex 4.45246230246511 8.533617229514462 11.079979239433573
  endloop
endfacet
facet normal -0.9659258262890699 -1.4392709927854338e-08 0.2588190451025145
  outer loop
    vertex 4.502925103063839 8.533617230266401 11.46328226462098
    vertex 4.650874432149141 16.33498208083785 11.820463822079956
    vertex 4.50292498682005 16.334982078633345 11.46328226462087
  endloop
endfacet
facet normal -0.8660254037844397 -1.2904136059588164e-08 0.49999999999999833
  outer loop
    vertex 4.650874432149141 16.33498208083785 11.820463822079956
    vertex 4.502925103063839 8.533617230266401 11.46328226462098
    vertex 4.650874548392941 8.533617232470956 11.82046382208007
  endloop
endfacet
facet normal -0.8660254037844356 -1.2904136059588102e-08 0.5000000000000054
  outer loop
    vertex 4.650874548392941 8.533617232470956 11.82046382208007
    vertex 4.8862280120074555 16.334982084344706 12.127182578940317
    vertex 4.650874432149141 16.33498208083785 11.820463822079956
  endloop
endfacet
facet normal -0.7071067811865467 -1.0536177623848391e-08 0.7071067811865482
  outer loop
    vertex 4.8862280120074555 16.334982084344706 12.127182578940317
    vertex 4.650874548392941 8.533617232470956 11.82046382208007
    vertex 4.886228128251262 8.533617235977754 12.127182578940431
  endloop
endfacet
facet normal -0.5000000000000019 -7.450196094900205e-09 0.8660254037844376
  outer loop
    vertex 5.192946768867831 16.334982088914966 12.362536158798626
    vertex 4.886228128251262 8.533617235977754 12.127182578940431
    vertex 5.19294688511161 8.533617240548034 12.362536158798742
  endloop
endfacet
facet normal -0.7071067811865422 -1.0536177623848326e-08 0.7071067811865526
  outer loop
    vertex 4.886228128251262 8.533617235977754 12.127182578940431
    vertex 5.192946768867831 16.334982088914966 12.362536158798626
    vertex 4.8862280120074555 16.334982084344706 12.127182578940317
  endloop
endfacet
facet normal -0.25881904510247056 -3.856495081570174e-09 0.9659258262890816
  outer loop
    vertex 5.550128326326913 16.334982094237105 12.510485604127723
    vertex 5.19294688511161 8.533617240548034 12.362536158798742
    vertex 5.550128442570691 8.533617245870174 12.510485604127838
  endloop
endfacet
facet normal -0.5000000000000013 -7.450196094900197e-09 0.8660254037844378
  outer loop
    vertex 5.19294688511161 8.533617240548034 12.362536158798742
    vertex 5.550128326326913 16.334982094237105 12.510485604127723
    vertex 5.192946768867831 16.334982088914966 12.362536158798626
  endloop
endfacet
facet normal -0.13052619221993647 -1.9448759083137747e-09 0.9914448613738255
  outer loop
    vertex 5.933431351514327 16.334982099948466 12.560948404726362
    vertex 5.550128442570691 8.533617245870174 12.510485604127838
    vertex 5.933431467758106 8.533617251581555 12.560948404726565
  endloop
endfacet
facet normal -0.25881904510246234 -3.856495081570051e-09 0.9659258262890841
  outer loop
    vertex 5.550128442570691 8.533617245870174 12.510485604127838
    vertex 5.933431351514327 16.334982099948466 12.560948404726362
    vertex 5.550128326326913 16.334982094237105 12.510485604127723
  endloop
endfacet
facet normal 0.6087614290087526 9.070808754550465e-09 -0.7933533402912105
  outer loop
    vertex 6.91440063305105 8.533617266198366 9.981952630525917
    vertex 6.980634691021181 16.334982115552194 10.032775899926676
    vertex 6.980634807264915 8.5336172671853 10.032775899926715
  endloop
endfacet
facet normal 0.7071067811865654 1.0536198990453775e-08 -0.7071067811865294
  outer loop
    vertex 6.980634691021181 16.334982115552194 10.032775899926676
    vertex 6.91440063305105 8.533617266198366 9.981952630525917
    vertex 6.9144005168073175 16.334982114565257 9.981952630525882
  endloop
endfacet
facet normal 0.6087614290087526 9.070808754550465e-09 -0.7933533402912105
  outer loop
    vertex 6.9144005168073175 16.334982114565257 9.981952630525882
    vertex 6.91440063305105 8.533617266198366 9.981952630525917
    vertex 6.7175070624413005 8.533617263264595 9.83087088003748
  endloop
endfacet
facet normal 0.6087614290087526 9.070808754550465e-09 -0.7933533402912105
  outer loop
    vertex 6.9144005168073175 16.334982114565257 9.981952630525882
    vertex 6.7175070624413005 8.533617263264595 9.83087088003748
    vertex 6.673915934160809 16.33498211098191 9.79742232006837
  endloop
endfacet
facet normal 0.5000000000000164 7.450216804255939e-09 -0.8660254037844292
  outer loop
    vertex 6.673915934160809 16.33498211098191 9.79742232006837
    vertex 6.7175070624413005 8.533617263264595 9.83087088003748
    vertex 6.673916050404604 8.533617262615037 9.797422320068405
  endloop
endfacet
facet normal 0.25881904510252535 3.856514552088952e-09 -0.9659258262890671
  outer loop
    vertex 6.316734492945523 8.533617257292898 9.649472874739304
    vertex 6.673915934160809 16.33498211098191 9.79742232006837
    vertex 6.673916050404604 8.533617262615037 9.797422320068405
  endloop
endfacet
facet normal 0.5000000000000164 7.450216804255939e-09 -0.8660254037844292
  outer loop
    vertex 6.673915934160809 16.33498211098191 9.79742232006837
    vertex 6.316734492945523 8.533617257292898 9.649472874739304
    vertex 6.316734376701724 16.334982105659794 9.649472874739269
  endloop
endfacet
facet normal 0.13052619222005304 1.9448934921134675e-09 -0.9914448613738102
  outer loop
    vertex 5.933431467758106 8.533617251581516 9.59901007414058
    vertex 6.316734376701724 16.334982105659794 9.649472874739269
    vertex 6.316734492945523 8.533617257292898 9.649472874739304
  endloop
endfacet
facet normal 0.2588190451025169 3.856514552088827e-09 -0.9659258262890693
  outer loop
    vertex 6.316734376701724 16.334982105659794 9.649472874739269
    vertex 5.933431467758106 8.533617251581516 9.59901007414058
    vertex 5.933431351514319 16.334982099948412 9.59901007414054
  endloop
endfacet
facet normal 0.9914448613738055 1.47729659731726e-08 -0.1305261922200888
  outer loop
    vertex 7.4144005168073335 16.334982122015504 11.079979239433372
    vertex 7.363937832452329 8.533617272896695 10.696676214246164
    vertex 7.363937716208579 16.33498212126359 10.696676214246127
  endloop
endfacet
facet normal 0.9659258262890625 1.4392719624763774e-08 -0.2588190451025417
  outer loop
    vertex 7.363937832452329 8.533617272896695 10.696676214246164
    vertex 7.4144005168073335 16.334982122015504 11.079979239433372
    vertex 7.414400633051058 8.53361727364861 11.079979239433573
  endloop
endfacet
facet normal 0.9659258262890625 1.4392719624763774e-08 -0.2588190451025417
  outer loop
    vertex 7.363937832452329 8.533617272896695 10.696676214246164
    vertex 7.215988270879494 16.334982119059067 10.339494656787041
    vertex 7.363937716208579 16.33498212126359 10.696676214246127
  endloop
endfacet
facet normal 0.8660254037844379 1.290415775525224e-08 -0.5000000000000011
  outer loop
    vertex 7.215988270879494 16.334982119059067 10.339494656787041
    vertex 7.363937832452329 8.533617272896695 10.696676214246164
    vertex 7.215988387123228 8.533617270692153 10.339494656787078
  endloop
endfacet
facet normal 0.8660254037844366 1.290415775525222e-08 -0.5000000000000033
  outer loop
    vertex 7.215988387123228 8.533617270692153 10.339494656787078
    vertex 6.980634691021181 16.334982115552194 10.032775899926676
    vertex 7.215988270879494 16.334982119059067 10.339494656787041
  endloop
endfacet
facet normal 0.7071067811865654 1.0536198990453775e-08 -0.7071067811865294
  outer loop
    vertex 6.980634691021181 16.334982115552194 10.032775899926676
    vertex 7.215988387123228 8.533617270692153 10.339494656787078
    vertex 6.980634807264915 8.5336172671853 10.032775899926715
  endloop
endfacet
facet normal -0.25881904510263726 -3.856493852311994e-09 -0.965925826289037
  outer loop
    vertex 5.550128442570691 8.533617245870138 9.649472874739304
    vertex 5.933431351514319 16.334982099948412 9.59901007414054
    vertex 5.933431467758106 8.533617251581516 9.59901007414058
  endloop
endfacet
facet normal -0.13052619222028244 -1.9448911658619495e-09 -0.99144486137378
  outer loop
    vertex 5.933431351514319 16.334982099948412 9.59901007414054
    vertex 5.550128442570691 8.533617245870138 9.649472874739304
    vertex 5.550128326327206 16.334982094237052 9.649472874739413
  endloop
endfacet
facet normal -0.4999999999999989 -7.450182809014268e-09 -0.8660254037844392
  outer loop
    vertex 5.19294688511161 8.533617240547962 9.797422320068405
    vertex 5.550128326327206 16.334982094237052 9.649472874739413
    vertex 5.550128442570691 8.533617245870138 9.649472874739304
  endloop
endfacet
facet normal -0.2588190451026382 -3.856493852312007e-09 -0.9659258262890369
  outer loop
    vertex 5.550128326327206 16.334982094237052 9.649472874739413
    vertex 5.19294688511161 8.533617240547962 9.797422320068405
    vertex 5.19294676886813 16.33498208891493 9.797422320068508
  endloop
endfacet
facet normal -0.6087614290087197 -9.070780064858529e-09 -0.7933533402912358
  outer loop
    vertex 4.952462302465118 8.533617236964671 9.981952630525917
    vertex 5.19294676886813 16.33498208891493 9.797422320068508
    vertex 5.19294688511161 8.533617240547962 9.797422320068405
  endloop
endfacet
facet normal -0.5000000000000061 -7.4501828090143745e-09 -0.8660254037844352
  outer loop
    vertex 5.19294676886813 16.33498208891493 9.797422320068508
    vertex 4.952462302465118 8.533617236964671 9.981952630525917
    vertex 4.95246218622162 16.33498208533164 9.98195263052602
  endloop
endfacet
facet normal -0.6087614290087197 -9.070780064858529e-09 -0.7933533402912358
  outer loop
    vertex 4.95246218622162 16.33498208533164 9.98195263052602
    vertex 4.952462302465118 8.533617236964671 9.981952630525917
    vertex 4.886228128251262 8.533617235977736 10.032775899926715
  endloop
endfacet
facet normal -0.6087614290087197 -9.070780064858529e-09 -0.7933533402912358
  outer loop
    vertex 4.95246218622162 16.33498208533164 9.98195263052602
    vertex 4.886228128251262 8.533617235977736 10.032775899926715
    vertex 4.886228012007748 16.33498208434469 10.03277589992682
  endloop
endfacet
facet normal -0.707106781186536 -1.053615770458274e-08 -0.7071067811865588
  outer loop
    vertex 4.886228012007748 16.33498208434469 10.03277589992682
    vertex 4.650874548392941 8.533617232470883 10.339494656787078
    vertex 4.650874432149462 16.33498208083785 10.339494656787185
  endloop
endfacet
facet normal -0.8660254037844349 -1.2904103120418069e-08 -0.5000000000000061
  outer loop
    vertex 4.650874548392941 8.533617232470883 10.339494656787078
    vertex 4.886228012007748 16.33498208434469 10.03277589992682
    vertex 4.886228128251262 8.533617235977736 10.032775899926715
  endloop
endfacet
facet normal -0.8660254037844403 -1.290410312041815e-08 -0.4999999999999971
  outer loop
    vertex 4.650874432149462 16.33498208083785 10.339494656787185
    vertex 4.502925103063839 8.533617230266401 10.696676214246164
    vertex 4.50292498682036 16.334982078633367 10.696676214246269
  endloop
endfacet
facet normal -0.9659258262890127 -1.4392678973800036e-08 -0.25881904510272824
  outer loop
    vertex 4.502925103063839 8.533617230266401 10.696676214246164
    vertex 4.650874432149462 16.33498208083785 10.339494656787185
    vertex 4.650874548392941 8.533617232470883 10.339494656787078
  endloop
endfacet
facet normal -0.9659258262890127 -1.4392678973800036e-08 -0.25881904510272824
  outer loop
    vertex 4.502925103063839 8.533617230266401 10.696676214246164
    vertex 4.452462186221321 16.334982077881396 11.07997923943346
    vertex 4.50292498682036 16.334982078633367 10.696676214246269
  endloop
endfacet
facet normal -0.9914448613737548 -1.4772940526009144e-08 -0.1305261922204739
  outer loop
    vertex 4.452462186221321 16.334982077881396 11.07997923943346
    vertex 4.502925103063839 8.533617230266401 10.696676214246164
    vertex 4.45246230246511 8.533617229514462 11.079979239433573
  endloop
endfacet
facet normal 1.4900423534177198e-08 -0.9999999999999999 2.09018060876967e-14
  outer loop
    vertex 6.980634807264915 8.5336172671853 10.032775899926715
    vertex 6.914400633051042 8.53361726619844 12.07997923943357
    vertex 6.91440063305105 8.533617266198366 9.981952630525917
  endloop
endfacet
facet normal 1.4900423534177198e-08 -0.9999999999999999 2.09018060876967e-14
  outer loop
    vertex 6.914400633051042 8.53361726619844 12.07997923943357
    vertex 6.980634807264915 8.5336172671853 10.032775899926715
    vertex 7.215988387123228 8.533617270692153 10.339494656787078
  endloop
endfacet
facet normal 1.4900423534177198e-08 -0.9999999999999999 2.09018060876967e-14
  outer loop
    vertex 6.914400633051042 8.53361726619844 12.07997923943357
    vertex 7.215988387123228 8.533617270692153 10.339494656787078
    vertex 7.363937832452329 8.533617272896695 10.696676214246164
  endloop
endfacet
facet normal 1.4900423534177198e-08 -0.9999999999999999 2.09018060876967e-14
  outer loop
    vertex 6.914400633051042 8.53361726619844 12.07997923943357
    vertex 7.363937832452329 8.533617272896695 10.696676214246164
    vertex 7.414400633051058 8.53361727364861 11.079979239433573
  endloop
endfacet
facet normal 1.4900423534177198e-08 -0.9999999999999999 2.09018060876967e-14
  outer loop
    vertex 6.914400633051042 8.53361726619844 12.07997923943357
    vertex 7.414400633051058 8.53361727364861 11.079979239433573
    vertex 7.363937832452329 8.533617272896695 11.463282264620984
  endloop
endfacet
facet normal 1.4900423534177198e-08 -0.9999999999999999 2.09018060876967e-14
  outer loop
    vertex 6.914400633051042 8.53361726619844 12.07997923943357
    vertex 7.363937832452329 8.533617272896695 11.463282264620984
    vertex 7.215988387123228 8.53361727069221 11.82046382208007
  endloop
endfacet
facet normal 1.4900423534177198e-08 -0.9999999999999999 2.09018060876967e-14
  outer loop
    vertex 6.914400633051042 8.53361726619844 12.07997923943357
    vertex 7.215988387123228 8.53361727069221 11.82046382208007
    vertex 6.980634807264915 8.533617267185335 12.127182578940431
  endloop
endfacet
facet normal 1.4900423534177198e-08 -0.9999999999999999 2.09018060876967e-14
  outer loop
    vertex 6.914400633051042 8.53361726619844 12.07997923943357
    vertex 6.980634807264915 8.533617267185335 12.127182578940431
    vertex 4.9524623024651 8.533617236964691 12.07997923943357
  endloop
endfacet
facet normal 1.4900423534177198e-08 -0.9999999999999999 2.09018060876967e-14
  outer loop
    vertex 4.9524623024651 8.533617236964691 12.07997923943357
    vertex 4.886228128251262 8.533617235977736 10.032775899926715
    vertex 4.952462302465118 8.533617236964671 9.981952630525917
  endloop
endfacet
facet normal 1.4900423534177198e-08 -0.9999999999999999 2.09018060876967e-14
  outer loop
    vertex 4.886228128251262 8.533617235977736 10.032775899926715
    vertex 4.9524623024651 8.533617236964691 12.07997923943357
    vertex 4.650874548392941 8.533617232470883 10.339494656787078
  endloop
endfacet
facet normal 1.4900423534177198e-08 -0.9999999999999999 2.09018060876967e-14
  outer loop
    vertex 4.650874548392941 8.533617232470883 10.339494656787078
    vertex 4.9524623024651 8.533617236964691 12.07997923943357
    vertex 4.502925103063839 8.533617230266401 10.696676214246164
  endloop
endfacet
facet normal 1.4900423534177198e-08 -0.9999999999999999 2.09018060876967e-14
  outer loop
    vertex 4.502925103063839 8.533617230266401 10.696676214246164
    vertex 4.9524623024651 8.533617236964691 12.07997923943357
    vertex 4.45246230246511 8.533617229514462 11.079979239433573
  endloop
endfacet
facet normal 1.4900423534177198e-08 -0.9999999999999999 2.09018060876967e-14
  outer loop
    vertex 4.45246230246511 8.533617229514462 11.079979239433573
    vertex 4.9524623024651 8.533617236964691 12.07997923943357
    vertex 4.502925103063839 8.533617230266401 11.46328226462098
  endloop
endfacet
facet normal 1.4900423534177198e-08 -0.9999999999999999 2.09018060876967e-14
  outer loop
    vertex 4.502925103063839 8.533617230266401 11.46328226462098
    vertex 4.9524623024651 8.533617236964691 12.07997923943357
    vertex 4.650874548392941 8.533617232470956 11.82046382208007
  endloop
endfacet
facet normal 1.4900423534177198e-08 -0.9999999999999999 2.09018060876967e-14
  outer loop
    vertex 4.650874548392941 8.533617232470956 11.82046382208007
    vertex 4.9524623024651 8.533617236964691 12.07997923943357
    vertex 4.886228128251262 8.533617235977754 12.127182578940431
  endloop
endfacet
facet normal 1.4900423534177198e-08 -0.9999999999999999 2.09018060876967e-14
  outer loop
    vertex 4.886228128251262 8.533617235977754 12.127182578940431
    vertex 4.9524623024651 8.533617236964691 12.07997923943357
    vertex 6.980634807264915 8.533617267185335 12.127182578940431
  endloop
endfacet
facet normal 1.4900423534177198e-08 -0.9999999999999999 2.09018060876967e-14
  outer loop
    vertex 4.886228128251262 8.533617235977754 12.127182578940431
    vertex 6.980634807264915 8.533617267185335 12.127182578940431
    vertex 6.673916050404604 8.53361726261511 12.362536158798742
  endloop
endfacet
facet normal 1.4900423534177198e-08 -0.9999999999999999 2.09018060876967e-14
  outer loop
    vertex 4.886228128251262 8.533617235977754 12.127182578940431
    vertex 6.673916050404604 8.53361726261511 12.362536158798742
    vertex 5.19294688511161 8.533617240548034 12.362536158798742
  endloop
endfacet
facet normal 1.4900423534177198e-08 -0.9999999999999999 2.09018060876967e-14
  outer loop
    vertex 5.19294688511161 8.533617240548034 12.362536158798742
    vertex 6.673916050404604 8.53361726261511 12.362536158798742
    vertex 6.316734492945523 8.533617257292933 12.510485604127838
  endloop
endfacet
facet normal 1.4900423534177198e-08 -0.9999999999999999 2.09018060876967e-14
  outer loop
    vertex 5.19294688511161 8.533617240548034 12.362536158798742
    vertex 6.316734492945523 8.533617257292933 12.510485604127838
    vertex 5.550128442570691 8.533617245870174 12.510485604127838
  endloop
endfacet
facet normal 1.4900423534177198e-08 -0.9999999999999999 2.09018060876967e-14
  outer loop
    vertex 5.550128442570691 8.533617245870174 12.510485604127838
    vertex 6.316734492945523 8.533617257292933 12.510485604127838
    vertex 5.933431467758106 8.533617251581555 12.560948404726565
  endloop
endfacet
facet normal 0.0 0.0 1.0
  outer loop
    vertex 7.911420423820265 2.283082024156902 0.40000000000000013
    vertex 7.794372924178787 1.254443772606739 0.40000000000000013
    vertex 7.920608071464782 1.7610581005497472 0.40000000000000013
  endloop
endfacet
facet normal 0.0 0.0 1.0
  outer loop
    vertex 7.794372924178787 1.254443772606739 0.40000000000000013
    vertex 7.911420423820265 2.283082024156902 0.40000000000000013
    vertex 7.767436104248912 2.7849404757197194 0.40000000000000013
  endloop
endfacet
facet normal 0.0 0.0 1.0
  outer loop
    vertex 7.794372924178787 1.254443772606739 0.40000000000000013
    vertex 7.767436104248912 2.7849404757197194 0.40000000000000013
    vertex 7.541317698636397 0.7977639695574489 0.40000000000000013
  endloop
endfacet
facet normal 0.0 0.0 1.0
  outer loop
    vertex 7.541317698636397 0.7977639695574489 0.40000000000000013
    vertex 7.767436104248912 2.7849404757197194 0.40000000000000013
    vertex 7.498467406184153 3.2324326311244866 0.40000000000000013
  endloop
endfacet
facet normal 0.0 0.0 1.0
  outer loop
    vertex 7.541317698636397 0.7977639695574489 0.40000000000000013
    vertex 7.498467406184153 3.2324326311244866 0.40000000000000013
    vertex 7.178687690264756 0.4221406652806293 0.40000000000000013
  endloop
endfacet
facet normal 0.0 0.0 1.0
  outer loop
    vertex 7.178687690264756 0.4221406652806293 0.40000000000000013
    vertex 7.498467406184153 3.2324326311244866 0.40000000000000013
    vertex 7.226506260353171 3.4949862891817913 0.40000000000000013
  endloop
endfacet
facet normal 0.0 0.0 1.0
  outer loop
    vertex 7.178687690264756 0.4221406652806293 0.40000000000000013
    vertex 7.226506260353171 3.4949862891817913 0.40000000000000013
    vertex 7.045384544987244 3.2530829728837323 0.40000000000000013
  endloop
endfacet
facet normal 0.0 0.0 1.0
  outer loop
    vertex 7.178687690264756 0.4221406652806293 0.40000000000000013
    vertex 7.045384544987244 3.2530829728837323 0.40000000000000013
    vertex 6.731195534859994 0.1531719672158732 0.40000000000000013
  endloop
endfacet
facet normal 0.0 0.0 1.0
  outer loop
    vertex 6.731195534859994 0.1531719672158732 0.40000000000000013
    vertex 7.045384544987244 3.2530829728837323 0.40000000000000013
    vertex 5.933431565302523 1.9871765061622648 0.40000000000000013
  endloop
endfacet
facet normal 0.0 0.0 1.0
  outer loop
    vertex 6.731195534859994 0.1531719672158732 0.40000000000000013
    vertex 5.933431565302523 1.9871765061622648 0.40000000000000013
    vertex 6.229337083297158 0.009187647644514584 0.40000000000000013
  endloop
endfacet
facet normal 0.0 0.0 1.0
  outer loop
    vertex 6.229337083297158 0.009187647644514584 0.40000000000000013
    vertex 5.933431565302523 1.9871765061622648 0.40000000000000013
    vertex 5.707313159690008 0.0 0.40000000000000013
  endloop
endfacet
facet normal 0.0 0.0 1.0
  outer loop
    vertex 5.707313159690008 0.0 0.40000000000000013
    vertex 5.933431565302523 1.9871765061622648 0.40000000000000013
    vertex 4.821478547892855 3.2530829397467067 0.40000000000000013
  endloop
endfacet
facet normal 0.0 0.0 1.0
  outer loop
    vertex 5.707313159690008 0.0 0.40000000000000013
    vertex 4.821478547892855 3.2530829397467067 0.40000000000000013
    vertex 5.200698831746991 0.12623514728598628 0.40000000000000013
  endloop
endfacet
facet normal 0.0 0.0 1.0
  outer loop
    vertex 5.200698831746991 0.12623514728598628 0.40000000000000013
    vertex 4.821478547892855 3.2530829397467067 0.40000000000000013
    vertex 4.744019028697708 0.3792903728283993 0.40000000000000013
  endloop
endfacet
facet normal 0.0 0.0 1.0
  outer loop
    vertex 4.744019028697708 0.3792903728283993 0.40000000000000013
    vertex 4.821478547892855 3.2530829397467067 0.40000000000000013
    vertex 4.637112304218929 3.4993195817628924 0.40000000000000013
  endloop
endfacet
facet normal 0.0 0.0 1.0
  outer loop
    vertex 4.744019028697708 0.3792903728283993 0.40000000000000013
    vertex 4.637112304218929 3.4993195817628924 0.40000000000000013
    vertex 4.3683957244208855 0.7419203812000406 0.40000000000000013
  endloop
endfacet
facet normal 0.0 0.0 1.0
  outer loop
    vertex 4.3683957244208855 0.7419203812000406 0.40000000000000013
    vertex 4.637112304218929 3.4993195817628924 0.40000000000000013
    vertex 4.325545431968652 3.1765890427670613 0.40000000000000013
  endloop
endfacet
facet normal 0.0 0.0 1.0
  outer loop
    vertex 4.3683957244208855 0.7419203812000406 0.40000000000000013
    vertex 4.325545431968652 3.1765890427670613 0.40000000000000013
    vertex 4.099427026356135 1.1894125366048018 0.40000000000000013
  endloop
endfacet
facet normal 0.0 0.0 1.0
  outer loop
    vertex 4.099427026356135 1.1894125366048018 0.40000000000000013
    vertex 4.325545431968652 3.1765890427670613 0.40000000000000013
    vertex 4.0724902064262425 2.719909239717785 0.40000000000000013
  endloop
endfacet
facet normal 0.0 0.0 1.0
  outer loop
    vertex 4.099427026356135 1.1894125366048018 0.40000000000000013
    vertex 4.0724902064262425 2.719909239717785 0.40000000000000013
    vertex 3.9554427067847935 1.6912709881676162 0.40000000000000013
  endloop
endfacet
facet normal 0.0 0.0 1.0
  outer loop
    vertex 3.9554427067847935 1.6912709881676162 0.40000000000000013
    vertex 4.0724902064262425 2.719909239717785 0.40000000000000013
    vertex 3.946255059140248 2.2132949117747795 0.40000000000000013
  endloop
endfacet
facet normal 0.6945541009889662 0.7194404775931148 3.174032263205832e-32
  outer loop
    vertex 7.226506260353171 3.4949862891817913 0.40000000000000013
    vertex 7.498467406184153 3.2324326311244866 0.0
    vertex 7.226506260353171 3.4949862891817913 0.0
  endloop
endfacet
facet normal 0.7825179204408181 0.6226280624811072 2.73802085004115e-32
  outer loop
    vertex 7.498467406184153 3.2324326311244866 0.0
    vertex 7.226506260353171 3.4949862891817913 0.40000000000000013
    vertex 7.498467406184153 3.2324326311244866 0.40000000000000013
  endloop
endfacet
facet normal 0.917002269473193 0.39888198477872344 1.7337149996062918e-32
  outer loop
    vertex 7.767436104248912 2.7849404757197194 0.40000000000000013
    vertex 7.498467406184153 3.2324326311244866 0.0
    vertex 7.498467406184153 3.2324326311244866 0.40000000000000013
  endloop
endfacet
facet normal 0.7825179204408181 0.6226280624811072 2.73802085004115e-32
  outer loop
    vertex 7.498467406184153 3.2324326311244866 0.0
    vertex 7.767436104248912 2.7849404757197194 0.40000000000000013
    vertex 7.767436104248912 2.7849404757197194 0.0
  endloop
endfacet
facet normal 0.9889944292588708 0.14795275899732546 6.112593370478071e-33
  outer loop
    vertex 7.911420423820265 2.283082024156902 0.40000000000000013
    vertex 7.767436104248912 2.7849404757197194 0.0
    vertex 7.767436104248912 2.7849404757197194 0.40000000000000013
  endloop
endfacet
facet normal 0.917002269473193 0.39888198477872344 1.7337149996062918e-32
  outer loop
    vertex 7.767436104248912 2.7849404757197194 0.0
    vertex 7.911420423820265 2.283082024156902 0.40000000000000013
    vertex 7.911420423820265 2.283082024156902 0.0
  endloop
endfacet
facet normal 0.9935882530811316 -0.11305920280625226 -5.528526391767e-33
  outer loop
    vertex 7.920608071464782 1.7610581005497472 0.40000000000000013
    vertex 7.911420423820265 2.283082024156902 0.0
    vertex 7.911420423820265 2.283082024156902 0.40000000000000013
  endloop
endfacet
facet normal 0.9889944292588708 0.14795275899732546 6.112593370478071e-33
  outer loop
    vertex 7.911420423820265 2.283082024156902 0.0
    vertex 7.920608071464782 1.7610581005497472 0.40000000000000013
    vertex 7.920608071464782 1.7610581005497472 0.0
  endloop
endfacet
facet normal 0.9304706794381337 -0.36636636677776224 -1.6792886216735516e-32
  outer loop
    vertex 7.794372924178787 1.254443772606739 0.40000000000000013
    vertex 7.920608071464782 1.7610581005497472 0.0
    vertex 7.920608071464782 1.7610581005497472 0.40000000000000013
  endloop
endfacet
facet normal 0.9935882530811316 -0.11305920280625226 -5.528526391767e-33
  outer loop
    vertex 7.920608071464782 1.7610581005497472 0.0
    vertex 7.794372924178787 1.254443772606739 0.40000000000000013
    vertex 7.794372924178787 1.254443772606739 0.0
  endloop
endfacet
facet normal 0.8039430666669314 -0.5947062683024033 -2.691283859758957e-32
  outer loop
    vertex 7.541317698636397 0.7977639695574489 0.40000000000000013
    vertex 7.794372924178787 1.254443772606739 0.0
    vertex 7.794372924178787 1.254443772606739 0.40000000000000013
  endloop
endfacet
facet normal 0.9304706794381337 -0.36636636677776224 -1.6792886216735516e-32
  outer loop
    vertex 7.794372924178787 1.254443772606739 0.0
    vertex 7.541317698636397 0.7977639695574489 0.40000000000000013
    vertex 7.541317698636397 0.7977639695574489 0.0
  endloop
endfacet
facet normal 0.6226280624811115 -0.7825179204408148 -3.5198725503586653e-32
  outer loop
    vertex 7.178687690264756 0.4221406652806293 0.40000000000000013
    vertex 7.541317698636397 0.7977639695574489 0.0
    vertex 7.541317698636397 0.7977639695574489 0.40000000000000013
  endloop
endfacet
facet normal 0.8039430666669314 -0.5947062683024033 -2.691283859758957e-32
  outer loop
    vertex 7.541317698636397 0.7977639695574489 0.0
    vertex 7.178687690264756 0.4221406652806293 0.40000000000000013
    vertex 7.178687690264756 0.4221406652806293 0.0
  endloop
endfacet
facet normal 0.6226280624811115 -0.7825179204408148 -3.5198725503586653e-32
  outer loop
    vertex 7.178687690264756 0.4221406652806293 0.40000000000000013
    vertex 6.731195534859994 0.1531719672158732 0.0
    vertex 7.178687690264756 0.4221406652806293 0.0
  endloop
endfacet
facet normal 0.39888198477872755 -0.9170022694731912 -4.108587743515852e-32
  outer loop
    vertex 6.731195534859994 0.1531719672158732 0.0
    vertex 7.178687690264756 0.4221406652806293 0.40000000000000013
    vertex 6.731195534859994 0.1531719672158732 0.40000000000000013
  endloop
endfacet
facet normal 0.39888198477872755 -0.9170022694731912 -4.108587743515852e-32
  outer loop
    vertex 6.731195534859994 0.1531719672158732 0.40000000000000013
    vertex 6.229337083297158 0.009187647644514584 0.0
    vertex 6.731195534859994 0.1531719672158732 0.0
  endloop
endfacet
facet normal 0.14795275899732124 -0.9889944292588714 -4.4173094717147083e-32
  outer loop
    vertex 6.229337083297158 0.009187647644514584 0.0
    vertex 6.731195534859994 0.1531719672158732 0.40000000000000013
    vertex 6.229337083297158 0.009187647644514584 0.40000000000000013
  endloop
endfacet
facet normal 0.14795275899732124 -0.9889944292588714 -4.4173094717147083e-32
  outer loop
    vertex 6.229337083297158 0.009187647644514584 0.40000000000000013
    vertex 5.707313159690008 0.0 0.0
    vertex 6.229337083297158 0.009187647644514584 0.0
  endloop
endfacet
facet normal -0.11305920280625809 -0.993588253081131 -4.424998859365267e-32
  outer loop
    vertex 5.707313159690008 0.0 0.0
    vertex 6.229337083297158 0.009187647644514584 0.40000000000000013
    vertex 5.707313159690008 0.0 0.40000000000000013
  endloop
endfacet
facet normal -0.11305920280625809 -0.993588253081131 -4.424998859365267e-32
  outer loop
    vertex 5.707313159690008 0.0 0.40000000000000013
    vertex 5.200698831746991 0.12623514728598628 0.0
    vertex 5.707313159690008 0.0 0.0
  endloop
endfacet
facet normal -0.3663663667777577 -0.9304706794381354 -4.131131887406452e-32
  outer loop
    vertex 5.200698831746991 0.12623514728598628 0.0
    vertex 5.707313159690008 0.0 0.40000000000000013
    vertex 5.200698831746991 0.12623514728598628 0.40000000000000013
  endloop
endfacet
facet normal -0.3663663667777577 -0.9304706794381354 -4.131131887406452e-32
  outer loop
    vertex 5.200698831746991 0.12623514728598628 0.40000000000000013
    vertex 4.744019028697708 0.3792903728283993 0.0
    vertex 5.200698831746991 0.12623514728598628 0.0
  endloop
endfacet
facet normal -0.5947062683024037 -0.8039430666669309 -3.5557351043391167e-32
  outer loop
    vertex 4.744019028697708 0.3792903728283993 0.0
    vertex 5.200698831746991 0.12623514728598628 0.40000000000000013
    vertex 4.744019028697708 0.3792903728283993 0.40000000000000013
  endloop
endfacet
facet normal -0.5947062683024037 -0.8039430666669309 -3.5557351043391167e-32
  outer loop
    vertex 4.744019028697708 0.3792903728283993 0.40000000000000013
    vertex 4.3683957244208855 0.7419203812000406 0.0
    vertex 4.744019028697708 0.3792903728283993 0.0
  endloop
endfacet
facet normal -0.7825179204408159 -0.6226280624811099 -2.738020850041163e-32
  outer loop
    vertex 4.3683957244208855 0.7419203812000406 0.0
    vertex 4.744019028697708 0.3792903728283993 0.40000000000000013
    vertex 4.3683957244208855 0.7419203812000406 0.40000000000000013
  endloop
endfacet
facet normal -0.7825179204408159 -0.6226280624811099 -2.738020850041163e-32
  outer loop
    vertex 4.3683957244208855 0.7419203812000406 0.0
    vertex 4.099427026356135 1.1894125366048018 0.40000000000000013
    vertex 4.099427026356135 1.1894125366048018 0.0
  endloop
endfacet
facet normal -0.9170022694731932 -0.3988819847787228 -1.733714999606289e-32
  outer loop
    vertex 4.099427026356135 1.1894125366048018 0.40000000000000013
    vertex 4.3683957244208855 0.7419203812000406 0.0
    vertex 4.3683957244208855 0.7419203812000406 0.40000000000000013
  endloop
endfacet
facet normal -0.9170022694731932 -0.3988819847787228 -1.733714999606289e-32
  outer loop
    vertex 4.099427026356135 1.1894125366048018 0.0
    vertex 3.9554427067847935 1.6912709881676162 0.40000000000000013
    vertex 3.9554427067847935 1.6912709881676162 0.0
  endloop
endfacet
facet normal -0.9889944292588708 -0.14795275899732546 -6.112593370478071e-33
  outer loop
    vertex 3.9554427067847935 1.6912709881676162 0.40000000000000013
    vertex 4.099427026356135 1.1894125366048018 0.0
    vertex 4.099427026356135 1.1894125366048018 0.40000000000000013
  endloop
endfacet
facet normal -0.9889944292588708 -0.14795275899732546 -6.112593370478071e-33
  outer loop
    vertex 3.9554427067847935 1.6912709881676162 0.0
    vertex 3.946255059140248 2.2132949117747795 0.40000000000000013
    vertex 3.946255059140248 2.2132949117747795 0.0
  endloop
endfacet
facet normal -0.9935882530811316 0.11305920280625226 5.528526391767e-33
  outer loop
    vertex 3.946255059140248 2.2132949117747795 0.40000000000000013
    vertex 3.9554427067847935 1.6912709881676162 0.0
    vertex 3.9554427067847935 1.6912709881676162 0.40000000000000013
  endloop
endfacet
facet normal -0.9935882530811316 0.11305920280625226 5.528526391767e-33
  outer loop
    vertex 3.946255059140248 2.2132949117747795 0.0
    vertex 4.0724902064262425 2.719909239717785 0.40000000000000013
    vertex 4.0724902064262425 2.719909239717785 0.0
  endloop
endfacet
facet normal -0.9304706794381336 0.3663663667777629 1.679288621673554e-32
  outer loop
    vertex 4.0724902064262425 2.719909239717785 0.40000000000000013
    vertex 3.946255059140248 2.2132949117747795 0.0
    vertex 3.946255059140248 2.2132949117747795 0.40000000000000013
  endloop
endfacet
facet normal -0.9304706794381336 0.3663663667777629 1.679288621673554e-32
  outer loop
    vertex 4.0724902064262425 2.719909239717785 0.0
    vertex 4.325545431968652 3.1765890427670613 0.40000000000000013
    vertex 4.325545431968652 3.1765890427670613 0.0
  endloop
endfacet
facet normal -0.80394306666693 0.5947062683024051 2.6912838597589643e-32
  outer loop
    vertex 4.325545431968652 3.1765890427670613 0.40000000000000013
    vertex 4.0724902064262425 2.719909239717785 0.0
    vertex 4.0724902064262425 2.719909239717785 0.40000000000000013
  endloop
endfacet
facet normal -0.80394306666693 0.5947062683024051 2.6912838597589643e-32
  outer loop
    vertex 4.325545431968652 3.1765890427670613 0.0
    vertex 4.637112304218929 3.4993195817628924 0.40000000000000013
    vertex 4.637112304218929 3.4993195817628924 0.0
  endloop
endfacet
facet normal -0.7194404775931212 0.6945541009889594 3.132376116968851e-32
  outer loop
    vertex 4.637112304218929 3.4993195817628924 0.40000000000000013
    vertex 4.325545431968652 3.1765890427670613 0.0
    vertex 4.325545431968652 3.1765890427670613 0.40000000000000013
  endloop
endfacet
endsolid Monopoly Iron
