solid Monopoly Wheel Barrel
facet normal 1.0 -6.172323355581835e-09 -1.0862515617378444e-18
  outer loop
    vertex 7.500000095053769 15.399999953707555 1.4
    vertex 7.500000008641249 1.399999953707546 1.3999999999999995
    vertex 7.500000095053769 15.399999953707555 5.287437154777306e-16
  endloop
endfacet
facet normal 1.0 -6.172323355581835e-09 -1.0862515617378444e-18
  outer loop
    vertex 7.500000095053769 15.399999953707555 9.961334789102946
    vertex 7.500000008641249 1.399999953707546 8.599331649905341
    vertex 7.500000095053769 15.399999953707555 8.599331649905341
  endloop
endfacet
facet normal 1.0 -6.172323355581835e-09 -1.0862515617378444e-18
  outer loop
    vertex 7.500000008641249 1.399999953707546 8.599331649905341
    vertex 7.500000095053769 15.399999953707555 9.961334789102946
    vertex 7.499999999999995 -4.629245133891402e-08 9.961334789102946
  endloop
endfacet
facet normal 1.0 -6.172323355581835e-09 -1.0862515617378444e-18
  outer loop
    vertex 7.499999999999995 -4.629245133891402e-08 -1.5653958587979452e-31
    vertex 7.500000008641249 1.399999953707546 1.3999999999999995
    vertex 7.499999999999995 -4.629245133891402e-08 9.961334789102946
  endloop
endfacet
facet normal 1.0 -6.172323355581835e-09 -1.0862515617378444e-18
  outer loop
    vertex 7.500000008641249 1.399999953707546 1.3999999999999995
    vertex 7.499999999999995 -4.629245133891402e-08 -1.5653958587979452e-31
    vertex 7.500000095053769 15.399999953707555 5.287437154777306e-16
  endloop
endfacet
facet normal 1.0 -6.172323355581835e-09 -1.0862515617378444e-18
  outer loop
    vertex 7.499999999999995 -4.629245133891402e-08 9.961334789102946
    vertex 7.500000008641249 1.399999953707546 1.3999999999999995
    vertex 7.500000008641249 1.399999953707546 8.599331649905341
  endloop
endfacet
facet normal -0.09732387656809374 0.9952527633971978 2.7785302495171867e-16
  outer loop
    vertex -0.5007895176380148 -1.3301316439625537 3.735500545913605
    vertex -0.22210256344565665 -1.3394492544723513 6.22583424318934
    vertex -0.22210256344565665 -1.3394492544723513 3.735500545913605
  endloop
endfacet
facet normal 0.033415296190304485 0.9994415530587641 1.451242833848537e-16
  outer loop
    vertex -0.22210256344565665 -1.3394492544723513 6.22583424318934
    vertex -0.5007895176380148 -1.3301316439625537 3.735500545913605
    vertex -0.5007895176380036 -1.3301316439625537 6.22583424318934
  endloop
endfacet
facet normal -0.09732387656809374 0.9952527633971978 2.7785302495171867e-16
  outer loop
    vertex -0.5007895176380148 -1.3301316439625537 3.735500545913605
    vertex -1.2636119351831292 -1.5074367089984828 6.22583424318934
    vertex -0.5007895176380036 -1.3301316439625537 6.22583424318934
  endloop
endfacet
facet normal -0.35159801574979804 0.9361510750518875 5.268584003335903e-16
  outer loop
    vertex -1.2636119351831292 -1.5074367089984828 6.22583424318934
    vertex -0.5007895176380148 -1.3301316439625537 3.735500545913605
    vertex -1.2636119351831405 -1.5074367089984828 3.735500545913606
  endloop
endfacet
facet normal -0.35159801574979854 0.9361510750518874 5.268584003335909e-16
  outer loop
    vertex -1.2636119351831405 -1.5074367089984828 3.735500545913606
    vertex -1.954551881537791 -1.8761332201403713 6.2258342431893405
    vertex -1.2636119351831292 -1.5074367089984828 6.22583424318934
  endloop
endfacet
facet normal -0.581911331201349 0.8132522380045899 7.399592464074026e-16
  outer loop
    vertex -1.954551881537791 -1.8761332201403713 6.2258342431893405
    vertex -1.2636119351831405 -1.5074367089984828 3.735500545913606
    vertex -1.954551881537791 -1.8761332201403713 3.7355005459136064
  endloop
endfacet
facet normal -0.6830837170359454 0.730340082098988 8.28383101814831e-16
  outer loop
    vertex -2.4088594611494294 -2.3010450081759157 3.7355005459136086
    vertex -1.954551881537791 -1.8761332201403713 6.2258342431893405
    vertex -1.954551881537791 -1.8761332201403713 3.7355005459136064
  endloop
endfacet
facet normal -0.581911331201349 0.8132522380045899 7.399592464074026e-16
  outer loop
    vertex -1.954551881537791 -1.8761332201403713 6.2258342431893405
    vertex -2.4088594611494294 -2.3010450081759157 3.7355005459136086
    vertex -2.5265229411901724 -2.4110951194536945 6.2258342431893405
  endloop
endfacet
facet normal -0.77256835108547 0.6349316049001482 9.026330926790214e-16
  outer loop
    vertex -2.5265229411901724 -2.4110951194536945 6.2258342431893405
    vertex -2.4088594611494294 -2.3010450081759157 3.7355005459136086
    vertex -2.5265229411901724 -2.4110951194536945 3.7355005459136073
  endloop
endfacet
facet normal -0.9105761145726825 0.41334143219585057 1.0037939853562805e-15
  outer loop
    vertex -2.9405462316517723 -3.075865637566594 6.2258342431893405
    vertex -2.5265229411901724 -2.4110951194536945 3.7355005459136073
    vertex -2.940546231651784 -3.075865637566594 3.7355005459136073
  endloop
endfacet
facet normal -0.7725683510854703 0.634931604900148 9.026330926790218e-16
  outer loop
    vertex -2.5265229411901724 -2.4110951194536945 3.7355005459136073
    vertex -2.9405462316517723 -3.075865637566594 6.2258342431893405
    vertex -2.5265229411901724 -2.4110951194536945 6.2258342431893405
  endloop
endfacet
facet normal -0.9865296206499468 0.16358272396641557 1.0365479767795034e-15
  outer loop
    vertex -3.168406749883608 -3.8251417622548933 3.7355005459136077
    vertex -2.9405462316517723 -3.075865637566594 6.2258342431893405
    vertex -2.940546231651784 -3.075865637566594 3.7355005459136073
  endloop
endfacet
facet normal -0.9105761145726825 0.41334143219585057 1.0037939853562805e-15
  outer loop
    vertex -2.9405462316517723 -3.075865637566594 6.2258342431893405
    vertex -3.168406749883608 -3.8251417622548933 3.7355005459136077
    vertex -3.168406749883608 -3.8251417622548933 6.225834243189342
  endloop
endfacet
facet normal -0.9952527633971978 -0.09732387656809402 9.986629365617259e-16
  outer loop
    vertex -3.1945761781253257 -4.607861563858427 6.2258342431893405
    vertex -3.168406749883608 -3.8251417622548933 3.7355005459136077
    vertex -3.1945761781253372 -4.607861563858427 3.7355005459136073
  endloop
endfacet
facet normal -0.9865296206499468 0.16358272396641557 1.0365479767795034e-15
  outer loop
    vertex -3.168406749883608 -3.8251417622548933 3.7355005459136077
    vertex -3.1945761781253257 -4.607861563858427 6.2258342431893405
    vertex -3.168406749883608 -3.8251417622548933 6.225834243189342
  endloop
endfacet
facet normal -0.9361510750518875 -0.35159801574979815 8.92720667585802e-16
  outer loop
    vertex -3.0172711130893854 -5.37068398140354 6.2258342431893405
    vertex -3.1945761781253372 -4.607861563858427 3.7355005459136073
    vertex -3.0172711130893966 -5.37068398140354 3.7355005459136073
  endloop
endfacet
facet normal -0.9952527633971978 -0.09732387656809405 9.986629365617257e-16
  outer loop
    vertex -3.1945761781253372 -4.607861563858427 3.7355005459136073
    vertex -3.0172711130893854 -5.37068398140354 6.2258342431893405
    vertex -3.1945761781253257 -4.607861563858427 6.2258342431893405
  endloop
endfacet
facet normal -0.8132522380045906 -0.5819113312013481 7.259409604045633e-16
  outer loop
    vertex -2.648574601947531 -6.061623927758192 6.2258342431893405
    vertex -2.941424417967816 -5.5128212403002745 3.7355005459136086
    vertex -2.648574601947531 -6.061623927758192 3.7355005459136064
  endloop
endfacet
facet normal -0.8822494226418143 -0.47078228115359805 8.16314497685448e-16
  outer loop
    vertex -2.941424417967816 -5.5128212403002745 3.7355005459136086
    vertex -3.0172711130893854 -5.37068398140354 6.2258342431893405
    vertex -3.0172711130893966 -5.37068398140354 3.7355005459136073
  endloop
endfacet
facet normal -0.9361510750518875 -0.35159801574979815 8.92720667585802e-16
  outer loop
    vertex -3.0172711130893854 -5.37068398140354 6.2258342431893405
    vertex -2.941424417967816 -5.5128212403002745 3.7355005459136086
    vertex -2.648574601947531 -6.061623927758192 6.2258342431893405
  endloop
endfacet
facet normal -0.6349316049001481 -0.7725683510854704 5.096895764459128e-16
  outer loop
    vertex -2.113612702634162 -6.633594987410549 6.22583424318934
    vertex -2.648574601947531 -6.061623927758192 3.7355005459136064
    vertex -2.1136127026341733 -6.633594987410549 3.735500545913606
  endloop
endfacet
facet normal -0.8132522380045902 -0.5819113312013483 7.259409604045631e-16
  outer loop
    vertex -2.648574601947531 -6.061623927758192 3.7355005459136064
    vertex -2.113612702634162 -6.633594987410549 6.22583424318934
    vertex -2.648574601947531 -6.061623927758192 6.2258342431893405
  endloop
endfacet
facet normal -0.6349316049001481 -0.7725683510854704 5.096895764459128e-16
  outer loop
    vertex -2.113612702634162 -6.633594987410549 6.22583424318934
    vertex -1.4488421845212742 -7.047618277872195 3.735500545913605
    vertex -1.4488421845212631 -7.047618277872195 6.22583424318934
  endloop
endfacet
facet normal -0.41334143219584873 -0.9105761145726834 2.5870369015432315e-16
  outer loop
    vertex -1.4488421845212742 -7.047618277872195 3.735500545913605
    vertex -2.113612702634162 -6.633594987410549 6.22583424318934
    vertex -1.9592566947225183 -6.729728887089999 3.7355005459136046
  endloop
endfacet
facet normal -0.5286592719051656 -0.8488341264515114 3.8751185090388986e-16
  outer loop
    vertex -1.9592566947225183 -6.729728887089999 3.7355005459136046
    vertex -2.113612702634162 -6.633594987410549 6.22583424318934
    vertex -2.1136127026341733 -6.633594987410549 3.735500545913606
  endloop
endfacet
facet normal -0.41334143219584824 -0.9105761145726838 2.5870369015432256e-16
  outer loop
    vertex -1.4488421845212631 -7.047618277872195 6.22583424318934
    vertex -0.6995660598329863 -7.275478796103986 3.7355005459136046
    vertex -0.6995660598329749 -7.275478796103986 6.225834243189338
  endloop
endfacet
facet normal -0.16358272396641793 -0.9865296206499463 -9.91242509321932e-18
  outer loop
    vertex -0.6995660598329863 -7.275478796103986 3.7355005459136046
    vertex -1.4488421845212631 -7.047618277872195 6.22583424318934
    vertex -1.4488421845212742 -7.047618277872195 3.735500545913605
  endloop
endfacet
facet normal -0.16358272396641735 -0.9865296206499464 -9.91242509321994e-18
  outer loop
    vertex -0.6995660598329749 -7.275478796103986 6.225834243189338
    vertex 0.0831537417705249 -7.3016482243457475 3.7355005459136037
    vertex 0.0831537417705249 -7.3016482243457475 6.225834243189338
  endloop
endfacet
facet normal 0.09732387656809342 -0.9952527633971978 -2.7785302495171833e-16
  outer loop
    vertex 0.0831537417705249 -7.3016482243457475 3.7355005459136037
    vertex -0.6995660598329749 -7.275478796103986 6.225834243189338
    vertex -0.6995660598329863 -7.275478796103986 3.7355005459136046
  endloop
endfacet
facet normal 0.09732387656809327 -0.9952527633971978 -2.778530249517182e-16
  outer loop
    vertex 0.0831537417705249 -7.3016482243457475 6.225834243189338
    vertex 0.8459761593156379 -7.124343159309818 3.735500545913603
    vertex 0.8459761593156379 -7.124343159309818 6.225834243189336
  endloop
endfacet
facet normal 0.35159801574979843 -0.9361510750518874 -5.268584003335907e-16
  outer loop
    vertex 0.8459761593156379 -7.124343159309818 3.735500545913603
    vertex 0.0831537417705249 -7.3016482243457475 6.225834243189338
    vertex 0.0831537417705249 -7.3016482243457475 3.7355005459136037
  endloop
endfacet
facet normal 0.3515980157497983 -0.9361510750518874 -5.268584003335906e-16
  outer loop
    vertex 0.8459761593156379 -7.124343159309818 6.225834243189336
    vertex 1.536916105670284 -6.755646648167907 3.7355005459136024
    vertex 1.536916105670284 -6.755646648167907 6.225834243189336
  endloop
endfacet
facet normal 0.5819113312013495 -0.8132522380045896 -7.39959246407403e-16
  outer loop
    vertex 1.536916105670284 -6.755646648167907 3.7355005459136024
    vertex 0.8459761593156379 -7.124343159309818 6.225834243189336
    vertex 0.8459761593156379 -7.124343159309818 3.735500545913603
  endloop
endfacet
facet normal 0.5819113312013494 -0.8132522380045897 -7.399592464074029e-16
  outer loop
    vertex 1.536916105670284 -6.755646648167907 6.225834243189336
    vertex 2.1088871653226815 -6.220684748854585 3.7355005459136015
    vertex 2.108887165322693 -6.220684748854585 6.225834243189335
  endloop
endfacet
facet normal 0.7725683510854705 -0.6349316049001476 -9.02633092679022e-16
  outer loop
    vertex 2.1088871653226815 -6.220684748854585 3.7355005459136015
    vertex 1.536916105670284 -6.755646648167907 6.225834243189336
    vertex 1.536916105670284 -6.755646648167907 3.7355005459136024
  endloop
endfacet
facet normal 0.9361510750518874 0.35159801574979843 -8.92720667585802e-16
  outer loop
    vertex 2.599635337221906 -3.26109588690475 6.225834243189335
    vertex 2.776940402257869 -4.023918304449864 3.7355005459136015
    vertex 2.599635337221906 -3.26109588690475 3.7355005459136015
  endloop
endfacet
facet normal 0.9952527633971978 0.09732387656809417 -9.986629365617259e-16
  outer loop
    vertex 2.776940402257869 -4.023918304449864 3.7355005459136015
    vertex 2.599635337221906 -3.26109588690475 6.225834243189335
    vertex 2.77694040225788 -4.023918304449864 6.225834243189335
  endloop
endfacet
facet normal 0.9952527633971978 0.09732387656809417 -9.986629365617259e-16
  outer loop
    vertex 2.776940402257869 -4.023918304449864 3.7355005459136015
    vertex 2.750770974016129 -4.806638106053398 6.225834243189335
    vertex 2.7507709740161177 -4.806638106053398 3.735500545913601
  endloop
endfacet
facet normal 0.9865296206499465 -0.16358272396641557 -1.0365479767795028e-15
  outer loop
    vertex 2.750770974016129 -4.806638106053398 6.225834243189335
    vertex 2.776940402257869 -4.023918304449864 3.7355005459136015
    vertex 2.77694040225788 -4.023918304449864 6.225834243189335
  endloop
endfacet
facet normal 0.9105761145726826 -0.4133414321958509 -1.0037939853562803e-15
  outer loop
    vertex 2.522910455784304 -5.555914230741685 3.7355005459136015
    vertex 2.1088871653226815 -6.220684748854585 3.7355005459136015
    vertex 2.3992175687709834 -5.7545199287327975 3.7355005459136
  endloop
endfacet
facet normal 0.7725683510854705 -0.6349316049001476 -9.02633092679022e-16
  outer loop
    vertex 2.1088871653226815 -6.220684748854585 3.7355005459136015
    vertex 2.522910455784304 -5.555914230741685 3.7355005459136015
    vertex 2.522910455784304 -5.555914230741685 6.225834243189335
  endloop
endfacet
facet normal 0.7725683510854705 -0.6349316049001476 -9.02633092679022e-16
  outer loop
    vertex 2.1088871653226815 -6.220684748854585 3.7355005459136015
    vertex 2.522910455784304 -5.555914230741685 6.225834243189335
    vertex 2.108887165322693 -6.220684748854585 6.225834243189335
  endloop
endfacet
facet normal 0.9865296206499465 -0.16358272396641557 -1.0365479767795028e-15
  outer loop
    vertex 2.750770974016129 -4.806638106053398 6.225834243189335
    vertex 2.522910455784304 -5.555914230741685 3.7355005459136015
    vertex 2.7507709740161177 -4.806638106053398 3.735500545913601
  endloop
endfacet
facet normal 0.9105761145726826 -0.4133414321958509 -1.0037939853562803e-15
  outer loop
    vertex 2.522910455784304 -5.555914230741685 3.7355005459136015
    vertex 2.750770974016129 -4.806638106053398 6.225834243189335
    vertex 2.522910455784304 -5.555914230741685 6.225834243189335
  endloop
endfacet
facet normal 1.0 -6.172325283360947e-09 -1.1837564276305406e-40
  outer loop
    vertex 4.263654427999511 19.599999973683325 1.3999999999999997
    vertex 4.263654315663191 1.3999999736833244 8.599331649905341
    vertex 4.263654315663191 1.3999999736833244 1.3999999999999995
  endloop
endfacet
facet normal 1.0 -6.172325283360947e-09 -1.1837564276305406e-40
  outer loop
    vertex 4.263654315663191 1.3999999736833244 8.599331649905341
    vertex 4.263654427999511 19.599999973683325 1.3999999999999997
    vertex 4.263654427999511 19.599999973683325 8.599331649905341
  endloop
endfacet
facet normal 0.8132522380045903 0.5819113312013484 -7.259409604045633e-16
  outer loop
    vertex 2.2309388260799947 -2.5701559405500993 3.7355005459136024
    vertex 2.599635337221906 -3.26109588690475 6.225834243189335
    vertex 2.599635337221906 -3.26109588690475 3.7355005459136015
  endloop
endfacet
facet normal 0.9361510750518874 0.35159801574979843 -8.92720667585802e-16
  outer loop
    vertex 2.599635337221906 -3.26109588690475 6.225834243189335
    vertex 2.2309388260799947 -2.5701559405500993 3.7355005459136024
    vertex 2.2309388260799947 -2.5701559405500993 6.225834243189336
  endloop
endfacet
facet normal -6.172325194955299e-09 -1.0 -7.077280661304442e-17
  outer loop
    vertex 1.013654307021931 -6.256615925348541e-09 9.961334789102946
    vertex 7.499999999999995 -4.629245133891402e-08 -1.5653958587979452e-31
    vertex 7.499999999999995 -4.629245133891402e-08 9.961334789102946
  endloop
endfacet
facet normal -6.172325194955299e-09 -1.0 -7.077280661304442e-17
  outer loop
    vertex 7.499999999999995 -4.629245133891402e-08 -1.5653958587979452e-31
    vertex 1.013654307021931 -6.256615925348541e-09 9.961334789102946
    vertex 1.0136543070219197 -6.256615925348541e-09 -1.5653958587979452e-31
  endloop
endfacet
facet normal 0.4133414321958476 0.910576114572684 -2.58703690154322e-16
  outer loop
    vertex 1.0312064086538055 -1.584161590436095 3.7355005459136037
    vertex 1.6959769267666833 -1.9981848808977298 6.225834243189336
    vertex 1.6959769267666833 -1.9981848808977298 3.735500545913603
  endloop
endfacet
facet normal 0.6349316049001479 0.7725683510854703 -5.096895764459127e-16
  outer loop
    vertex 1.6959769267666833 -1.9981848808977298 6.225834243189336
    vertex 1.0312064086538055 -1.584161590436095 3.7355005459136037
    vertex 1.0312064086538169 -1.584161590436095 6.225834243189338
  endloop
endfacet
facet normal -3.360721522228902e-09 -0.5444823325309346 -0.8387723109173747
  outer loop
    vertex -2.8199664825478975e-15 0.0 -1.5653958587979452e-31
    vertex 0.05946091842898371 -5.754519914291058 3.735500545913603
    vertex -0.9541933885929502 -5.754519908034465 3.7355005459136046
  endloop
endfacet
facet normal -3.360721522228902e-09 -0.5444823325309346 -0.8387723109173747
  outer loop
    vertex 0.05946091842898371 -5.754519914291058 3.735500545913603
    vertex -2.8199664825478975e-15 0.0 -1.5653958587979452e-31
    vertex 1.0136543070219197 -6.256615925348541e-09 -1.5653958587979452e-31
  endloop
endfacet
facet normal 0.634931604900148 0.7725683510854703 -5.096895764459129e-16
  outer loop
    vertex 1.6959769267666833 -1.9981848808977298 3.735500545913603
    vertex 2.2309388260799947 -2.5701559405500993 6.225834243189336
    vertex 2.2309388260799947 -2.5701559405500993 3.7355005459136024
  endloop
endfacet
facet normal 0.8132522380045902 0.5819113312013484 -7.259409604045632e-16
  outer loop
    vertex 2.2309388260799947 -2.5701559405500993 6.225834243189336
    vertex 1.6959769267666833 -1.9981848808977298 3.735500545913603
    vertex 1.6959769267666833 -1.9981848808977298 6.225834243189336
  endloop
endfacet
facet normal 1.0117979708978246e-15 -1.9541990724039635e-16 1.0
  outer loop
    vertex 0.8459761593156379 -7.124343159309818 6.225834243189336
    vertex -0.6995660598329749 -7.275478796103986 6.225834243189338
    vertex 0.0831537417705249 -7.3016482243457475 6.225834243189338
  endloop
endfacet
facet normal 1.0117979708978246e-15 -1.9541990724039635e-16 1.0
  outer loop
    vertex -0.6995660598329749 -7.275478796103986 6.225834243189338
    vertex 0.8459761593156379 -7.124343159309818 6.225834243189336
    vertex -1.4488421845212631 -7.047618277872195 6.22583424318934
  endloop
endfacet
facet normal 1.0117979708978246e-15 -1.9541990724039635e-16 1.0
  outer loop
    vertex -1.4488421845212631 -7.047618277872195 6.22583424318934
    vertex 0.8459761593156379 -7.124343159309818 6.225834243189336
    vertex 1.536916105670284 -6.755646648167907 6.225834243189336
  endloop
endfacet
facet normal 1.0117979708978246e-15 -1.9541990724039635e-16 1.0
  outer loop
    vertex -1.4488421845212631 -7.047618277872195 6.22583424318934
    vertex 1.536916105670284 -6.755646648167907 6.225834243189336
    vertex -2.113612702634162 -6.633594987410549 6.22583424318934
  endloop
endfacet
facet normal 1.0117979708978246e-15 -1.9541990724039635e-16 1.0
  outer loop
    vertex -2.113612702634162 -6.633594987410549 6.22583424318934
    vertex 1.536916105670284 -6.755646648167907 6.225834243189336
    vertex 2.108887165322693 -6.220684748854585 6.225834243189335
  endloop
endfacet
facet normal 1.0117979708978246e-15 -1.9541990724039635e-16 1.0
  outer loop
    vertex -2.113612702634162 -6.633594987410549 6.22583424318934
    vertex 2.108887165322693 -6.220684748854585 6.225834243189335
    vertex -2.648574601947531 -6.061623927758192 6.2258342431893405
  endloop
endfacet
facet normal 1.0117979708978246e-15 -1.9541990724039635e-16 1.0
  outer loop
    vertex -2.648574601947531 -6.061623927758192 6.2258342431893405
    vertex 2.108887165322693 -6.220684748854585 6.225834243189335
    vertex 2.522910455784304 -5.555914230741685 6.225834243189335
  endloop
endfacet
facet normal 1.0117979708978246e-15 -1.9541990724039635e-16 1.0
  outer loop
    vertex -2.648574601947531 -6.061623927758192 6.2258342431893405
    vertex 2.522910455784304 -5.555914230741685 6.225834243189335
    vertex 0.05946091842898371 -5.754519914291058 6.22583424318934
  endloop
endfacet
facet normal 1.0117979708978246e-15 -1.9541990724039635e-16 1.0
  outer loop
    vertex -2.648574601947531 -6.061623927758192 6.2258342431893405
    vertex 0.05946091842898371 -5.754519914291058 6.22583424318934
    vertex -0.9541933885929502 -5.754519908034465 6.2258342431893405
  endloop
endfacet
facet normal 1.0117979708978246e-15 -1.9541990724039635e-16 1.0
  outer loop
    vertex 0.05946091842898371 -5.754519914291058 6.22583424318934
    vertex 2.522910455784304 -5.555914230741685 6.225834243189335
    vertex 0.7644270572043255 -1.5030319784387662 6.225834243189338
  endloop
endfacet
facet normal 1.0117979708978246e-15 -1.9541990724039635e-16 1.0
  outer loop
    vertex 0.7644270572043255 -1.5030319784387662 6.225834243189338
    vertex 2.522910455784304 -5.555914230741685 6.225834243189335
    vertex 2.750770974016129 -4.806638106053398 6.225834243189335
  endloop
endfacet
facet normal 1.0117979708978246e-15 -1.9541990724039635e-16 1.0
  outer loop
    vertex 0.7644270572043255 -1.5030319784387662 6.225834243189338
    vertex 2.750770974016129 -4.806638106053398 6.225834243189335
    vertex 2.77694040225788 -4.023918304449864 6.225834243189335
  endloop
endfacet
facet normal 1.0117979708978246e-15 -1.9541990724039635e-16 1.0
  outer loop
    vertex 0.7644270572043255 -1.5030319784387662 6.225834243189338
    vertex 2.77694040225788 -4.023918304449864 6.225834243189335
    vertex 2.599635337221906 -3.26109588690475 6.225834243189335
  endloop
endfacet
facet normal 1.0117979708978246e-15 -1.9541990724039635e-16 1.0
  outer loop
    vertex 0.7644270572043255 -1.5030319784387662 6.225834243189338
    vertex 2.599635337221906 -3.26109588690475 6.225834243189335
    vertex 2.2309388260799947 -2.5701559405500993 6.225834243189336
  endloop
endfacet
facet normal 1.0117979708978246e-15 -1.9541990724039635e-16 1.0
  outer loop
    vertex 0.7644270572043255 -1.5030319784387662 6.225834243189338
    vertex 2.2309388260799947 -2.5701559405500993 6.225834243189336
    vertex 1.6959769267666833 -1.9981848808977298 6.225834243189336
  endloop
endfacet
facet normal 1.0117979708978246e-15 -1.9541990724039635e-16 1.0
  outer loop
    vertex 0.7644270572043255 -1.5030319784387662 6.225834243189338
    vertex 1.6959769267666833 -1.9981848808977298 6.225834243189336
    vertex 1.0312064086538169 -1.584161590436095 6.225834243189338
  endloop
endfacet
facet normal 1.0117979708978246e-15 -1.9541990724039635e-16 1.0
  outer loop
    vertex -0.9541933885929502 -5.754519908034465 6.2258342431893405
    vertex -3.0172711130893854 -5.37068398140354 6.2258342431893405
    vertex -2.648574601947531 -6.061623927758192 6.2258342431893405
  endloop
endfacet
facet normal 1.0117979708978246e-15 -1.9541990724039635e-16 1.0
  outer loop
    vertex -3.0172711130893854 -5.37068398140354 6.2258342431893405
    vertex -0.9541933885929502 -5.754519908034465 6.2258342431893405
    vertex -0.22210256344565665 -1.3394492544723513 6.22583424318934
  endloop
endfacet
facet normal 1.0117979708978246e-15 -1.9541990724039635e-16 1.0
  outer loop
    vertex -3.0172711130893854 -5.37068398140354 6.2258342431893405
    vertex -0.22210256344565665 -1.3394492544723513 6.22583424318934
    vertex -3.1945761781253257 -4.607861563858427 6.2258342431893405
  endloop
endfacet
facet normal 1.0117979708978246e-15 -1.9541990724039635e-16 1.0
  outer loop
    vertex -3.1945761781253257 -4.607861563858427 6.2258342431893405
    vertex -0.22210256344565665 -1.3394492544723513 6.22583424318934
    vertex -3.168406749883608 -3.8251417622548933 6.225834243189342
  endloop
endfacet
facet normal 1.0117979708978246e-15 -1.9541990724039635e-16 1.0
  outer loop
    vertex -3.168406749883608 -3.8251417622548933 6.225834243189342
    vertex -0.22210256344565665 -1.3394492544723513 6.22583424318934
    vertex -2.9405462316517723 -3.075865637566594 6.2258342431893405
  endloop
endfacet
facet normal 1.0117979708978246e-15 -1.9541990724039635e-16 1.0
  outer loop
    vertex -2.9405462316517723 -3.075865637566594 6.2258342431893405
    vertex -0.22210256344565665 -1.3394492544723513 6.22583424318934
    vertex -2.5265229411901724 -2.4110951194536945 6.2258342431893405
  endloop
endfacet
facet normal 1.0117979708978246e-15 -1.9541990724039635e-16 1.0
  outer loop
    vertex -2.5265229411901724 -2.4110951194536945 6.2258342431893405
    vertex -0.22210256344565665 -1.3394492544723513 6.22583424318934
    vertex -1.954551881537791 -1.8761332201403713 6.2258342431893405
  endloop
endfacet
facet normal 1.0117979708978246e-15 -1.9541990724039635e-16 1.0
  outer loop
    vertex -1.954551881537791 -1.8761332201403713 6.2258342431893405
    vertex -0.22210256344565665 -1.3394492544723513 6.22583424318934
    vertex -1.2636119351831292 -1.5074367089984828 6.22583424318934
  endloop
endfacet
facet normal 1.0117979708978246e-15 -1.9541990724039635e-16 1.0
  outer loop
    vertex -1.2636119351831292 -1.5074367089984828 6.22583424318934
    vertex -0.22210256344565665 -1.3394492544723513 6.22583424318934
    vertex -0.5007895176380036 -1.3301316439625537 6.22583424318934
  endloop
endfacet
facet normal 6.172325303643866e-09 1.0 0.0
  outer loop
    vertex 4.263654315663191 1.3999999736833244 1.3999999999999995
    vertex 7.500000008641249 1.399999953707546 8.599331649905341
    vertex 7.500000008641249 1.399999953707546 1.3999999999999995
  endloop
endfacet
facet normal 6.172325303643866e-09 1.0 0.0
  outer loop
    vertex 7.500000008641249 1.399999953707546 8.599331649905341
    vertex 4.263654315663191 1.3999999736833244 1.3999999999999995
    vertex 4.263654315663191 1.3999999736833244 8.599331649905341
  endloop
endfacet
facet normal 5.974149620388025e-16 6.174832634298593e-17 -1.0
  outer loop
    vertex 4.244157725916527 25.595534845027903 8.599331649905341
    vertex 4.263654427999511 19.599999973683325 8.599331649905341
    vertex 3.250000120977566 19.59999997993993 8.599331649905341
  endloop
endfacet
facet normal 5.974149620388025e-16 6.174832634298593e-17 -1.0
  outer loop
    vertex 4.263654427999511 19.599999973683325 8.599331649905341
    vertex 4.244157725916527 25.595534845027903 8.599331649905341
    vertex 5.751076843263503 25.51374347678809 8.599331649905341
  endloop
endfacet
facet normal 5.974149620388025e-16 6.174832634298593e-17 -1.0
  outer loop
    vertex 4.263654427999511 19.599999973683325 8.599331649905341
    vertex 7.500000008641249 1.399999953707546 8.599331649905341
    vertex 4.263654315663191 1.3999999736833244 8.599331649905341
  endloop
endfacet
facet normal 5.974149620388025e-16 6.174832634298593e-17 -1.0
  outer loop
    vertex 7.500000008641249 1.399999953707546 8.599331649905341
    vertex 4.263654427999511 19.599999973683325 8.599331649905341
    vertex 7.500000095053769 15.399999953707555 8.599331649905341
  endloop
endfacet
facet normal 5.974149620388025e-16 6.174832634298593e-17 -1.0
  outer loop
    vertex 7.500000095053769 15.399999953707555 8.599331649905341
    vertex 4.263654427999511 19.599999973683325 8.599331649905341
    vertex 7.474023695824583 15.874321167825292 8.599331649905343
  endloop
endfacet
facet normal 5.974149620388025e-16 6.174832634298593e-17 -1.0
  outer loop
    vertex 7.474023695824583 15.874321167825292 8.599331649905343
    vertex 4.263654427999511 19.599999973683325 8.599331649905341
    vertex 7.396405199421599 16.342968963611412 8.599331649905343
  endloop
endfacet
facet normal 5.974149620388025e-16 6.174832634298593e-17 -1.0
  outer loop
    vertex 7.396405199421599 16.342968963611412 8.599331649905343
    vertex 4.263654427999511 19.599999973683325 8.599331649905341
    vertex 7.268073010926097 16.80033778291919 8.599331649905343
  endloop
endfacet
facet normal 5.974149620388025e-16 6.174832634298593e-17 -1.0
  outer loop
    vertex 7.268073010926097 16.80033778291919 8.599331649905343
    vertex 4.263654427999511 19.599999973683325 8.599331649905341
    vertex 7.090562128584314 17.240956976928352 8.599331649905345
  endloop
endfacet
facet normal 5.974149620388025e-16 6.174832634298593e-17 -1.0
  outer loop
    vertex 7.090562128584314 17.240956976928352 8.599331649905345
    vertex 4.263654427999511 19.599999973683325 8.599331649905341
    vertex 6.865995783491363 17.659556241297796 8.599331649905345
  endloop
endfacet
facet normal 5.974149620388025e-16 6.174832634298593e-17 -1.0
  outer loop
    vertex 6.865995783491363 17.659556241297796 8.599331649905345
    vertex 4.263654427999511 19.599999973683325 8.599331649905341
    vertex 6.597060043343582 18.051128654971425 8.599331649905345
  endloop
endfacet
facet normal 5.974149620388025e-16 6.174832634298593e-17 -1.0
  outer loop
    vertex 6.597060043343582 18.051128654971425 8.599331649905345
    vertex 4.263654427999511 19.599999973683325 8.599331649905341
    vertex 6.286971684028247 18.410990568621937 8.599331649905345
  endloop
endfacet
facet normal 5.974149620388025e-16 6.174832634298593e-17 -1.0
  outer loop
    vertex 6.286971684028247 18.410990568621937 8.599331649905345
    vertex 4.263654427999511 19.599999973683325 8.599331649905341
    vertex 5.939439713342792 18.73483762639847 8.599331649905343
  endloop
endfacet
facet normal 5.974149620388025e-16 6.174832634298593e-17 -1.0
  outer loop
    vertex 5.939439713342792 18.73483762639847 8.599331649905343
    vertex 4.263654427999511 19.599999973683325 8.599331649905341
    vertex 5.558621007062611 19.018796250895246 8.599331649905343
  endloop
endfacet
facet normal 5.974149620388025e-16 6.174832634298593e-17 -1.0
  outer loop
    vertex 5.558621007062611 19.018796250895246 8.599331649905343
    vertex 4.263654427999511 19.599999973683325 8.599331649905341
    vertex 5.149070588001387 19.259469975522293 8.599331649905343
  endloop
endfacet
facet normal 5.974149620388025e-16 6.174832634298593e-17 -1.0
  outer loop
    vertex 5.149070588001387 19.259469975522293 8.599331649905343
    vertex 4.263654427999511 19.599999973683325 8.599331649905341
    vertex 4.756919237813789 19.435474382362077 8.599331649905348
  endloop
endfacet
facet normal 5.974149620388025e-16 6.174832634298593e-17 -1.0
  outer loop
    vertex 4.756919237813789 19.435474382362077 8.599331649905348
    vertex 4.263654427999511 19.599999973683325 8.599331649905341
    vertex 4.756919238324464 19.518208611700114 8.599331649905341
  endloop
endfacet
facet normal 5.974149620388025e-16 6.174832634298593e-17 -1.0
  outer loop
    vertex 4.756919238324464 19.518208611700114 8.599331649905341
    vertex 4.263654427999511 19.599999973683325 8.599331649905341
    vertex 5.751076843263503 25.51374347678809 8.599331649905341
  endloop
endfacet
facet normal 0.4133414321958476 0.910576114572684 -2.58703690154322e-16
  outer loop
    vertex 1.0312064086538055 -1.584161590436095 3.7355005459136037
    vertex 0.7644270572043255 -1.5030319784387662 6.225834243189338
    vertex 1.0312064086538169 -1.584161590436095 6.225834243189338
  endloop
endfacet
facet normal 0.2909512059817642 0.9567378929141237 -1.2546903754000106e-16
  outer loop
    vertex 0.7644270572043255 -1.5030319784387662 6.225834243189338
    vertex 1.0312064086538055 -1.584161590436095 3.7355005459136037
    vertex 0.7644270572043143 -1.5030319784387662 3.7355005459136037
  endloop
endfacet
facet normal -3.3607215222289015e-09 -0.5444823325309345 0.8387723109173747
  outer loop
    vertex 0.05946091842898371 -5.754519914291058 6.22583424318934
    vertex -2.8199664825478975e-15 0.0 9.961334789102946
    vertex -0.9541933885929502 -5.754519908034465 6.2258342431893405
  endloop
endfacet
facet normal -3.3607215222289015e-09 -0.5444823325309345 0.8387723109173747
  outer loop
    vertex -2.8199664825478975e-15 0.0 9.961334789102946
    vertex 0.05946091842898371 -5.754519914291058 6.22583424318934
    vertex 1.013654307021931 -6.256615925348541e-09 9.961334789102946
  endloop
endfacet
facet normal -0.9865296206499463 0.16358272396641751 9.16106299984304e-18
  outer loop
    vertex -0.3352926601438219 16.317272352853113 1.3999999999999988
    vertex 0.08184328597054698 18.832922885510452 1.4099832412739485e-15
    vertex -0.3352926601438219 16.317272352853113 7.049916206369742e-16
  endloop
endfacet
facet normal -0.9865296206499463 0.16358272396641751 9.16106299984304e-18
  outer loop
    vertex 0.08184328597054698 18.832922885510452 1.4099832412739485e-15
    vertex -0.3352926601438219 16.317272352853113 1.3999999999999988
    vertex 0.08184328597054698 18.832922885510452 1.3999999999999988
  endloop
endfacet
facet normal -0.9865296206499461 0.16358272396641893 2.277491652951645e-18
  outer loop
    vertex -0.3352926601439121 16.31727235285318 8.599331649905334
    vertex 0.08184328597045674 18.832922885510545 9.961334789102938
    vertex 0.08184328597045674 18.832922885510545 8.599331649905332
  endloop
endfacet
facet normal -0.9865296206499461 0.16358272396641893 2.277491652951645e-18
  outer loop
    vertex 0.08184328597045674 18.832922885510545 9.961334789102938
    vertex -0.3352926601439121 16.31727235285318 8.599331649905334
    vertex -0.3352926601439121 16.31727235285318 9.961334789102938
  endloop
endfacet
facet normal -0.23532158894824434 0.9719175632608322 -3.715140351872059e-17
  outer loop
    vertex 0.08184328597054698 18.832922885510452 1.4099832412739485e-15
    vertex 3.250000120977566 19.59999997993993 1.3999999999999988
    vertex 3.250000120977566 19.59999997993993 2.0832622871788995e-16
  endloop
endfacet
facet normal -0.23532158894824434 0.9719175632608322 -3.715140351872059e-17
  outer loop
    vertex 3.250000120977566 19.59999997993993 1.3999999999999988
    vertex 0.08184328597054698 18.832922885510452 1.4099832412739485e-15
    vertex 3.250000120977566 19.59999997993993 3.199832912476334
  endloop
endfacet
facet normal -0.23532158894824434 0.9719175632608322 -3.715140351872059e-17
  outer loop
    vertex 3.250000120977566 19.59999997993993 3.199832912476334
    vertex 0.08184328597054698 18.832922885510452 1.4099832412739485e-15
    vertex 0.08184328597054698 18.832922885510452 1.3999999999999988
  endloop
endfacet
facet normal -0.5364220661321346 -0.8439498604576768 -5.562004806039423e-16
  outer loop
    vertex -0.3352926601438219 16.317272352853113 1.3999999999999988
    vertex 2.4157282287487956 14.5686989146252 2.5366832590088625e-16
    vertex 2.4157282287487956 14.5686989146252 3.199832912476334
  endloop
endfacet
facet normal -0.5364220661321346 -0.8439498604576768 -5.562004806039423e-16
  outer loop
    vertex 2.4157282287487956 14.5686989146252 2.5366832590088625e-16
    vertex -0.3352926601438219 16.317272352853113 1.3999999999999988
    vertex -0.3352926601438219 16.317272352853113 7.049916206369742e-16
  endloop
endfacet
facet normal -1.0818164175662203e-15 6.302605613851803e-17 1.0
  outer loop
    vertex 7.500000095053769 15.399999953707555 9.961334789102946
    vertex 1.013654307021931 -6.256615925348541e-09 9.961334789102946
    vertex 7.499999999999995 -4.629245133891402e-08 9.961334789102946
  endloop
endfacet
facet normal -1.0818164175662203e-15 6.302605613851803e-17 1.0
  outer loop
    vertex 1.013654307021931 -6.256615925348541e-09 9.961334789102946
    vertex 7.500000095053769 15.399999953707555 9.961334789102946
    vertex -2.8199664825478975e-15 0.0 9.961334789102946
  endloop
endfacet
facet normal -1.0818164175662203e-15 6.302605613851803e-17 1.0
  outer loop
    vertex -2.8199664825478975e-15 0.0 9.961334789102946
    vertex 7.500000095053769 15.399999953707555 9.961334789102946
    vertex 2.4157282287487956 14.5686989146252 9.961334789102946
  endloop
endfacet
facet normal -1.0818164175662203e-15 6.302605613851803e-17 1.0
  outer loop
    vertex 2.4157282287487956 14.5686989146252 9.961334789102946
    vertex 7.500000095053769 15.399999953707555 9.961334789102946
    vertex -0.3352926601439121 16.31727235285318 9.961334789102938
  endloop
endfacet
facet normal -1.0818164175662203e-15 6.302605613851803e-17 1.0
  outer loop
    vertex -0.3352926601439121 16.31727235285318 9.961334789102938
    vertex 7.500000095053769 15.399999953707555 9.961334789102946
    vertex 7.474023695824583 15.874321167825292 9.961334789102947
  endloop
endfacet
facet normal -1.0818164175662203e-15 6.302605613851803e-17 1.0
  outer loop
    vertex -0.3352926601439121 16.31727235285318 9.961334789102938
    vertex 7.474023695824583 15.874321167825292 9.961334789102947
    vertex 7.396405199421599 16.342968963611412 9.96133478910295
  endloop
endfacet
facet normal -1.0818164175662203e-15 6.302605613851803e-17 1.0
  outer loop
    vertex -0.3352926601439121 16.31727235285318 9.961334789102938
    vertex 7.396405199421599 16.342968963611412 9.96133478910295
    vertex 0.08184328597045674 18.832922885510545 9.961334789102938
  endloop
endfacet
facet normal -1.0818164175662203e-15 6.302605613851803e-17 1.0
  outer loop
    vertex 0.08184328597045674 18.832922885510545 9.961334789102938
    vertex 7.396405199421599 16.342968963611412 9.96133478910295
    vertex 7.268073010926097 16.80033778291919 9.96133478910295
  endloop
endfacet
facet normal -1.0818164175662203e-15 6.302605613851803e-17 1.0
  outer loop
    vertex 0.08184328597045674 18.832922885510545 9.961334789102938
    vertex 7.268073010926097 16.80033778291919 9.96133478910295
    vertex 7.090562128584314 17.240956976928352 9.961334789102951
  endloop
endfacet
facet normal -1.0818164175662203e-15 6.302605613851803e-17 1.0
  outer loop
    vertex 0.08184328597045674 18.832922885510545 9.961334789102938
    vertex 7.090562128584314 17.240956976928352 9.961334789102951
    vertex 6.865995783491363 17.659556241297796 9.961334789102951
  endloop
endfacet
facet normal -1.0818164175662203e-15 6.302605613851803e-17 1.0
  outer loop
    vertex 0.08184328597045674 18.832922885510545 9.961334789102938
    vertex 6.865995783491363 17.659556241297796 9.961334789102951
    vertex 6.597060043343582 18.051128654971425 9.961334789102951
  endloop
endfacet
facet normal -1.0818164175662203e-15 6.302605613851803e-17 1.0
  outer loop
    vertex 0.08184328597045674 18.832922885510545 9.961334789102938
    vertex 6.597060043343582 18.051128654971425 9.961334789102951
    vertex 6.286971684028247 18.410990568621937 9.961334789102951
  endloop
endfacet
facet normal -1.0818164175662203e-15 6.302605613851803e-17 1.0
  outer loop
    vertex 0.08184328597045674 18.832922885510545 9.961334789102938
    vertex 6.286971684028247 18.410990568621937 9.961334789102951
    vertex 5.939439713342792 18.73483762639847 9.96133478910295
  endloop
endfacet
facet normal -1.0818164175662203e-15 6.302605613851803e-17 1.0
  outer loop
    vertex 0.08184328597045674 18.832922885510545 9.961334789102938
    vertex 5.939439713342792 18.73483762639847 9.96133478910295
    vertex 5.558621007062611 19.018796250895246 9.96133478910295
  endloop
endfacet
facet normal -1.0818164175662203e-15 6.302605613851803e-17 1.0
  outer loop
    vertex 0.08184328597045674 18.832922885510545 9.961334789102938
    vertex 5.558621007062611 19.018796250895246 9.96133478910295
    vertex 3.2500001209775777 19.59999997993993 9.961334789102946
  endloop
endfacet
facet normal -1.0818164175662203e-15 6.302605613851803e-17 1.0
  outer loop
    vertex 3.2500001209775777 19.59999997993993 9.961334789102946
    vertex 5.558621007062611 19.018796250895246 9.96133478910295
    vertex 5.149070588001387 19.259469975522293 9.961334789102947
  endloop
endfacet
facet normal -1.0818164175662203e-15 6.302605613851803e-17 1.0
  outer loop
    vertex 3.2500001209775777 19.59999997993993 9.961334789102946
    vertex 5.149070588001387 19.259469975522293 9.961334789102947
    vertex 4.756919237813789 19.4354743823621 9.961334789102946
  endloop
endfacet
facet normal -1.0818164175662203e-15 6.302605613851803e-17 1.0
  outer loop
    vertex 3.2500001209775777 19.59999997993993 9.961334789102946
    vertex 4.756919237813789 19.4354743823621 9.961334789102946
    vertex 4.7569192383244525 19.518208611700114 9.961334789102946
  endloop
endfacet
facet normal -1.0818164175662203e-15 6.302605613851803e-17 1.0
  outer loop
    vertex 3.2500001209775777 19.59999997993993 9.961334789102946
    vertex 4.7569192383244525 19.518208611700114 9.961334789102946
    vertex 5.751076843263491 25.51374347678809 9.961334789102946
  endloop
endfacet
facet normal -1.0818164175662203e-15 6.302605613851803e-17 1.0
  outer loop
    vertex 3.2500001209775777 19.59999997993993 9.961334789102946
    vertex 5.751076843263491 25.51374347678809 9.961334789102946
    vertex 4.244157725916527 25.595534845027903 9.961334789102946
  endloop
endfacet
facet normal -0.5364220661321354 -0.8439498604576762 1.0557905258668852e-15
  outer loop
    vertex -0.3352926601439121 16.31727235285318 9.961334789102938
    vertex 2.415728228748784 14.5686989146252 6.799498737429008
    vertex 2.4157282287487956 14.5686989146252 9.961334789102946
  endloop
endfacet
facet normal -0.5364220661321354 -0.8439498604576762 1.0557905258668852e-15
  outer loop
    vertex 2.415728228748784 14.5686989146252 6.799498737429008
    vertex -0.3352926601439121 16.31727235285318 9.961334789102938
    vertex -0.3352926601439121 16.31727235285318 8.599331649905334
  endloop
endfacet
facet normal -0.5075306574298282 0.08415687243545758 -0.8575139955655119
  outer loop
    vertex -0.3352926601439121 16.31727235285318 8.599331649905334
    vertex 3.250000120977566 19.59999997993993 6.799498737429006
    vertex 2.415728228748784 14.5686989146252 6.799498737429008
  endloop
endfacet
facet normal -0.5075306574298282 0.08415687243545758 -0.8575139955655119
  outer loop
    vertex 3.250000120977566 19.59999997993993 6.799498737429006
    vertex -0.3352926601439121 16.31727235285318 8.599331649905334
    vertex 0.08184328597045674 18.832922885510545 8.599331649905332
  endloop
endfacet
facet normal -0.5075306574298422 0.0841568724354593 0.8575139955655033
  outer loop
    vertex 3.250000120977566 19.59999997993993 3.199832912476334
    vertex -0.3352926601438219 16.317272352853113 1.3999999999999988
    vertex 2.4157282287487956 14.5686989146252 3.199832912476334
  endloop
endfacet
facet normal -0.5075306574298422 0.0841568724354593 0.8575139955655033
  outer loop
    vertex -0.3352926601438219 16.317272352853113 1.3999999999999988
    vertex 3.250000120977566 19.59999997993993 3.199832912476334
    vertex 0.08184328597054698 18.832922885510452 1.3999999999999988
  endloop
endfacet
facet normal -2.400507029700025e-16 6.987357507547696e-19 1.0
  outer loop
    vertex 7.500000095053769 15.399999953707555 1.4
    vertex 4.263654315663191 1.3999999736833244 1.3999999999999995
    vertex 7.500000008641249 1.399999953707546 1.3999999999999995
  endloop
endfacet
facet normal -2.400507029700025e-16 6.987357507547696e-19 1.0
  outer loop
    vertex 4.263654315663191 1.3999999736833244 1.3999999999999995
    vertex 7.500000095053769 15.399999953707555 1.4
    vertex 4.263654427999511 19.599999973683325 1.3999999999999997
  endloop
endfacet
facet normal -2.400507029700025e-16 6.987357507547696e-19 1.0
  outer loop
    vertex 4.263654427999511 19.599999973683325 1.3999999999999997
    vertex 7.500000095053769 15.399999953707555 1.4
    vertex 7.474023695824583 15.874321167825292 1.4000000000000001
  endloop
endfacet
facet normal -2.400507029700025e-16 6.987357507547696e-19 1.0
  outer loop
    vertex 4.263654427999511 19.599999973683325 1.3999999999999997
    vertex 7.474023695824583 15.874321167825292 1.4000000000000001
    vertex 7.396405199421599 16.342968963611412 1.4000000000000001
  endloop
endfacet
facet normal -2.400507029700025e-16 6.987357507547696e-19 1.0
  outer loop
    vertex 4.263654427999511 19.599999973683325 1.3999999999999997
    vertex 7.396405199421599 16.342968963611412 1.4000000000000001
    vertex 7.268073010926097 16.80033778291919 1.4000000000000004
  endloop
endfacet
facet normal -2.400507029700025e-16 6.987357507547696e-19 1.0
  outer loop
    vertex 4.263654427999511 19.599999973683325 1.3999999999999997
    vertex 7.268073010926097 16.80033778291919 1.4000000000000004
    vertex 7.090562128584314 17.24095697692833 1.4000000000000004
  endloop
endfacet
facet normal -2.400507029700025e-16 6.987357507547696e-19 1.0
  outer loop
    vertex 4.263654427999511 19.599999973683325 1.3999999999999997
    vertex 7.090562128584314 17.24095697692833 1.4000000000000004
    vertex 6.865995783491363 17.659556241297796 1.4000000000000004
  endloop
endfacet
facet normal -2.400507029700025e-16 6.987357507547696e-19 1.0
  outer loop
    vertex 4.263654427999511 19.599999973683325 1.3999999999999997
    vertex 6.865995783491363 17.659556241297796 1.4000000000000004
    vertex 6.597060043343582 18.051128654971425 1.4000000000000004
  endloop
endfacet
facet normal -2.400507029700025e-16 6.987357507547696e-19 1.0
  outer loop
    vertex 4.263654427999511 19.599999973683325 1.3999999999999997
    vertex 6.597060043343582 18.051128654971425 1.4000000000000004
    vertex 6.286971684028247 18.410990568621937 1.4000000000000004
  endloop
endfacet
facet normal -2.400507029700025e-16 6.987357507547696e-19 1.0
  outer loop
    vertex 4.263654427999511 19.599999973683325 1.3999999999999997
    vertex 6.286971684028247 18.410990568621937 1.4000000000000004
    vertex 5.939439713342792 18.73483762639847 1.4000000000000004
  endloop
endfacet
facet normal -2.400507029700025e-16 6.987357507547696e-19 1.0
  outer loop
    vertex 4.263654427999511 19.599999973683325 1.3999999999999997
    vertex 5.939439713342792 18.73483762639847 1.4000000000000004
    vertex 5.558621007062611 19.018796250895246 1.4000000000000001
  endloop
endfacet
facet normal -2.400507029700025e-16 6.987357507547696e-19 1.0
  outer loop
    vertex 4.263654427999511 19.599999973683325 1.3999999999999997
    vertex 5.558621007062611 19.018796250895246 1.4000000000000001
    vertex 5.149070588001399 19.259469975522293 1.4000000000000001
  endloop
endfacet
facet normal -2.400507029700025e-16 6.987357507547696e-19 1.0
  outer loop
    vertex 4.263654427999511 19.599999973683325 1.3999999999999997
    vertex 5.149070588001399 19.259469975522293 1.4000000000000001
    vertex 4.7569192378138005 19.4354743823621 1.4
  endloop
endfacet
facet normal -2.400507029700025e-16 6.987357507547696e-19 1.0
  outer loop
    vertex 4.263654427999511 19.599999973683325 1.3999999999999997
    vertex 4.7569192378138005 19.4354743823621 1.4
    vertex 4.756919238324464 19.518208611700114 1.3999999999999997
  endloop
endfacet
facet normal -2.400507029700025e-16 6.987357507547696e-19 1.0
  outer loop
    vertex 4.263654427999511 19.599999973683325 1.3999999999999997
    vertex 4.756919238324464 19.518208611700114 1.3999999999999997
    vertex 5.751076843263491 25.51374347678809 1.3999999999999995
  endloop
endfacet
facet normal -2.400507029700025e-16 6.987357507547696e-19 1.0
  outer loop
    vertex 4.263654427999511 19.599999973683325 1.3999999999999997
    vertex 5.751076843263491 25.51374347678809 1.3999999999999995
    vertex 3.250000120977566 19.59999997993993 1.3999999999999988
  endloop
endfacet
facet normal -2.400507029700025e-16 6.987357507547696e-19 1.0
  outer loop
    vertex 3.250000120977566 19.59999997993993 1.3999999999999988
    vertex 5.751076843263491 25.51374347678809 1.3999999999999995
    vertex 4.244157725916527 25.595534845027903 1.399999999999999
  endloop
endfacet
facet normal 6.172324422791523e-09 1.0 -2.6550756197305155e-26
  outer loop
    vertex 3.250000120977566 19.59999997993993 1.3999999999999988
    vertex 4.263654427999511 19.599999973683325 8.599331649905341
    vertex 4.263654427999511 19.599999973683325 1.3999999999999997
  endloop
endfacet
facet normal 6.172324422791523e-09 1.0 -2.6550756197305155e-26
  outer loop
    vertex 4.263654427999511 19.599999973683325 8.599331649905341
    vertex 3.250000120977566 19.59999997993993 1.3999999999999988
    vertex 3.250000120977566 19.59999997993993 8.599331649905341
  endloop
endfacet
facet normal 6.172324422791523e-09 1.0 -2.6550756197305155e-26
  outer loop
    vertex 3.250000120977566 19.59999997993993 8.599331649905341
    vertex 3.250000120977566 19.59999997993993 1.3999999999999988
    vertex 3.250000120977566 19.59999997993993 3.199832912476334
  endloop
endfacet
facet normal 6.172324422791523e-09 1.0 -2.6550756197305155e-26
  outer loop
    vertex 3.250000120977566 19.59999997993993 8.599331649905341
    vertex 3.250000120977566 19.59999997993993 3.199832912476334
    vertex 3.250000120977566 19.59999997993993 6.799498737429006
  endloop
endfacet
facet normal -0.23532158894821661 0.971917563260839 3.2469280303181225e-16
  outer loop
    vertex 0.08184328597045674 18.832922885510545 8.599331649905332
    vertex 3.250000120977566 19.59999997993993 8.599331649905341
    vertex 3.250000120977566 19.59999997993993 6.799498737429006
  endloop
endfacet
facet normal -0.23532158894821661 0.971917563260839 3.2469280303181225e-16
  outer loop
    vertex 3.250000120977566 19.59999997993993 8.599331649905341
    vertex 0.08184328597045674 18.832922885510545 9.961334789102938
    vertex 3.2500001209775777 19.59999997993993 9.961334789102946
  endloop
endfacet
facet normal -0.23532158894821661 0.971917563260839 3.2469280303181225e-16
  outer loop
    vertex 0.08184328597045674 18.832922885510545 9.961334789102938
    vertex 3.250000120977566 19.59999997993993 8.599331649905341
    vertex 0.08184328597045674 18.832922885510545 8.599331649905332
  endloop
endfacet
facet normal 0.9865296206499465 -0.16358272396641685 -2.1395872875194416e-17
  outer loop
    vertex 1.0136543070219197 -6.256615925348541e-09 -1.5653958587979452e-31
    vertex 0.7644270572043143 -1.5030319784387662 3.7355005459136037
    vertex 0.05946091842898371 -5.754519914291058 3.735500545913603
  endloop
endfacet
facet normal 0.9865296206499465 -0.16358272396641685 -2.1395872875194416e-17
  outer loop
    vertex 0.7644270572043143 -1.5030319784387662 3.7355005459136037
    vertex 1.0136543070219197 -6.256615925348541e-09 -1.5653958587979452e-31
    vertex 1.013654307021931 -6.256615925348541e-09 9.961334789102946
  endloop
endfacet
facet normal 0.9865296206499465 -0.16358272396641685 -2.1395872875194416e-17
  outer loop
    vertex 0.7644270572043143 -1.5030319784387662 3.7355005459136037
    vertex 1.013654307021931 -6.256615925348541e-09 9.961334789102946
    vertex 0.7644270572043255 -1.5030319784387662 6.225834243189338
  endloop
endfacet
facet normal 0.9865296206499465 -0.16358272396641685 -2.1395872875194416e-17
  outer loop
    vertex 0.7644270572043255 -1.5030319784387662 6.225834243189338
    vertex 1.013654307021931 -6.256615925348541e-09 9.961334789102946
    vertex 0.05946091842898371 -5.754519914291058 6.22583424318934
  endloop
endfacet
facet normal -0.9865296206499465 0.16358272396641685 -8.431006881710442e-18
  outer loop
    vertex -0.9541933885929502 -5.754519908034465 3.7355005459136046
    vertex 2.4157282287487956 14.5686989146252 2.5366832590088625e-16
    vertex -2.8199664825478975e-15 0.0 -1.5653958587979452e-31
  endloop
endfacet
facet normal -0.9865296206499465 0.16358272396641685 -8.431006881710442e-18
  outer loop
    vertex 2.4157282287487956 14.5686989146252 2.5366832590088625e-16
    vertex -0.9541933885929502 -5.754519908034465 3.7355005459136046
    vertex 2.4157282287487956 14.5686989146252 3.199832912476334
  endloop
endfacet
facet normal -0.9865296206499465 0.16358272396641685 -8.431006881710442e-18
  outer loop
    vertex 2.4157282287487956 14.5686989146252 3.199832912476334
    vertex -0.9541933885929502 -5.754519908034465 3.7355005459136046
    vertex 3.250000120977566 19.59999997993993 3.199832912476334
  endloop
endfacet
facet normal -0.9865296206499465 0.16358272396641685 -8.431006881710442e-18
  outer loop
    vertex 3.250000120977566 19.59999997993993 3.199832912476334
    vertex -0.9541933885929502 -5.754519908034465 3.7355005459136046
    vertex -0.22210256344565665 -1.3394492544723513 3.735500545913605
  endloop
endfacet
facet normal -0.9865296206499465 0.16358272396641685 -8.431006881710442e-18
  outer loop
    vertex 3.250000120977566 19.59999997993993 3.199832912476334
    vertex -0.22210256344565665 -1.3394492544723513 3.735500545913605
    vertex 3.250000120977566 19.59999997993993 6.799498737429006
  endloop
endfacet
facet normal -0.9865296206499465 0.16358272396641685 -8.431006881710442e-18
  outer loop
    vertex 3.250000120977566 19.59999997993993 6.799498737429006
    vertex -0.22210256344565665 -1.3394492544723513 3.735500545913605
    vertex -0.22210256344565665 -1.3394492544723513 6.22583424318934
  endloop
endfacet
facet normal -0.9865296206499465 0.16358272396641685 -8.431006881710442e-18
  outer loop
    vertex 3.250000120977566 19.59999997993993 6.799498737429006
    vertex -0.22210256344565665 -1.3394492544723513 6.22583424318934
    vertex -0.9541933885929502 -5.754519908034465 6.2258342431893405
  endloop
endfacet
facet normal -0.9865296206499465 0.16358272396641685 -8.431006881710442e-18
  outer loop
    vertex 3.250000120977566 19.59999997993993 6.799498737429006
    vertex -0.9541933885929502 -5.754519908034465 6.2258342431893405
    vertex 2.415728228748784 14.5686989146252 6.799498737429008
  endloop
endfacet
facet normal -0.9865296206499465 0.16358272396641685 -8.431006881710442e-18
  outer loop
    vertex 2.415728228748784 14.5686989146252 6.799498737429008
    vertex -0.9541933885929502 -5.754519908034465 6.2258342431893405
    vertex -2.8199664825478975e-15 0.0 9.961334789102946
  endloop
endfacet
facet normal -0.9865296206499465 0.16358272396641685 -8.431006881710442e-18
  outer loop
    vertex 2.415728228748784 14.5686989146252 6.799498737429008
    vertex -2.8199664825478975e-15 0.0 9.961334789102946
    vertex 2.4157282287487956 14.5686989146252 9.961334789102946
  endloop
endfacet
facet normal 0.40946736305320103 0.912324765965639 -3.779188079707208e-15
  outer loop
    vertex 4.756919237813789 19.435474382362077 8.599331649905348
    vertex 5.149070588001387 19.259469975522293 9.961334789102947
    vertex 5.149070588001387 19.259469975522293 8.599331649905343
  endloop
endfacet
facet normal 0.4587437862670272 0.8885685896774612 -1.9172636568284226e-15
  outer loop
    vertex 5.149070588001387 19.259469975522293 9.961334789102947
    vertex 4.756919237813789 19.435474382362077 8.599331649905348
    vertex 4.756919237813789 19.4354743823621 9.961334789102946
  endloop
endfacet
facet normal 0.45874378626702716 0.8885685896774612 -1.917263656828422e-15
  outer loop
    vertex 5.149070588001387 19.259469975522293 8.599331649905343
    vertex 5.558621007062611 19.018796250895246 9.96133478910295
    vertex 5.558621007062611 19.018796250895246 8.599331649905343
  endloop
endfacet
facet normal 0.5530348777220597 0.8331581026569604 -2.981678505812305e-17
  outer loop
    vertex 5.558621007062611 19.018796250895246 9.96133478910295
    vertex 5.149070588001387 19.259469975522293 8.599331649905343
    vertex 5.149070588001387 19.259469975522293 9.961334789102947
  endloop
endfacet
facet normal 0.5530348777220597 0.8331581026569608 -2.98167850581231e-17
  outer loop
    vertex 5.558621007062611 19.018796250895246 8.599331649905343
    vertex 5.939439713342792 18.73483762639847 9.96133478910295
    vertex 5.939439713342792 18.73483762639847 8.599331649905343
  endloop
endfacet
facet normal 0.6407110460042609 0.7677821015940174 9.961414251303025e-18
  outer loop
    vertex 5.939439713342792 18.73483762639847 9.96133478910295
    vertex 5.558621007062611 19.018796250895246 8.599331649905343
    vertex 5.558621007062611 19.018796250895246 9.96133478910295
  endloop
endfacet
facet normal 0.6407110460042608 0.7677821015940175 9.961414251302988e-18
  outer loop
    vertex 5.939439713342792 18.73483762639847 8.599331649905343
    vertex 6.286971684028247 18.410990568621937 9.961334789102951
    vertex 6.286971684028247 18.410990568621937 8.599331649905345
  endloop
endfacet
facet normal 0.7207235848915812 0.6932225574669565 4.962046376996506e-17
  outer loop
    vertex 6.286971684028247 18.410990568621937 9.961334789102951
    vertex 5.939439713342792 18.73483762639847 8.599331649905343
    vertex 5.939439713342792 18.73483762639847 9.96133478910295
  endloop
endfacet
facet normal 0.7207235848915812 0.6932225574669565 4.962046376996506e-17
  outer loop
    vertex 6.286971684028247 18.410990568621937 9.961334789102951
    vertex 6.597060043343582 18.051128654971425 8.599331649905345
    vertex 6.286971684028247 18.410990568621937 8.599331649905345
  endloop
endfacet
facet normal 0.7921154538447682 0.6103712868249106 8.868599637159258e-17
  outer loop
    vertex 6.597060043343582 18.051128654971425 8.599331649905345
    vertex 6.286971684028247 18.410990568621937 9.961334789102951
    vertex 6.597060043343582 18.051128654971425 9.961334789102951
  endloop
endfacet
facet normal 0.7921154538447682 0.6103712868249106 8.868599637159258e-17
  outer loop
    vertex 6.597060043343582 18.051128654971425 9.961334789102951
    vertex 6.865995783491363 17.659556241297796 8.599331649905345
    vertex 6.597060043343582 18.051128654971425 8.599331649905345
  endloop
endfacet
facet normal 0.8540327252955705 0.5202192846523671 1.2669074406410058e-16
  outer loop
    vertex 6.865995783491363 17.659556241297796 8.599331649905345
    vertex 6.597060043343582 18.051128654971425 9.961334789102951
    vertex 6.865995783491363 17.659556241297796 9.961334789102951
  endloop
endfacet
facet normal 0.8540327252955705 0.5202192846523671 1.2669074406410058e-16
  outer loop
    vertex 6.865995783491363 17.659556241297796 9.961334789102951
    vertex 7.090562128584314 17.240956976928352 8.599331649905345
    vertex 6.865995783491363 17.659556241297796 8.599331649905345
  endloop
endfacet
facet normal 0.9057347985871081 0.42384487094734447 1.6318012704372608e-16
  outer loop
    vertex 7.090562128584314 17.240956976928352 8.599331649905345
    vertex 6.865995783491363 17.659556241297796 9.961334789102951
    vertex 7.090562128584314 17.240956976928352 9.961334789102951
  endloop
endfacet
facet normal 0.9057347985871081 0.42384487094734447 1.6318012704372608e-16
  outer loop
    vertex 7.090562128584314 17.240956976928352 8.599331649905345
    vertex 7.268073010926097 16.80033778291919 9.96133478910295
    vertex 7.268073010926097 16.80033778291919 8.599331649905343
  endloop
endfacet
facet normal 0.9466032583960876 0.32240079279355077 1.9771769098406617e-16
  outer loop
    vertex 7.268073010926097 16.80033778291919 9.96133478910295
    vertex 7.090562128584314 17.240956976928352 8.599331649905345
    vertex 7.090562128584314 17.240956976928352 9.961334789102951
  endloop
endfacet
facet normal 0.9466032583960876 0.32240079279355077 1.9771769098406617e-16
  outer loop
    vertex 7.268073010926097 16.80033778291919 9.96133478910295
    vertex 7.396405199421599 16.342968963611412 8.599331649905343
    vertex 7.268073010926097 16.80033778291919 8.599331649905343
  endloop
endfacet
facet normal 0.9761492716801095 0.21710043620037267 2.2989032752388233e-16
  outer loop
    vertex 7.396405199421599 16.342968963611412 8.599331649905343
    vertex 7.268073010926097 16.80033778291919 9.96133478910295
    vertex 7.396405199421599 16.342968963611412 9.96133478910295
  endloop
endfacet
facet normal 0.9761492716801095 0.21710043620037267 2.2989032752388233e-16
  outer loop
    vertex 7.396405199421599 16.342968963611412 8.599331649905343
    vertex 7.474023695824583 15.874321167825292 9.961334789102947
    vertex 7.474023695824583 15.874321167825292 8.599331649905343
  endloop
endfacet
facet normal 0.9940194346742232 0.1092033126326205 1.2235841999306302e-16
  outer loop
    vertex 7.474023695824583 15.874321167825292 9.961334789102947
    vertex 7.396405199421599 16.342968963611412 8.599331649905343
    vertex 7.396405199421599 16.342968963611412 9.96133478910295
  endloop
endfacet
facet normal 0.9940194346742232 0.10920331263262029 1.2235841999306255e-16
  outer loop
    vertex 7.474023695824583 15.874321167825292 8.599331649905343
    vertex 7.500000095053769 15.399999953707555 9.961334789102946
    vertex 7.500000095053769 15.399999953707555 8.599331649905341
  endloop
endfacet
facet normal 0.998503739439233 0.05468347397403045 -6.176282706208929e-19
  outer loop
    vertex 7.500000095053769 15.399999953707555 9.961334789102946
    vertex 7.474023695824583 15.874321167825292 8.599331649905343
    vertex 7.474023695824583 15.874321167825292 9.961334789102947
  endloop
endfacet
facet normal 0.4094673630531978 0.9123247659656406 -8.417492392325713e-18
  outer loop
    vertex 4.7569192378138005 19.4354743823621 1.762479051592436e-15
    vertex 5.149070588001399 19.259469975522293 1.4000000000000001
    vertex 5.149070588001399 19.259469975522293 7.049916206369742e-16
  endloop
endfacet
facet normal 0.4587437862670281 0.8885685896774606 -1.4359932333646834e-17
  outer loop
    vertex 5.149070588001399 19.259469975522293 1.4000000000000001
    vertex 4.7569192378138005 19.4354743823621 1.762479051592436e-15
    vertex 4.7569192378138005 19.4354743823621 1.4
  endloop
endfacet
facet normal 0.4587437862670282 0.8885685896774607 -1.435993233364684e-17
  outer loop
    vertex 5.149070588001399 19.259469975522293 7.049916206369742e-16
    vertex 5.558621007062611 19.018796250895246 1.4000000000000001
    vertex 5.558621007062611 19.018796250895246 7.049916206369742e-16
  endloop
endfacet
facet normal 0.5530348777220584 0.8331581026569616 -1.8573891324027713e-17
  outer loop
    vertex 5.558621007062611 19.018796250895246 1.4000000000000001
    vertex 5.149070588001399 19.259469975522293 7.049916206369742e-16
    vertex 5.149070588001399 19.259469975522293 1.4000000000000001
  endloop
endfacet
facet normal 0.5530348777220583 0.8331581026569617 -1.8573891324027716e-17
  outer loop
    vertex 5.558621007062611 19.018796250895246 7.049916206369742e-16
    vertex 5.939439713342792 18.73483762639847 1.4000000000000004
    vertex 5.939439713342792 18.73483762639847 8.812395257962178e-16
  endloop
endfacet
facet normal 0.6407110460042607 0.7677821015940176 -1.5041336172965255e-17
  outer loop
    vertex 5.939439713342792 18.73483762639847 1.4000000000000004
    vertex 5.558621007062611 19.018796250895246 7.049916206369742e-16
    vertex 5.558621007062611 19.018796250895246 1.4000000000000001
  endloop
endfacet
facet normal 0.6407110460042605 0.7677821015940175 -1.5041336172965252e-17
  outer loop
    vertex 5.939439713342792 18.73483762639847 8.812395257962178e-16
    vertex 6.286971684028247 18.410990568621937 1.4000000000000004
    vertex 6.286971684028247 18.410990568621937 8.812395257962178e-16
  endloop
endfacet
facet normal 0.7207235848915873 0.6932225574669502 -1.1328869614486969e-17
  outer loop
    vertex 6.286971684028247 18.410990568621937 1.4000000000000004
    vertex 5.939439713342792 18.73483762639847 8.812395257962178e-16
    vertex 5.939439713342792 18.73483762639847 1.4000000000000004
  endloop
endfacet
facet normal 0.7207235848915873 0.6932225574669502 -1.1328869614486969e-17
  outer loop
    vertex 6.286971684028247 18.410990568621937 1.4000000000000004
    vertex 6.597060043343582 18.051128654971425 8.812395257962178e-16
    vertex 6.286971684028247 18.410990568621937 8.812395257962178e-16
  endloop
endfacet
facet normal 0.792115453844771 0.6103712868249069 -7.480896951143575e-18
  outer loop
    vertex 6.597060043343582 18.051128654971425 8.812395257962178e-16
    vertex 6.286971684028247 18.410990568621937 1.4000000000000004
    vertex 6.597060043343582 18.051128654971425 1.4000000000000004
  endloop
endfacet
facet normal 0.792115453844771 0.6103712868249069 -7.480896951143575e-18
  outer loop
    vertex 6.597060043343582 18.051128654971425 1.4000000000000004
    vertex 6.865995783491363 17.659556241297796 8.812395257962178e-16
    vertex 6.597060043343582 18.051128654971425 8.812395257962178e-16
  endloop
endfacet
facet normal 0.8540327252955705 0.5202192846523671 -3.543444291891945e-18
  outer loop
    vertex 6.865995783491363 17.659556241297796 8.812395257962178e-16
    vertex 6.597060043343582 18.051128654971425 1.4000000000000004
    vertex 6.865995783491363 17.659556241297796 1.4000000000000004
  endloop
endfacet
facet normal 0.8540327252955705 0.5202192846523671 -3.543444291891945e-18
  outer loop
    vertex 6.865995783491363 17.659556241297796 1.4000000000000004
    vertex 7.090562128584314 17.24095697692833 8.812395257962178e-16
    vertex 6.865995783491363 17.659556241297796 8.812395257962178e-16
  endloop
endfacet
facet normal 0.9057347985871071 0.42384487094734646 4.363919722683695e-19
  outer loop
    vertex 7.090562128584314 17.24095697692833 8.812395257962178e-16
    vertex 6.865995783491363 17.659556241297796 1.4000000000000004
    vertex 7.090562128584314 17.24095697692833 1.4000000000000004
  endloop
endfacet
facet normal 0.9057347985871071 0.42384487094734646 4.363919722683695e-19
  outer loop
    vertex 7.090562128584314 17.24095697692833 1.4000000000000004
    vertex 7.268073010926097 16.80033778291919 8.812395257962178e-16
    vertex 7.090562128584314 17.24095697692833 8.812395257962178e-16
  endloop
endfacet
facet normal 0.9466032583960869 0.32240079279355277 4.411008494445021e-18
  outer loop
    vertex 7.268073010926097 16.80033778291919 8.812395257962178e-16
    vertex 7.090562128584314 17.24095697692833 1.4000000000000004
    vertex 7.268073010926097 16.80033778291919 1.4000000000000004
  endloop
endfacet
facet normal 0.9466032583960869 0.32240079279355277 4.411008494445021e-18
  outer loop
    vertex 7.268073010926097 16.80033778291919 8.812395257962178e-16
    vertex 7.396405199421599 16.342968963611412 1.4000000000000001
    vertex 7.396405199421599 16.342968963611412 7.049916206369742e-16
  endloop
endfacet
facet normal 0.9761492716801097 0.21710043620037184 8.332864361768065e-18
  outer loop
    vertex 7.396405199421599 16.342968963611412 1.4000000000000001
    vertex 7.268073010926097 16.80033778291919 8.812395257962178e-16
    vertex 7.268073010926097 16.80033778291919 1.4000000000000004
  endloop
endfacet
facet normal 0.9761492716801097 0.21710043620037184 8.332864361768065e-18
  outer loop
    vertex 7.396405199421599 16.342968963611412 1.4000000000000001
    vertex 7.474023695824583 15.874321167825292 7.049916206369742e-16
    vertex 7.396405199421599 16.342968963611412 7.049916206369742e-16
  endloop
endfacet
facet normal 0.9940194346742234 0.10920331263261979 4.298123305050819e-18
  outer loop
    vertex 7.474023695824583 15.874321167825292 7.049916206369742e-16
    vertex 7.396405199421599 16.342968963611412 1.4000000000000001
    vertex 7.474023695824583 15.874321167825292 1.4000000000000001
  endloop
endfacet
facet normal 0.9940194346742234 0.10920331263261979 4.298123305050819e-18
  outer loop
    vertex 7.474023695824583 15.874321167825292 7.049916206369742e-16
    vertex 7.500000095053769 15.399999953707555 1.4
    vertex 7.500000095053769 15.399999953707555 5.287437154777306e-16
  endloop
endfacet
facet normal 0.998503739439233 0.05468347397403111 -1.675923268601277e-18
  outer loop
    vertex 7.500000095053769 15.399999953707555 1.4
    vertex 7.474023695824583 15.874321167825292 7.049916206369742e-16
    vertex 7.474023695824583 15.874321167825292 1.4000000000000001
  endloop
endfacet
facet normal 4.55709918068851e-18 3.091637601498006e-17 -1.0
  outer loop
    vertex -2.8199664825478975e-15 0.0 -1.5653958587979452e-31
    vertex 7.499999999999995 -4.629245133891402e-08 -1.5653958587979452e-31
    vertex 1.0136543070219197 -6.256615925348541e-09 -1.5653958587979452e-31
  endloop
endfacet
facet normal 4.55709918068851e-18 3.091637601498006e-17 -1.0
  outer loop
    vertex 7.499999999999995 -4.629245133891402e-08 -1.5653958587979452e-31
    vertex -2.8199664825478975e-15 0.0 -1.5653958587979452e-31
    vertex 7.500000095053769 15.399999953707555 5.287437154777306e-16
  endloop
endfacet
facet normal 4.55709918068851e-18 3.091637601498006e-17 -1.0
  outer loop
    vertex 7.500000095053769 15.399999953707555 5.287437154777306e-16
    vertex -2.8199664825478975e-15 0.0 -1.5653958587979452e-31
    vertex 2.4157282287487956 14.5686989146252 2.5366832590088625e-16
  endloop
endfacet
facet normal 4.55709918068851e-18 3.091637601498006e-17 -1.0
  outer loop
    vertex 7.500000095053769 15.399999953707555 5.287437154777306e-16
    vertex 2.4157282287487956 14.5686989146252 2.5366832590088625e-16
    vertex -0.3352926601438219 16.317272352853113 7.049916206369742e-16
  endloop
endfacet
facet normal 4.55709918068851e-18 3.091637601498006e-17 -1.0
  outer loop
    vertex 7.500000095053769 15.399999953707555 5.287437154777306e-16
    vertex -0.3352926601438219 16.317272352853113 7.049916206369742e-16
    vertex 7.474023695824583 15.874321167825292 7.049916206369742e-16
  endloop
endfacet
facet normal 4.55709918068851e-18 3.091637601498006e-17 -1.0
  outer loop
    vertex 7.474023695824583 15.874321167825292 7.049916206369742e-16
    vertex -0.3352926601438219 16.317272352853113 7.049916206369742e-16
    vertex 7.396405199421599 16.342968963611412 7.049916206369742e-16
  endloop
endfacet
facet normal 4.55709918068851e-18 3.091637601498006e-17 -1.0
  outer loop
    vertex 7.396405199421599 16.342968963611412 7.049916206369742e-16
    vertex -0.3352926601438219 16.317272352853113 7.049916206369742e-16
    vertex 0.08184328597054698 18.832922885510452 1.4099832412739485e-15
  endloop
endfacet
facet normal 4.55709918068851e-18 3.091637601498006e-17 -1.0
  outer loop
    vertex 7.396405199421599 16.342968963611412 7.049916206369742e-16
    vertex 0.08184328597054698 18.832922885510452 1.4099832412739485e-15
    vertex 7.268073010926097 16.80033778291919 8.812395257962178e-16
  endloop
endfacet
facet normal 4.55709918068851e-18 3.091637601498006e-17 -1.0
  outer loop
    vertex 7.268073010926097 16.80033778291919 8.812395257962178e-16
    vertex 0.08184328597054698 18.832922885510452 1.4099832412739485e-15
    vertex 7.090562128584314 17.24095697692833 8.812395257962178e-16
  endloop
endfacet
facet normal 4.55709918068851e-18 3.091637601498006e-17 -1.0
  outer loop
    vertex 7.090562128584314 17.24095697692833 8.812395257962178e-16
    vertex 0.08184328597054698 18.832922885510452 1.4099832412739485e-15
    vertex 6.865995783491363 17.659556241297796 8.812395257962178e-16
  endloop
endfacet
facet normal 4.55709918068851e-18 3.091637601498006e-17 -1.0
  outer loop
    vertex 6.865995783491363 17.659556241297796 8.812395257962178e-16
    vertex 0.08184328597054698 18.832922885510452 1.4099832412739485e-15
    vertex 6.597060043343582 18.051128654971425 8.812395257962178e-16
  endloop
endfacet
facet normal 4.55709918068851e-18 3.091637601498006e-17 -1.0
  outer loop
    vertex 6.597060043343582 18.051128654971425 8.812395257962178e-16
    vertex 0.08184328597054698 18.832922885510452 1.4099832412739485e-15
    vertex 6.286971684028247 18.410990568621937 8.812395257962178e-16
  endloop
endfacet
facet normal 4.55709918068851e-18 3.091637601498006e-17 -1.0
  outer loop
    vertex 6.286971684028247 18.410990568621937 8.812395257962178e-16
    vertex 0.08184328597054698 18.832922885510452 1.4099832412739485e-15
    vertex 5.939439713342792 18.73483762639847 8.812395257962178e-16
  endloop
endfacet
facet normal 4.55709918068851e-18 3.091637601498006e-17 -1.0
  outer loop
    vertex 5.939439713342792 18.73483762639847 8.812395257962178e-16
    vertex 0.08184328597054698 18.832922885510452 1.4099832412739485e-15
    vertex 5.558621007062611 19.018796250895246 7.049916206369742e-16
  endloop
endfacet
facet normal 4.55709918068851e-18 3.091637601498006e-17 -1.0
  outer loop
    vertex 5.558621007062611 19.018796250895246 7.049916206369742e-16
    vertex 0.08184328597054698 18.832922885510452 1.4099832412739485e-15
    vertex 3.250000120977566 19.59999997993993 2.0832622871788995e-16
  endloop
endfacet
facet normal 4.55709918068851e-18 3.091637601498006e-17 -1.0
  outer loop
    vertex 5.558621007062611 19.018796250895246 7.049916206369742e-16
    vertex 3.250000120977566 19.59999997993993 2.0832622871788995e-16
    vertex 5.149070588001399 19.259469975522293 7.049916206369742e-16
  endloop
endfacet
facet normal 4.55709918068851e-18 3.091637601498006e-17 -1.0
  outer loop
    vertex 5.149070588001399 19.259469975522293 7.049916206369742e-16
    vertex 3.250000120977566 19.59999997993993 2.0832622871788995e-16
    vertex 4.7569192378138005 19.4354743823621 1.762479051592436e-15
  endloop
endfacet
facet normal 4.55709918068851e-18 3.091637601498006e-17 -1.0
  outer loop
    vertex 4.7569192378138005 19.4354743823621 1.762479051592436e-15
    vertex 3.250000120977566 19.59999997993993 2.0832622871788995e-16
    vertex 4.7569192383244525 19.518208611700114 4.366599266678091e-16
  endloop
endfacet
facet normal 4.55709918068851e-18 3.091637601498006e-17 -1.0
  outer loop
    vertex 4.7569192383244525 19.518208611700114 4.366599266678091e-16
    vertex 3.250000120977566 19.59999997993993 2.0832622871788995e-16
    vertex 5.751076843263491 25.51374347678809 2.172536599668853e-16
  endloop
endfacet
facet normal 4.55709918068851e-18 3.091637601498006e-17 -1.0
  outer loop
    vertex 5.751076843263491 25.51374347678809 2.172536599668853e-16
    vertex 3.250000120977566 19.59999997993993 2.0832622871788995e-16
    vertex 4.244157725916527 25.595534845027903 5.395440631815808e-16
  endloop
endfacet
facet normal 0.9865296206499455 -0.16358272396642295 8.095847151681553e-15
  outer loop
    vertex 5.751076843263491 25.51374347678809 1.3999999999999995
    vertex 4.7569192383244525 19.518208611700114 4.366599266678091e-16
    vertex 5.751076843263491 25.51374347678809 2.172536599668853e-16
  endloop
endfacet
facet normal 0.9865296206499455 -0.16358272396642295 8.095847151681553e-15
  outer loop
    vertex 4.7569192383244525 19.518208611700114 4.366599266678091e-16
    vertex 5.751076843263491 25.51374347678809 1.3999999999999995
    vertex 4.756919238324464 19.518208611700114 1.3999999999999997
  endloop
endfacet
facet normal 1.0 -6.172387588675082e-09 4.140910439177262e-15
  outer loop
    vertex 4.7569192383244525 19.518208611700114 9.961334789102946
    vertex 4.756919237813789 19.435474382362077 8.599331649905348
    vertex 4.756919238324464 19.518208611700114 8.599331649905341
  endloop
endfacet
facet normal 1.0 -6.172387588675082e-09 4.140910439177262e-15
  outer loop
    vertex 4.756919237813789 19.435474382362077 8.599331649905348
    vertex 4.7569192383244525 19.518208611700114 9.961334789102946
    vertex 4.756919237813789 19.4354743823621 9.961334789102946
  endloop
endfacet
facet normal 1.0 -6.172251250111976e-09 -4.028523546519792e-15
  outer loop
    vertex 4.756919238324464 19.518208611700114 1.3999999999999997
    vertex 4.7569192378138005 19.4354743823621 1.762479051592436e-15
    vertex 4.7569192383244525 19.518208611700114 4.366599266678091e-16
  endloop
endfacet
facet normal 1.0 -6.172251250111976e-09 -4.028523546519792e-15
  outer loop
    vertex 4.7569192378138005 19.4354743823621 1.762479051592436e-15
    vertex 4.756919238324464 19.518208611700114 1.3999999999999997
    vertex 4.7569192378138005 19.4354743823621 1.4
  endloop
endfacet
facet normal 0.05419743735384464 0.9985302387931355 -3.912164387464274e-15
  outer loop
    vertex 4.244157725916527 25.595534845027903 8.599331649905341
    vertex 5.751076843263491 25.51374347678809 9.961334789102946
    vertex 5.751076843263503 25.51374347678809 8.599331649905341
  endloop
endfacet
facet normal 0.05419743735384464 0.9985302387931355 -3.912164387464274e-15
  outer loop
    vertex 5.751076843263491 25.51374347678809 9.961334789102946
    vertex 4.244157725916527 25.595534845027903 8.599331649905341
    vertex 4.244157725916527 25.595534845027903 9.961334789102946
  endloop
endfacet
facet normal 0.05419743735384482 0.9985302387931355 4.024584277438379e-15
  outer loop
    vertex 4.244157725916527 25.595534845027903 5.395440631815808e-16
    vertex 5.751076843263491 25.51374347678809 1.3999999999999995
    vertex 5.751076843263491 25.51374347678809 2.172536599668853e-16
  endloop
endfacet
facet normal 0.05419743735384482 0.9985302387931355 4.024584277438379e-15
  outer loop
    vertex 5.751076843263491 25.51374347678809 1.3999999999999995
    vertex 4.244157725916527 25.595534845027903 5.395440631815808e-16
    vertex 4.244157725916527 25.595534845027903 1.399999999999999
  endloop
endfacet
facet normal -1.0920678357053103e-15 2.3389022602566023e-16 -1.0
  outer loop
    vertex -2.941424417967816 -5.5128212403002745 3.7355005459136086
    vertex -0.9541933885929502 -5.754519908034465 3.7355005459136046
    vertex -2.648574601947531 -6.061623927758192 3.7355005459136064
  endloop
endfacet
facet normal -1.0920678357053103e-15 2.3389022602566023e-16 -1.0
  outer loop
    vertex -0.9541933885929502 -5.754519908034465 3.7355005459136046
    vertex -2.941424417967816 -5.5128212403002745 3.7355005459136086
    vertex -0.22210256344565665 -1.3394492544723513 3.735500545913605
  endloop
endfacet
facet normal -1.0920678357053103e-15 2.3389022602566023e-16 -1.0
  outer loop
    vertex -0.22210256344565665 -1.3394492544723513 3.735500545913605
    vertex -2.941424417967816 -5.5128212403002745 3.7355005459136086
    vertex -3.0172711130893966 -5.37068398140354 3.7355005459136073
  endloop
endfacet
facet normal -1.0920678357053103e-15 2.3389022602566023e-16 -1.0
  outer loop
    vertex -0.22210256344565665 -1.3394492544723513 3.735500545913605
    vertex -3.0172711130893966 -5.37068398140354 3.7355005459136073
    vertex -3.1945761781253372 -4.607861563858427 3.7355005459136073
  endloop
endfacet
facet normal -1.0920678357053103e-15 2.3389022602566023e-16 -1.0
  outer loop
    vertex -0.22210256344565665 -1.3394492544723513 3.735500545913605
    vertex -3.1945761781253372 -4.607861563858427 3.7355005459136073
    vertex -3.168406749883608 -3.8251417622548933 3.7355005459136077
  endloop
endfacet
facet normal -1.0920678357053103e-15 2.3389022602566023e-16 -1.0
  outer loop
    vertex -0.22210256344565665 -1.3394492544723513 3.735500545913605
    vertex -3.168406749883608 -3.8251417622548933 3.7355005459136077
    vertex -2.940546231651784 -3.075865637566594 3.7355005459136073
  endloop
endfacet
facet normal -1.0920678357053103e-15 2.3389022602566023e-16 -1.0
  outer loop
    vertex -0.22210256344565665 -1.3394492544723513 3.735500545913605
    vertex -2.940546231651784 -3.075865637566594 3.7355005459136073
    vertex -2.5265229411901724 -2.4110951194536945 3.7355005459136073
  endloop
endfacet
facet normal -1.0920678357053103e-15 2.3389022602566023e-16 -1.0
  outer loop
    vertex -0.22210256344565665 -1.3394492544723513 3.735500545913605
    vertex -2.5265229411901724 -2.4110951194536945 3.7355005459136073
    vertex -2.4088594611494294 -2.3010450081759157 3.7355005459136086
  endloop
endfacet
facet normal -1.0920678357053103e-15 2.3389022602566023e-16 -1.0
  outer loop
    vertex -0.22210256344565665 -1.3394492544723513 3.735500545913605
    vertex -2.4088594611494294 -2.3010450081759157 3.7355005459136086
    vertex -1.954551881537791 -1.8761332201403713 3.7355005459136064
  endloop
endfacet
facet normal -1.0920678357053103e-15 2.3389022602566023e-16 -1.0
  outer loop
    vertex -0.22210256344565665 -1.3394492544723513 3.735500545913605
    vertex -1.954551881537791 -1.8761332201403713 3.7355005459136064
    vertex -1.2636119351831405 -1.5074367089984828 3.735500545913606
  endloop
endfacet
facet normal -1.0920678357053103e-15 2.3389022602566023e-16 -1.0
  outer loop
    vertex -0.22210256344565665 -1.3394492544723513 3.735500545913605
    vertex -1.2636119351831405 -1.5074367089984828 3.735500545913606
    vertex -0.5007895176380148 -1.3301316439625537 3.735500545913605
  endloop
endfacet
facet normal -1.0920678357053103e-15 2.3389022602566023e-16 -1.0
  outer loop
    vertex -0.6995660598329863 -7.275478796103986 3.7355005459136046
    vertex 0.8459761593156379 -7.124343159309818 3.735500545913603
    vertex 0.0831537417705249 -7.3016482243457475 3.7355005459136037
  endloop
endfacet
facet normal -1.0920678357053103e-15 2.3389022602566023e-16 -1.0
  outer loop
    vertex 0.8459761593156379 -7.124343159309818 3.735500545913603
    vertex -0.6995660598329863 -7.275478796103986 3.7355005459136046
    vertex -1.4488421845212742 -7.047618277872195 3.735500545913605
  endloop
endfacet
facet normal -1.0920678357053103e-15 2.3389022602566023e-16 -1.0
  outer loop
    vertex 0.8459761593156379 -7.124343159309818 3.735500545913603
    vertex -1.4488421845212742 -7.047618277872195 3.735500545913605
    vertex 1.536916105670284 -6.755646648167907 3.7355005459136024
  endloop
endfacet
facet normal -1.0920678357053103e-15 2.3389022602566023e-16 -1.0
  outer loop
    vertex 1.536916105670284 -6.755646648167907 3.7355005459136024
    vertex -1.4488421845212742 -7.047618277872195 3.735500545913605
    vertex -1.9592566947225183 -6.729728887089999 3.7355005459136046
  endloop
endfacet
facet normal -1.0920678357053103e-15 2.3389022602566023e-16 -1.0
  outer loop
    vertex 1.536916105670284 -6.755646648167907 3.7355005459136024
    vertex -1.9592566947225183 -6.729728887089999 3.7355005459136046
    vertex 2.1088871653226815 -6.220684748854585 3.7355005459136015
  endloop
endfacet
facet normal -1.0920678357053103e-15 2.3389022602566023e-16 -1.0
  outer loop
    vertex 2.1088871653226815 -6.220684748854585 3.7355005459136015
    vertex -1.9592566947225183 -6.729728887089999 3.7355005459136046
    vertex -2.1136127026341733 -6.633594987410549 3.735500545913606
  endloop
endfacet
facet normal -1.0920678357053103e-15 2.3389022602566023e-16 -1.0
  outer loop
    vertex 2.1088871653226815 -6.220684748854585 3.7355005459136015
    vertex -2.1136127026341733 -6.633594987410549 3.735500545913606
    vertex -2.648574601947531 -6.061623927758192 3.7355005459136064
  endloop
endfacet
facet normal -1.0920678357053103e-15 2.3389022602566023e-16 -1.0
  outer loop
    vertex 2.1088871653226815 -6.220684748854585 3.7355005459136015
    vertex -2.648574601947531 -6.061623927758192 3.7355005459136064
    vertex 2.3992175687709834 -5.7545199287327975 3.7355005459136
  endloop
endfacet
facet normal -1.0920678357053103e-15 2.3389022602566023e-16 -1.0
  outer loop
    vertex 2.3992175687709834 -5.7545199287327975 3.7355005459136
    vertex -2.648574601947531 -6.061623927758192 3.7355005459136064
    vertex -0.9541933885929502 -5.754519908034465 3.7355005459136046
  endloop
endfacet
facet normal -1.0920678357053103e-15 2.3389022602566023e-16 -1.0
  outer loop
    vertex 2.3992175687709834 -5.7545199287327975 3.7355005459136
    vertex -0.9541933885929502 -5.754519908034465 3.7355005459136046
    vertex 0.05946091842898371 -5.754519914291058 3.735500545913603
  endloop
endfacet
facet normal -1.0920678357053103e-15 2.3389022602566023e-16 -1.0
  outer loop
    vertex 2.3992175687709834 -5.7545199287327975 3.7355005459136
    vertex 0.05946091842898371 -5.754519914291058 3.735500545913603
    vertex 0.7644270572043143 -1.5030319784387662 3.7355005459136037
  endloop
endfacet
facet normal -1.0920678357053103e-15 2.3389022602566023e-16 -1.0
  outer loop
    vertex 2.3992175687709834 -5.7545199287327975 3.7355005459136
    vertex 0.7644270572043143 -1.5030319784387662 3.7355005459136037
    vertex 2.522910455784304 -5.555914230741685 3.7355005459136015
  endloop
endfacet
facet normal -1.0920678357053103e-15 2.3389022602566023e-16 -1.0
  outer loop
    vertex 2.522910455784304 -5.555914230741685 3.7355005459136015
    vertex 0.7644270572043143 -1.5030319784387662 3.7355005459136037
    vertex 2.7507709740161177 -4.806638106053398 3.735500545913601
  endloop
endfacet
facet normal -1.0920678357053103e-15 2.3389022602566023e-16 -1.0
  outer loop
    vertex 2.7507709740161177 -4.806638106053398 3.735500545913601
    vertex 0.7644270572043143 -1.5030319784387662 3.7355005459136037
    vertex 2.776940402257869 -4.023918304449864 3.7355005459136015
  endloop
endfacet
facet normal -1.0920678357053103e-15 2.3389022602566023e-16 -1.0
  outer loop
    vertex 2.776940402257869 -4.023918304449864 3.7355005459136015
    vertex 0.7644270572043143 -1.5030319784387662 3.7355005459136037
    vertex 2.599635337221906 -3.26109588690475 3.7355005459136015
  endloop
endfacet
facet normal -1.0920678357053103e-15 2.3389022602566023e-16 -1.0
  outer loop
    vertex 2.599635337221906 -3.26109588690475 3.7355005459136015
    vertex 0.7644270572043143 -1.5030319784387662 3.7355005459136037
    vertex 2.2309388260799947 -2.5701559405500993 3.7355005459136024
  endloop
endfacet
facet normal -1.0920678357053103e-15 2.3389022602566023e-16 -1.0
  outer loop
    vertex 2.2309388260799947 -2.5701559405500993 3.7355005459136024
    vertex 0.7644270572043143 -1.5030319784387662 3.7355005459136037
    vertex 1.6959769267666833 -1.9981848808977298 3.735500545913603
  endloop
endfacet
facet normal -1.0920678357053103e-15 2.3389022602566023e-16 -1.0
  outer loop
    vertex 1.6959769267666833 -1.9981848808977298 3.735500545913603
    vertex 0.7644270572043143 -1.5030319784387662 3.7355005459136037
    vertex 1.0312064086538055 -1.584161590436095 3.7355005459136037
  endloop
endfacet
facet normal 0.9865296206499453 -0.16358272396642398 -4.671151551076873e-15
  outer loop
    vertex 5.751076843263491 25.51374347678809 9.961334789102946
    vertex 4.756919238324464 19.518208611700114 8.599331649905341
    vertex 5.751076843263503 25.51374347678809 8.599331649905341
  endloop
endfacet
facet normal 0.9865296206499453 -0.16358272396642398 -4.671151551076873e-15
  outer loop
    vertex 4.756919238324464 19.518208611700114 8.599331649905341
    vertex 5.751076843263491 25.51374347678809 9.961334789102946
    vertex 4.7569192383244525 19.518208611700114 9.961334789102946
  endloop
endfacet
facet normal -0.9865296206499473 0.16358272396641182 -8.616797316224574e-15
  outer loop
    vertex 3.250000120977566 19.59999997993993 1.3999999999999988
    vertex 4.244157725916527 25.595534845027903 5.395440631815808e-16
    vertex 3.250000120977566 19.59999997993993 2.0832622871788995e-16
  endloop
endfacet
facet normal -0.9865296206499473 0.16358272396641182 -8.616797316224574e-15
  outer loop
    vertex 4.244157725916527 25.595534845027903 5.395440631815808e-16
    vertex 3.250000120977566 19.59999997993993 1.3999999999999988
    vertex 4.244157725916527 25.595534845027903 1.399999999999999
  endloop
endfacet
facet normal -0.9865296206499473 0.16358272396641096 1.2540703049547187e-14
  outer loop
    vertex 3.2500001209775777 19.59999997993993 9.961334789102946
    vertex 4.244157725916527 25.595534845027903 8.599331649905341
    vertex 3.250000120977566 19.59999997993993 8.599331649905341
  endloop
endfacet
facet normal -0.9865296206499473 0.16358272396641096 1.2540703049547187e-14
  outer loop
    vertex 4.244157725916527 25.595534845027903 8.599331649905341
    vertex 3.2500001209775777 19.59999997993993 9.961334789102946
    vertex 4.244157725916527 25.595534845027903 9.961334789102946
  endloop
endfacet
endsolid Monopoly Wheel Barrel
